{
.appVersion = "3202";
.formatVersion = 3;
axes = (
{
name = Grade;
tag = GRAD;
},
{
name = Weight;
tag = wght;
},
{
name = Slant;
tag = slnt;
}
);
classes = (
{
automatic = 1;
code = "A Aacute Acircumflex Adieresis Agrave Aring Atilde AE B C Ccedilla D Eth E Eacute Ecircumflex Edieresis Egrave F G H I Iacute Icircumflex Idieresis Igrave J K L M N Ntilde O Oacute Ocircumflex Odieresis Ograve Oslash Otilde OE P Thorn Q R S Scaron Scedilla Germandbls T U Uacute Ucircumflex Udieresis Ugrave V W X Y Yacute Ydieresis Z Zcaron Delta Omega";
name = Uppercase;
}
);
customParameters = (
{
name = "Enforce Compatibility Check";
value = 1;
},
{
name = "Use Extension Kerning";
value = 1;
},
{
name = "Use Typo Metrics";
value = 1;
},
{
name = "Use Line Breaks";
value = 1;
},
{
name = "gasp Table";
value = {
"20" = 7;
"65535" = 15;
"8" = 10;
};
},
{
name = fsType;
value = (
);
},
{
name = "Variable Font Origin";
value = m005;
},
{
name = "Write DisplayStrings";
value = 0;
},
{
name = "Write lastChange";
value = 0;
}
);
date = "2023-04-12 05:09:11 +0000";
familyName = Sutasoma;
featurePrefixes = (
{
automatic = 1;
code = "languagesystem DFLT dflt;

languagesystem latn dflt;
";
name = Languagesystems;
}
);
features = (
{
automatic = 1;
code = "feature calt;
feature subs;
feature sinf;
feature sups;
feature numr;
feature dnom;
feature frac;
feature ordn;
feature case;
feature ss01;
feature ss02;
";
tag = aalt;
},
{
code = "lookup uppercaseSharpS {
	sub @Uppercase germandbls' by Germandbls;
	sub germandbls' @Uppercase by Germandbls;
} uppercaseSharpS;";
tag = calt;
},
{
automatic = 1;
code = "lookup ccmp_Other_1 {
	@CombiningTopAccents = [acutecomb brevecomb breveinvertedcomb caroncomb circumflexcomb dblgravecomb dieresiscomb dotaccentcomb gravecomb hungarumlautcomb macroncomb ringcomb tildecomb];
	lookupflag UseMarkFilteringSet @CombiningTopAccents;
	sub i' @CombiningTopAccents by idotless;
	sub j' @CombiningTopAccents by jdotless;
} ccmp_Other_1;

lookup ccmp_Other_2 {

glyphs = (
{
glyphname = A;
layers = (
{
anchors = (
{
name = top;
pos = (290,700);
}
);
layerId = m01;
shapes = (
{
closed = 1;
nodes = (
(85,0,l),
(304,684,l),
(272,684,l),
(497,0,l),
(550,0,l),
(313,700,l),
(274,700,l),
(45,0,l)
);
},
{
closed = 1;
nodes = (
(439,201,l),
(428,233,l),
(147,233,l),
(137,201,l)
);
}
);
userData = {
com.hugojourdan.ColorFlow = {
"0" = 0;
"1" = 0;
"10" = 0;
"11" = 0;
"2" = 0;
"3" = 0;
"4" = 0;
"5" = 0;
"6" = 0;
"7" = 0;
"8" = 0;
"9" = 0;
};
};
width = 595;
},
{
anchors = (
{
name = top;
pos = (308,700);
}
);
layerId = "FF73925E-1E34-445B-881D-5A7CAAA8E8BE";
shapes = (
{
closed = 1;
nodes = (
(115,0,l),
(282,623,l),
(259,624,l),
(416,0,l),
(604,0,l),
(405,700,l),
(211,700,l),
(11,0,l)
);
},
{
closed = 1;
nodes = (
(414,168,l),
(391,258,l),
(144,258,l),
(120,168,l)
);
}
);
userData = {
com.hugojourdan.ColorFlow = {
"0" = 0;
"1" = 0;
"10" = 0;
"11" = 0;
"2" = 0;
"3" = 0;
"4" = 0;
"5" = 0;
"6" = 0;
"7" = 0;
"8" = 0;
"9" = 0;
};
};
width = 615;
},
{
anchors = (
{
name = top;
pos = (302,700);
}
);
layerId = "BF6BA5B2-0556-42F4-A103-614BEBF16A1A";
shapes = (
{
closed = 1;
nodes = (
(99,0,l),
(298,660,l),
(272,660,l),
(471,0,l),
(576,0,l),
(353,700,l),
(250,700,l),
(32,0,l)
);
},
{
closed = 1;
nodes = (
(425,192,l),
(411,239,l),
(159,239,l),
(145,192,l)
);
}
);
userData = {
com.hugojourdan.ColorFlow = {
"0" = 0;
"1" = 0;
"10" = 0;
"11" = 0;
"2" = 0;
"3" = 0;
"4" = 0;
"5" = 0;
"6" = 0;
"7" = 0;
"8" = 0;
"9" = 0;
};
};
width = 608;
},
{
anchors = (
{
name = top;
pos = (303,700);
}
);
layerId = m004;
shapes = (
{
closed = 1;
nodes = (
(89,0,l),
(314,684,l),
(286,684,l),
(510,0,l),
(563,0,l),
(326,700,l),
(273,700,l),
(36,0,l)
);
},
{
closed = 1;
nodes = (
(463,197,l),
(463,237,l),
(136,237,l),
(136,197,l)
);
}
);
userData = {
com.hugojourdan.ColorFlow = {
"0" = 0;
"1" = 0;
"10" = 0;
"11" = 0;
"2" = 0;
"3" = 0;
"4" = 0;
"5" = 0;
"6" = 0;
"7" = 0;
"8" = 0;
"9" = 0;
};
};
width = 599;
},
{
anchors = (
{
name = top;
pos = (313,700);
}
);
layerId = m005;
shapes = (
{
closed = 1;
nodes = (
(137,0,l),
(322,638,l),
(298,638,l),
(482,0,l),
(587,0,l),
(369,700,l),
(250,700,l),
(32,0,l)
);
},
{
closed = 1;
nodes = (
(484,177,l),
(484,254,l),
(139,254,l),
(139,177,l)
);
}
);
userData = {
com.hugojourdan.ColorFlow = {
"0" = 0;
"1" = 0;
"10" = 0;
"11" = 0;
"2" = 0;
"3" = 0;
"4" = 0;
"5" = 0;
"6" = 0;
"7" = 0;
"8" = 0;
"9" = 0;
};
};
width = 619;
},
{
anchors = (
{
name = top;
pos = (314,700);
}
);
layerId = m006;
shapes = (
{
closed = 1;
nodes = (
(199,0,l),
(320,565,l),
(302,565,l),
(422,0,l),
(610,0,l),
(422,700,l),
(199,700,l),
(11,0,l)
);
},
{
closed = 1;
nodes = (
(478,145,l),
(478,281,l),
(143,281,l),
(143,145,l)
);
}
);
userData = {
com.hugojourdan.ColorFlow = {
"0" = 0;
"1" = 0;
"10" = 0;
"11" = 0;
"2" = 0;
"3" = 0;
"4" = 0;
"5" = 0;
"6" = 0;
"7" = 0;
"8" = 0;
"9" = 0;
};
};
width = 621;
},
{
anchors = (
{
name = top;
pos = (382,700);
}
);
layerId = "4E5694F4-F64E-4331-B998-78BE273203C7";
shapes = (
{
closed = 1;
nodes = (
(51,0,l),
(397,682,l),
(368,684,l),
(474,0,l),
(525,0,l),
(411,700,l),
(358,700,l),
(-4,0,l)
);
},
{
closed = 1;
nodes = (
(460,197,l),
(467,237,l),
(140,237,l),
(133,197,l)
);
}
);
userData = {
com.hugojourdan.ColorFlow = {
"0" = 0;
"1" = 0;
"10" = 0;
"11" = 0;
"2" = 0;
"3" = 0;
"4" = 0;
"5" = 0;
"6" = 0;
"7" = 0;
"8" = 0;
"9" = 0;
};
};
width = 601;
},
{
anchors = (
{
name = top;
pos = (390,700);
}
);
layerId = "DF4E5521-40BA-460F-874A-364F4D14AAD8";
shapes = (
{
closed = 1;
nodes = (
(100,0,l),
(397,638,l),
(371,638,l),
(445,0,l),
(546,0,l),
(451,700,l),
(332,700,l),
(-9,0,l)
);
},
{
closed = 1;
nodes = (
(474,177,l),
(487,254,l),
(142,254,l),
(129,177,l)
);
}
);
userData = {
com.hugojourdan.ColorFlow = {
"0" = 0;
"1" = 0;
"10" = 0;
"11" = 0;
"2" = 0;
"3" = 0;
"4" = 0;
"5" = 0;
"6" = 0;
"7" = 0;
"8" = 0;
"9" = 0;
};
};
width = 619;
},
{
anchors = (
{
name = top;
pos = (391,700);
}
);
layerId = "C6DE9ED7-34B3-46A1-8A00-A72C4A5E93A3";
shapes = (
{
closed = 1;
nodes = (
(162,0,l),
(381,565,l),
(360,565,l),
(385,0,l),
(568,0,l),
(500,700,l),
(278,700,l),
(-31,0,l)
);
},
{
closed = 1;
nodes = (
(464,145,l),
(487,280,l),
(152,280,l),
(129,145,l)
);
}
);
userData = {
com.hugojourdan.ColorFlow = {
"0" = 0;
"1" = 0;
"10" = 0;
"11" = 0;
"2" = 0;
"3" = 0;
"4" = 0;
"5" = 0;
"6" = 0;
"7" = 0;
"8" = 0;
"9" = 0;
};
};
width = 621;
},
{
anchors = (
{
name = top;
pos = (351,700);
}
);
layerId = "D2741A44-CB8E-4434-9CC9-735A9A127F4C";
shapes = (
{
closed = 1;
nodes = (
(35,0,l),
(369,682,l),
(336,684,l),
(449,0,l),
(500,0,l),
(380,700,l),
(341,700,l),
(-7,0,l)
);
},
{
closed = 1;
nodes = (
(422,201,l),
(418,233,l),
(137,233,l),
(120,201,l)
);
}
);
userData = {
com.hugojourdan.ColorFlow = {
"0" = 0;
"1" = 0;
"10" = 0;
"11" = 0;
"2" = 0;
"3" = 0;
"4" = 0;
"5" = 0;
"6" = 0;
"7" = 0;
"8" = 0;
"9" = 0;
};
};
width = 573;
},
{
anchors = (
{
name = top;
pos = (364,700);
}
);
layerId = "0B63B416-D10E-4459-8DAA-360BF3D1BFD2";
shapes = (
{
closed = 1;
nodes = (
(48,0,l),
(368,659,l),
(337,661,l),
(417,0,l),
(520,0,l),
(422,700,l),
(326,700,l),
(-17,0,l)
);
},
{
closed = 1;
nodes = (
(420,186,l),
(411,245,l),
(132,245,l),
(108,186,l)
);
}
);
userData = {
com.hugojourdan.ColorFlow = {
"0" = 0;
"1" = 0;
"10" = 0;
"11" = 0;
"2" = 0;
"3" = 0;
"4" = 0;
"5" = 0;
"6" = 0;
"7" = 0;
"8" = 0;
"9" = 0;
};
};
width = 585;
},
{
anchors = (
{
name = top;
pos = (370,700);
}
);
layerId = "EE3858F4-A475-4EBA-A8F4-31CE9F38567C";
shapes = (
{
closed = 1;
nodes = (
(63,0,l),
(351,623,l),
(323,625,l),
(361,0,l),
(547,0,l),
(473,700,l),
(286,700,l),
(-38,0,l)
);
},
{
closed = 1;
nodes = (
(408,163,l),
(390,264,l),
(117,264,l),
(82,163,l)
);
}
);
userData = {
com.hugojourdan.ColorFlow = {
"0" = 0;
"1" = 0;
"10" = 0;
"11" = 0;
"2" = 0;
"3" = 0;
"4" = 0;
"5" = 0;
"6" = 0;
"7" = 0;
"8" = 0;
"9" = 0;
};
};
width = 593;
}
);
metricLeft = "=V";
metricRight = "=|";
note = A;
unicode = 65;
},
{
glyphname = AE;
layers = (
{
layerId = m01;
shapes = (
{
closed = 1;
nodes = (
(89,0,l),
(459,684,l),
(425,700,l),
(45,0,l)
);
},
{
closed = 1;
nodes = (
(442,201,l),
(442,233,l),
(180,233,l),
(180,201,l)
);
},
{
closed = 1;
nodes = (
(806,0,l),
(806,32,l),
(449,32,l),
(473,8,l),
(473,692,l),
(449,668,l),
(793,668,l),
(793,700,l),
(425,700,l),
(425,0,l)
);
},
{
closed = 1;
nodes = (
(773,348,l),
(773,378,l),
(449,378,l),
(449,348,l)
);
}
);
userData = {
com.hugojourdan.ColorFlow = {
"0" = 0;
"1" = 0;
"10" = 0;
"11" = 0;
"2" = 0;
"3" = 0;
"4" = 0;
"5" = 0;
"6" = 0;
"7" = 0;
"8" = 0;
"9" = 0;
};
};
width = 853;
},
{
layerId = "BF6BA5B2-0556-42F4-A103-614BEBF16A1A";
shapes = (
{
closed = 1;
nodes = (
(101,0,l),
(456,660,l),
(408,700,l),
(32,0,l)
);
},
{
closed = 1;
nodes = (
(457,192,l),
(457,240,l),
(194,240,l),
(194,192,l)
);
},
{
closed = 1;
nodes = (
(821,0,l),
(821,52,l),
(466,52,l),
(505,13,l),
(505,687,l),
(466,648,l),
(809,648,l),
(809,700,l),
(408,700,l),
(408,0,l)
);
},
{
closed = 1;
nodes = (
(788,339,l),
(788,387,l),
(456,387,l),
(456,339,l)
);
}
);
userData = {
com.hugojourdan.ColorFlow = {
"0" = 0;
"1" = 0;
"10" = 0;
"11" = 0;
"2" = 0;
"3" = 0;
"4" = 0;
"5" = 0;
"6" = 0;
"7" = 0;
"8" = 0;
"9" = 0;
};
};
width = 861;
},
{
layerId = "FF73925E-1E34-445B-881D-5A7CAAA8E8BE";
shapes = (
{
closed = 1;
nodes = (
(115,0,l),
(450,643,l),
(381,700,l),
(11,0,l)
);
},
{
closed = 1;
nodes = (
(470,173,l),
(470,253,l),
(172,253,l),
(172,173,l)
);
},
{
closed = 1;
nodes = (
(832,0,l),
(832,90,l),
(514,90,l),
(559,45,l),
(559,655,l),
(514,610,l),
(822,610,l),
(822,700,l),
(381,700,l),
(381,0,l)
);
},
{
closed = 1;
nodes = (
(799,323,l),
(799,403,l),
(470,403,l),
(470,323,l)
);
}
);
userData = {
com.hugojourdan.ColorFlow = {
"0" = 0;
"1" = 0;
"10" = 0;
"11" = 0;
"2" = 0;
"3" = 0;
"4" = 0;
"5" = 0;
"6" = 0;
"7" = 0;
"8" = 0;
"9" = 0;
};
};
width = 857;
},
{
guides = (
{
pos = (300,641);
}
);
layerId = m004;
shapes = (
{
closed = 1;
nodes = (
(87,0,l),
(446,700,l),
(398,700,l),
(36,0,l)
);
},
{
closed = 1;
nodes = (
(434,197,l),
(434,237,l),
(172,237,l),
(172,197,l)
);
},
{
closed = 1;
nodes = (
(797,0,l),
(797,42,l),
(446,42,l),
(464,24,l),
(464,676,l),
(446,658,l),
(787,658,l),
(787,700,l),
(416,700,l),
(416,0,l)
);
},
{
closed = 1;
nodes = (
(764,342,l),
(764,384,l),
(440,384,l),
(440,342,l)
);
}
);
userData = {
com.hugojourdan.ColorFlow = {
"0" = 0;
"1" = 0;
"10" = 0;
"11" = 0;
"2" = 0;
"3" = 0;
"4" = 0;
"5" = 0;
"6" = 0;
"7" = 0;
"8" = 0;
"9" = 0;
};
};
width = 844;
},
{
guides = (
{
pos = (310,597);
}
);
layerId = m005;
shapes = (
{
closed = 1;
nodes = (
(136,0,l),
(455,700,l),
(355,700,l),
(32,0,l)
);
},
{
closed = 1;
nodes = (
(457,177,l),
(457,254,l),
(194,254,l),
(194,177,l)
);
},
{
closed = 1;
nodes = (
(821,0,l),
(821,78,l),
(481,78,l),
(511,48,l),
(511,652,l),
(481,622,l),
(809,622,l),
(809,700,l),
(413,700,l),
(413,0,l)
);
},
{
closed = 1;
nodes = (
(786,326,l),
(786,400,l),
(461,400,l),
(461,326,l)
);
}
);
userData = {
com.hugojourdan.ColorFlow = {
"0" = 0;
"1" = 0;
"10" = 0;
"11" = 0;
"2" = 0;
"3" = 0;
"4" = 0;
"5" = 0;
"6" = 0;
"7" = 0;
"8" = 0;
"9" = 0;
};
};
width = 861;
},
{
guides = (
{
pos = (315,522);
}
);
layerId = m006;
shapes = (
{
closed = 1;
nodes = (
(195,0,l),
(450,700,l),
(281,700,l),
(11,0,l)
);
},
{
closed = 1;
nodes = (
(474,145,l),
(474,275,l),
(176,275,l),
(176,145,l)
);
},
{
closed = 1;
nodes = (
(836,0,l),
(836,137,l),
(516,137,l),
(563,90,l),
(563,610,l),
(516,563,l),
(826,563,l),
(826,700,l),
(385,700,l),
(385,0,l)
);
},
{
closed = 1;
nodes = (
(803,298,l),
(803,428,l),
(474,428,l),
(474,298,l)
);
}
);
userData = {
com.hugojourdan.ColorFlow = {
"0" = 0;
"1" = 0;
"10" = 0;
"11" = 0;
"2" = 0;
"3" = 0;
"4" = 0;
"5" = 0;
"6" = 0;
"7" = 0;
"8" = 0;
"9" = 0;
};
};
width = 861;
},
{
guides = (
{
pos = (356,639);
}
);
layerId = "4E5694F4-F64E-4331-B998-78BE273203C7";
shapes = (
{
closed = 1;
nodes = (
(50,0,l),
(524,700,l),
(472,700,l),
(-4,0,l)
);
},
{
closed = 1;
nodes = (
(440,197,l),
(447,237,l),
(180,237,l),
(173,197,l)
);
},
{
closed = 1;
nodes = (
(757,0,l),
(764,42,l),
(417,42,l),
(429,30,l),
(537,676,l),
(519,658,l),
(854,658,l),
(861,700,l),
(493,700,l),
(376,0,l)
);
},
{
closed = 1;
nodes = (
(781,342,l),
(788,384,l),
(467,384,l),
(461,342,l)
);
}
);
userData = {
com.hugojourdan.ColorFlow = {
"0" = 0;
"1" = 0;
"10" = 0;
"11" = 0;
"2" = 0;
"3" = 0;
"4" = 0;
"5" = 0;
"6" = 0;
"7" = 0;
"8" = 0;
"9" = 0;
};
};
width = 844;
},
{
guides = (
{
pos = (376,593);
}
);
layerId = "DF4E5521-40BA-460F-874A-364F4D14AAD8";
shapes = (
{
closed = 1;
nodes = (
(100,0,l),
(538,700,l),
(431,700,l),
(-9,0,l)
);
},
{
closed = 1;
nodes = (
(458,177,l),
(471,254,l),
(196,254,l),
(183,177,l)
);
},
{
closed = 1;
nodes = (
(780,0,l),
(793,78,l),
(453,78,l),
(478,48,l),
(579,652,l),
(544,622,l),
(871,622,l),
(884,700,l),
(489,700,l),
(372,0,l)
);
},
{
closed = 1;
nodes = (
(798,326,l),
(812,400,l),
(487,400,l),
(475,326,l)
);
}
);
userData = {
com.hugojourdan.ColorFlow = {
"0" = 0;
"1" = 0;
"10" = 0;
"11" = 0;
"2" = 0;
"3" = 0;
"4" = 0;
"5" = 0;
"6" = 0;
"7" = 0;
"8" = 0;
"9" = 0;
};
};
width = 861;
},
{
guides = (
{
angle = 80.5;
pos = (11,251);
},
{
pos = (362,516);
}
);
layerId = "C6DE9ED7-34B3-46A1-8A00-A72C4A5E93A3";
shapes = (
{
closed = 1;
nodes = (
(160,0,l),
(526,700,l),
(352,700,l),
(-31,0,l)
);
},
{
closed = 1;
nodes = (
(459,145,l),
(480,275,l),
(185,275,l),
(164,145,l)
);
},
{
closed = 1;
nodes = (
(795,0,l),
(818,137,l),
(500,137,l),
(537,90,l),
(624,610,l),
(571,563,l),
(879,563,l),
(902,700,l),
(461,700,l),
(344,0,l)
);
},
{
closed = 1;
nodes = (
(812,298,l),
(834,428,l),
(505,428,l),
(483,298,l)
);
}
);
userData = {
com.hugojourdan.ColorFlow = {
"0" = 0;
"1" = 0;
"10" = 0;
"11" = 0;
"2" = 0;
"3" = 0;
"4" = 0;
"5" = 0;
"6" = 0;
"7" = 0;
"8" = 0;
"9" = 0;
};
};
width = 862;
},
{
layerId = "D2741A44-CB8E-4434-9CC9-735A9A127F4C";
shapes = (
{
closed = 1;
nodes = (
(40,0,l),
(519,684,l),
(481,700,l),
(-7,0,l)
);
},
{
closed = 1;
nodes = (
(434,201,l),
(440,233,l),
(174,233,l),
(167,201,l)
);
},
{
closed = 1;
nodes = (
(754,0,l),
(761,32,l),
(408,32,l),
(426,14,l),
(528,692,l),
(504,668,l),
(842,668,l),
(849,700,l),
(484,700,l),
(373,0,l)
);
},
{
closed = 1;
nodes = (
(775,348,l),
(782,378,l),
(461,378,l),
(455,348,l)
);
}
);
userData = {
com.hugojourdan.ColorFlow = {
"0" = 0;
"1" = 0;
"10" = 0;
"11" = 0;
"2" = 0;
"3" = 0;
"4" = 0;
"5" = 0;
"6" = 0;
"7" = 0;
"8" = 0;
"9" = 0;
};
};
width = 843;
},
{
layerId = "0B63B416-D10E-4459-8DAA-360BF3D1BFD2";
shapes = (
{
closed = 1;
nodes = (
(52,0,l),
(524,674,l),
(473,700,l),
(-17,0,l)
);
},
{
closed = 1;
nodes = (
(447,189,l),
(454,241,l),
(164,241,l),
(157,189,l)
);
},
{
closed = 1;
nodes = (
(763,0,l),
(771,56,l),
(443,56,l),
(463,35,l),
(571,671,l),
(544,644,l),
(858,644,l),
(866,700,l),
(476,700,l),
(359,0,l)
);
},
{
closed = 1;
nodes = (
(787,338,l),
(795,388,l),
(476,388,l),
(470,338,l)
);
}
);
userData = {
com.hugojourdan.ColorFlow = {
"0" = 0;
"1" = 0;
"10" = 0;
"11" = 0;
"2" = 0;
"3" = 0;
"4" = 0;
"5" = 0;
"6" = 0;
"7" = 0;
"8" = 0;
"9" = 0;
};
};
width = 844;
},
{
layerId = "EE3858F4-A475-4EBA-A8F4-31CE9F38567C";
shapes = (
{
closed = 1;
nodes = (
(65,0,l),
(517,657,l),
(445,700,l),
(-38,0,l)
);
},
{
closed = 1;
nodes = (
(459,170,l),
(467,254,l),
(141,254,l),
(135,170,l)
);
},
{
closed = 1;
nodes = (
(772,0,l),
(781,94,l),
(491,94,l),
(515,66,l),
(624,639,l),
(591,606,l),
(870,606,l),
(878,700,l),
(448,700,l),
(331,0,l)
);
},
{
closed = 1;
nodes = (
(796,322,l),
(805,404,l),
(488,404,l),
(483,322,l)
);
}
);
userData = {
com.hugojourdan.ColorFlow = {
"0" = 0;
"1" = 0;
"10" = 0;
"11" = 0;
"2" = 0;
"3" = 0;
"4" = 0;
"5" = 0;
"6" = 0;
"7" = 0;
"8" = 0;
"9" = 0;
};
};
width = 839;
}
);
metricLeft = "=A";
metricRight = "=E";
unicode = 198;
},
{
glyphname = B;
layers = (
{
layerId = m01;
shapes = (
{
closed = 1;
nodes = (
(306,0,ls),
(450,0,o),
(531,69,o),
(531,192,cs),
(531,306,o),
(461,372,o),
(335,376,c),
(341,367,l),
(438,377,o),
(493,436,o),
(493,532,cs),
(493,640,o),
(413,700,o),
(270,700,cs),
(102,700,l),
(102,0,l)
);
},
{
closed = 1;
nodes = (
(150,692,l),
(126,668,l),
(275,668,ls),
(383,668,o),
(444,617,o),
(444,526,cs),
(444,435,o),
(383,384,o),
(275,384,cs),
(126,384,l),
(126,352,l),
(292,352,ls),
(415,352,o),
(483,295,o),
(483,192,cs),
(483,89,o),
(415,32,o),
(292,32,cs),
(126,32,l),
(150,8,l)
);
}
);
userData = {
com.hugojourdan.ColorFlow = {
"0" = 0;
"1" = 0;
"10" = 0;
"11" = 0;
"2" = 0;
"3" = 0;
"4" = 0;
"5" = 0;
"6" = 0;
"7" = 0;
"8" = 0;
"9" = 0;
};
};
width = 601;
},
{
layerId = "FF73925E-1E34-445B-881D-5A7CAAA8E8BE";
shapes = (
{
closed = 1;
nodes = (
(292,0,ls),
(488,0,o),
(586,70,o),
(586,209,cs),
(586,331,o),
(520,391,o),
(344,391,c),
(350,376,l),
(499,376,o),
(560,429,o),
(560,522,cs),
(560,646,o),
(475,700,o),
(282,700,cs),
(54,700,l),
(54,0,l)
);
},
{
closed = 1;
nodes = (
(232,655,l),
(187,610,l),
(264,610,ls),
(339,610,o),
(377,578,o),
(377,514,cs),
(377,450,o),
(339,417,o),
(264,417,cs),
(142,417,l),
(142,331,l),
(267,331,ls),
(356,331,o),
(400,291,o),
(400,210,cs),
(400,129,o),
(356,90,o),
(267,90,cs),
(187,90,l),
(232,45,l)
);
}
);
userData = {
com.hugojourdan.ColorFlow = {
"0" = 0;
"1" = 0;
"10" = 0;
"11" = 0;
"2" = 0;
"3" = 0;
"4" = 0;
"5" = 0;
"6" = 0;
"7" = 0;
"8" = 0;
"9" = 0;
};
};
width = 626;
},
{
layerId = "BF6BA5B2-0556-42F4-A103-614BEBF16A1A";
shapes = (
{
closed = 1;
nodes = (
(318,0,ls),
(481,0,o),
(566,68,o),
(566,197,cs),
(566,308,o),
(503,367,o),
(377,376,c),
(377,365,l),
(478,379,o),
(533,440,o),
(533,539,cs),
(533,653,o),
(462,700,o),
(292,700,cs),
(88,700,l),
(88,0,l)
);
},
{
closed = 1;
nodes = (
(185,692,l),
(146,653,l),
(272,653,ls),
(388,653,o),
(432,619,o),
(432,530,cs),
(432,438,o),
(384,391,o),
(289,391,cs),
(137,391,l),
(137,345,l),
(290,345,ls),
(405,345,o),
(461,294,o),
(461,190,cs),
(461,91,o),
(410,47,o),
(296,47,cs),
(146,47,l),
(185,8,l)
);
}
);
userData = {
com.hugojourdan.ColorFlow = {
"0" = 0;
"1" = 0;
"10" = 0;
"11" = 0;
"2" = 0;
"3" = 0;
"4" = 0;
"5" = 0;
"6" = 0;
"7" = 0;
"8" = 0;
"9" = 0;
};
};
width = 619;
},
{
layerId = m004;
shapes = (
{
closed = 1;
nodes = (
(306,0,ls),
(450,0,o),
(531,69,o),
(531,192,cs),
(531,307,o),
(461,373,o),
(335,378,c),
(341,369,l),
(438,378,o),
(493,437,o),
(493,532,cs),
(493,640,o),
(413,700,o),
(270,700,cs),
(102,700,l),
(102,0,l)
);
},
{
closed = 1;
nodes = (
(150,682,l),
(126,658,l),
(275,658,ls),
(382,658,o),
(442,610,o),
(442,524,cs),
(442,438,o),
(382,390,o),
(275,390,cs),
(126,390,l),
(126,350,l),
(292,350,ls),
(412,350,o),
(479,295,o),
(479,195,cs),
(479,96,o),
(412,42,o),
(292,42,cs),
(126,42,l),
(150,18,l)
);
}
);
userData = {
com.hugojourdan.ColorFlow = {
"0" = 0;
"1" = 0;
"10" = 0;
"11" = 0;
"2" = 0;
"3" = 0;
"4" = 0;
"5" = 0;
"6" = 0;
"7" = 0;
"8" = 0;
"9" = 0;
};
};
width = 601;
},
{
layerId = m005;
shapes = (
{
closed = 1;
nodes = (
(321,0,ls),
(482,0,o),
(569,69,o),
(569,197,cs),
(569,311,o),
(502,375,o),
(374,383,c),
(381,366,l),
(478,371,o),
(536,430,o),
(536,522,cs),
(536,641,o),
(457,700,o),
(295,700,cs),
(88,700,l),
(88,0,l)
);
},
{
closed = 1;
nodes = (
(186,662,l),
(147,623,l),
(297,623,ls),
(384,623,o),
(433,583,o),
(433,512,cs),
(433,442,o),
(384,402,o),
(297,402,cs),
(138,402,l),
(138,330,l),
(315,330,ls),
(410,330,o),
(464,284,o),
(464,202,cs),
(464,122,o),
(410,77,o),
(315,77,cs),
(147,77,l),
(186,38,l)
);
}
);
userData = {
com.hugojourdan.ColorFlow = {
"0" = 0;
"1" = 0;
"10" = 0;
"11" = 0;
"2" = 0;
"3" = 0;
"4" = 0;
"5" = 0;
"6" = 0;
"7" = 0;
"8" = 0;
"9" = 0;
};
};
width = 622;
},
{
layerId = m006;
shapes = (
{
closed = 1;
nodes = (
(292,0,ls),
(489,0,o),
(586,71,o),
(586,209,cs),
(586,322,o),
(520,377,o),
(384,377,c),
(390,362,l),
(504,362,o),
(560,427,o),
(560,526,cs),
(560,647,o),
(478,700,o),
(282,700,cs),
(54,700,l),
(54,0,l)
);
},
{
closed = 1;
nodes = (
(232,609,l),
(187,564,l),
(296,564,ls),
(357,564,o),
(377,528,o),
(377,492,cs),
(377,457,o),
(357,421,o),
(296,421,cs),
(144,421,l),
(144,291,l),
(317,291,ls),
(360,291,o),
(400,266,o),
(400,212,cs),
(400,160,o),
(360,136,o),
(317,136,cs),
(187,136,l),
(232,91,l)
);
}
);
userData = {
com.hugojourdan.ColorFlow = {
"0" = 0;
"1" = 0;
"10" = 0;
"11" = 0;
"2" = 0;
"3" = 0;
"4" = 0;
"5" = 0;
"6" = 0;
"7" = 0;
"8" = 0;
"9" = 0;
};
};
width = 622;
},
{
background = {
shapes = (
{
closed = 0;
nodes = (
(299,0,ls),
(422,0,o),
(501,61,o),
(520,174,cs),
(522,188,o),
(523,201,o),
(523,214,cs),
(523,304,o),
(465,361,o),
(356,373,c),
(360,364,l),
(458,366,o),
(523,420,o),
(538,516,cs),
(540,527,o),
(541,538,o),
(541,548,cs),
(541,635,o),
(472,689,o),
(345,700,c)
);
},
{
closed = 0;
nodes = (
(344,658,l),
(439,650,o),
(491,609,o),
(491,539,cs),
(491,531,o),
(490,522,o),
(489,513,cs),
(475,433,o),
(417,390,o),
(326,390,cs)
);
},
{
closed = 0;
nodes = (
(309,350,l),
(418,341,o),
(476,292,o),
(476,212,cs),
(476,202,o),
(475,192,o),
(473,181,cs),
(457,90,o),
(393,42,o),
(289,42,cs)
);
}
);
};
guides = (
{
angle = 80.5;
pos = (102,239);
},
{
angle = 80.5;
pos = (531,239);
},
{
angle = 80.5;
pos = (150,239);
},
{
angle = 80.5;
pos = (479,239);
},
{
angle = 80.5;
pos = (493,239);
},
{
angle = 80.5;
pos = (442,239);
}
);
layerId = "4E5694F4-F64E-4331-B998-78BE273203C7";
shapes = (
{
closed = 1;
nodes = (
(289,0,ls),
(429,0,o),
(522,82,o),
(522,206,cs),
(522,301,o),
(470,356,o),
(356,380,c),
(360,365,l),
(465,366,o),
(541,441,o),
(541,542,cs),
(541,645,o),
(459,700,o),
(321,700,cs),
(179,700,l),
(62,0,l)
);
},
{
closed = 1;
nodes = (
(223,676,l),
(205,658,l),
(326,658,ls),
(434,658,o),
(490,618,o),
(490,541,cs),
(490,447,o),
(428,390,o),
(326,390,cs),
(152,390,l),
(145,350,l),
(294,350,ls),
(409,350,o),
(471,299,o),
(471,206,cs),
(471,108,o),
(397,42,o),
(289,42,cs),
(103,42,l),
(115,30,l)
);
}
);
userData = {
com.hugojourdan.ColorFlow = {
"0" = 0;
"1" = 0;
"10" = 0;
"11" = 0;
"2" = 0;
"3" = 0;
"4" = 0;
"5" = 0;
"6" = 0;
"7" = 0;
"8" = 0;
"9" = 0;
};
};
width = 601;
},
{
background = {
shapes = (
{
closed = 0;
nodes = (
(361,623,l),
(436,616,o),
(478,582,o),
(478,526,cs),
(478,452,o),
(427,402,o),
(344,402,cs)
);
},
{
closed = 0;
nodes = (
(329,330,l),
(412,323,o),
(457,283,o),
(457,219,cs),
(457,130,o),
(401,77,o),
(311,77,cs)
);
},
{
closed = 0;
nodes = (
(322,0,ls),
(494,0,o),
(561,105,o),
(561,221,cs),
(561,309,o),
(505,363,o),
(395,379,c),
(401,362,l),
(529,362,o),
(582,443,o),
(582,540,cs),
(582,635,o),
(512,688,o),
(371,700,c)
);
}
);
};
layerId = "DF4E5521-40BA-460F-874A-364F4D14AAD8";
shapes = (
{
closed = 1;
nodes = (
(314,0,ls),
(464,0,o),
(560,84,o),
(560,215,cs),
(560,310,o),
(508,361,o),
(394,379,c),
(400,362,l),
(511,362,o),
(581,429,o),
(581,535,cs),
(581,644,o),
(502,700,o),
(350,700,cs),
(164,700,l),
(47,0,l)
);
},
{
closed = 1;
nodes = (
(254,652,l),
(219,623,l),
(340,623,ls),
(430,623,o),
(477,588,o),
(477,522,cs),
(477,451,o),
(422,402,o),
(343,402,cs),
(182,402,l),
(170,330,l),
(316,330,ls),
(407,330,o),
(456,289,o),
(456,213,cs),
(456,130,o),
(397,77,o),
(306,77,cs),
(127,77,l),
(153,48,l)
);
}
);
userData = {
com.hugojourdan.ColorFlow = {
"0" = 0;
"1" = 0;
"10" = 0;
"11" = 0;
"2" = 0;
"3" = 0;
"4" = 0;
"5" = 0;
"6" = 0;
"7" = 0;
"8" = 0;
"9" = 0;
};
};
width = 622;
},
{
background = {
shapes = (
{
closed = 0;
nodes = (
(310,0,ls),
(468,0,o),
(555,64,o),
(576,188,cs),
(578,202,o),
(580,215,o),
(580,228,cs),
(580,314,o),
(522,362,o),
(404,372,c),
(407,356,l),
(414,355,o),
(422,355,o),
(429,355,cs),
(529,355,o),
(588,414,o),
(603,506,cs),
(605,519,o),
(606,531,o),
(606,542,cs),
(606,637,o),
(529,686,o),
(356,700,c)
);
},
{
closed = 0;
nodes = (
(323,291,l),
(361,288,o),
(394,266,o),
(394,223,cs),
(394,162,o),
(351,136,o),
(307,136,cs)
);
},
{
closed = 0;
nodes = (
(348,563,l),
(400,559,o),
(417,531,o),
(417,501,cs),
(417,463,o),
(396,421,o),
(336,421,cs)
);
}
);
};
guides = (
{
angle = 80.5;
pos = (54,251);
},
{
angle = 80.5;
pos = (232,251);
},
{
angle = 80.5;
pos = (586,251);
},
{
angle = 80.5;
pos = (560,251);
},
{
angle = 80.5;
pos = (400,251);
},
{
angle = 80.5;
pos = (378,251);
}
);
layerId = "C6DE9ED7-34B3-46A1-8A00-A72C4A5E93A3";
shapes = (
{
closed = 1;
nodes = (
(310,0,ls),
(472,0,o),
(578,87,o),
(578,220,cs),
(578,315,o),
(527,360,o),
(404,372,c),
(407,356,l),
(513,339,o),
(605,422,o),
(605,536,cs),
(605,644,o),
(520,700,o),
(356,700,cs),
(129,700,l),
(12,0,l)
);
},
{
closed = 1;
nodes = (
(292,610,l),
(239,563,l),
(343,563,ls),
(390,563,o),
(417,540,o),
(417,498,cs),
(417,452,o),
(384,421,o),
(336,421,cs),
(172,421,l),
(149,291,l),
(317,291,ls),
(364,291,o),
(393,263,o),
(393,217,cs),
(393,169,o),
(357,136,o),
(306,136,cs),
(168,137,l),
(205,90,l)
);
}
);
userData = {
com.hugojourdan.ColorFlow = {
"0" = 0;
"1" = 0;
"10" = 0;
"11" = 0;
"2" = 0;
"3" = 0;
"4" = 0;
"5" = 0;
"6" = 0;
"7" = 0;
"8" = 0;
"9" = 0;
};
};
width = 622;
},
{
layerId = "D2741A44-CB8E-4434-9CC9-735A9A127F4C";
shapes = (
{
closed = 1;
nodes = (
(294,0,ls),
(434,0,o),
(526,81,o),
(526,205,cs),
(526,300,o),
(474,356,o),
(359,378,c),
(363,363,l),
(468,366,o),
(542,440,o),
(542,541,cs),
(542,645,o),
(461,700,o),
(322,700,cs),
(179,700,l),
(68,0,l)
);
},
{
closed = 1;
nodes = (
(223,686,l),
(205,668,l),
(327,668,ls),
(436,668,o),
(493,625,o),
(493,542,cs),
(493,444,o),
(431,384,o),
(327,384,cs),
(155,384,l),
(148,352,l),
(298,352,ls),
(416,352,o),
(479,299,o),
(479,202,cs),
(479,100,o),
(405,32,o),
(293,32,cs),
(108,32,l),
(121,19,l)
);
}
);
userData = {
com.hugojourdan.ColorFlow = {
"0" = 0;
"1" = 0;
"10" = 0;
"11" = 0;
"2" = 0;
"3" = 0;
"4" = 0;
"5" = 0;
"6" = 0;
"7" = 0;
"8" = 0;
"9" = 0;
};
};
width = 605;
},
{
layerId = "0B63B416-D10E-4459-8DAA-360BF3D1BFD2";
shapes = (
{
closed = 1;
nodes = (
(278,0,ls),
(439,0,o),
(540,83,o),
(540,213,cs),
(540,315,o),
(487,371,o),
(339,388,c),
(347,370,l),
(484,363,o),
(563,433,o),
(563,530,cs),
(563,640,o),
(472,700,o),
(320,700,cs),
(164,700,l),
(47,0,l)
);
},
{
closed = 1;
nodes = (
(259,661,l),
(238,640,l),
(328,640,ls),
(409,640,o),
(463,598,o),
(463,532,cs),
(463,452,o),
(406,401,o),
(315,401,cs),
(162,401,l),
(155,343,l),
(286,343,ls),
(387,343,o),
(442,297,o),
(442,216,cs),
(442,126,o),
(372,60,o),
(276,60,cs),
(136,60,l),
(152,44,l)
);
}
);
userData = {
com.hugojourdan.ColorFlow = {
"0" = 0;
"1" = 0;
"10" = 0;
"11" = 0;
"2" = 0;
"3" = 0;
"4" = 0;
"5" = 0;
"6" = 0;
"7" = 0;
"8" = 0;
"9" = 0;
};
};
width = 612;
},
{
layerId = "EE3858F4-A475-4EBA-A8F4-31CE9F38567C";
shapes = (
{
closed = 1;
nodes = (
(251,0,ls),
(445,0,o),
(559,85,o),
(559,224,cs),
(559,338,o),
(504,394,o),
(305,403,c),
(319,381,l),
(504,360,o),
(589,422,o),
(589,513,cs),
(589,633,o),
(483,700,o),
(309,700,cs),
(129,700,l),
(12,0,l)
);
},
{
closed = 1;
nodes = (
(305,624,l),
(277,597,l),
(320,597,ls),
(359,597,o),
(408,557,o),
(408,516,cs),
(408,464,o),
(359,427,o),
(289,427,cs),
(166,427,l),
(159,329,l),
(262,329,ls),
(337,329,o),
(380,294,o),
(380,236,cs),
(380,164,o),
(318,103,o),
(246,103,cs),
(176,103,l),
(199,81,l)
);
}
);
userData = {
com.hugojourdan.ColorFlow = {
"0" = 0;
"1" = 0;
"10" = 0;
"11" = 0;
"2" = 0;
"3" = 0;
"4" = 0;
"5" = 0;
"6" = 0;
"7" = 0;
"8" = 0;
"9" = 0;
};
};
width = 618;
}
);
metricLeft = "=H";
note = B;
unicode = 66;
},
{
glyphname = C;
layers = (
{
anchors = (
{
name = bottom;
pos = (349,0);
}
);
layerId = m01;
shapes = (
{
closed = 1;
nodes = (
(422,-10,o),
(495,16,o),
(542,69,c),
(503,98,l),
(476,52,o),
(413,22,o),
(348,22,cs),
(208,22,o),
(128,140,o),
(128,350,cs),
(128,560,o),
(208,678,o),
(348,678,cs),
(413,678,o),
(476,648,o),
(503,602,c),
(536,637,l),
(489,686,o),
(419,710,o),
(350,710,cs),
(174,710,o),
(75,581,o),
(75,350,cs),
(75,119,o),
(174,-10,o),
(350,-10,cs)
);
}
);
userData = {
com.hugojourdan.ColorFlow = {
"0" = 0;
"1" = 0;
"10" = 0;
"11" = 0;
"2" = 0;
"3" = 0;
"4" = 0;
"5" = 0;
"6" = 0;
"7" = 0;
"8" = 0;
"9" = 0;
};
};
width = 604;
},
{
anchors = (
{
name = bottom;
pos = (354,0);
}
);
layerId = "FF73925E-1E34-445B-881D-5A7CAAA8E8BE";
shapes = (
{
closed = 1;
nodes = (
(468,-10,o),
(567,40,o),
(617,121,c),
(488,211,l),
(464,155,o),
(422,80,o),
(363,80,cs),
(283,80,o),
(233,178,o),
(233,355,cs),
(233,523,o),
(279,616,o),
(351,616,cs),
(407,616,o),
(440,556,o),
(460,495,c),
(605,546,l),
(563,657,o),
(460,710,o),
(352,710,cs),
(159,710,o),
(45,581,o),
(45,350,cs),
(45,119,o),
(159,-10,o),
(351,-10,cs)
);
}
);
userData = {
com.hugojourdan.ColorFlow = {
"0" = 0;
"1" = 0;
"10" = 0;
"11" = 0;
"2" = 0;
"3" = 0;
"4" = 0;
"5" = 0;
"6" = 0;
"7" = 0;
"8" = 0;
"9" = 0;
};
};
width = 654;
},
{
anchors = (
{
name = bottom;
pos = (344,0);
}
);
layerId = "BF6BA5B2-0556-42F4-A103-614BEBF16A1A";
shapes = (
{
closed = 1;
nodes = (
(453,-10,o),
(549,43,o),
(580,114,c),
(498,145,l),
(477,86,o),
(416,42,o),
(346,42,cs),
(220,42,o),
(170,185,o),
(170,350,cs),
(170,515,o),
(220,658,o),
(345,658,cs),
(416,658,o),
(477,614,o),
(498,555,c),
(578,591,l),
(546,658,o),
(452,710,o),
(343,710,cs),
(144,710,o),
(65,530,o),
(65,350,cs),
(65,169,o),
(145,-10,o),
(343,-10,cs)
);
}
);
userData = {
com.hugojourdan.ColorFlow = {
"0" = 0;
"1" = 0;
"10" = 0;
"11" = 0;
"2" = 0;
"3" = 0;
"4" = 0;
"5" = 0;
"6" = 0;
"7" = 0;
"8" = 0;
"9" = 0;
};
};
width = 634;
},
{
anchors = (
{
name = bottom;
pos = (348,0);
}
);
background = {
shapes = (
{
pos = (5,0);
ref = O;
}
);
};
layerId = m004;
shapes = (
{
closed = 1;
nodes = (
(421,-10,o),
(495,16,o),
(542,69,c),
(509,104,l),
(481,68,o),
(415,34,o),
(347,34,cs),
(208,34,o),
(128,148,o),
(128,350,cs),
(128,552,o),
(208,666,o),
(347,666,cs),
(412,666,o),
(476,635,o),
(503,602,c),
(536,637,l),
(489,686,o),
(418,710,o),
(349,710,cs),
(174,710,o),
(75,581,o),
(75,350,cs),
(75,119,o),
(174,-10,o),
(349,-10,cs)
);
}
);
userData = {
com.hugojourdan.ColorFlow = {
"0" = 0;
"1" = 0;
"10" = 0;
"11" = 0;
"2" = 0;
"3" = 0;
"4" = 0;
"5" = 0;
"6" = 0;
"7" = 0;
"8" = 0;
"9" = 0;
};
};
width = 604;
},
{
anchors = (
{
name = bottom;
pos = (362,0);
}
);
background = {
shapes = (
{
pos = (4,0);
ref = O;
}
);
};
guides = (
{
angle = 90;
pos = (584,121);
},
{
angle = 90;
pos = (566,121);
}
);
layerId = m005;
shapes = (
{
closed = 1;
nodes = (
(450,-10,o),
(532,24,o),
(580,78,c),
(525,143,l),
(486,103,o),
(419,74,o),
(365,74,cs),
(241,74,o),
(171,175,o),
(171,350,cs),
(171,526,o),
(240,626,o),
(362,626,cs),
(418,626,o),
(486,597,o),
(526,557,c),
(577,626,l),
(527,678,o),
(445,710,o),
(360,710,cs),
(172,710,o),
(65,579,o),
(65,350,cs),
(65,120,o),
(173,-10,o),
(364,-10,cs)
);
}
);
userData = {
com.hugojourdan.ColorFlow = {
"0" = 0;
"1" = 0;
"10" = 0;
"11" = 0;
"2" = 0;
"3" = 0;
"4" = 0;
"5" = 0;
"6" = 0;
"7" = 0;
"8" = 0;
"9" = 0;
};
};
width = 634;
},
{
anchors = (
{
name = bottom;
pos = (371,0);
}
);
guides = (
{
angle = 122.969;
pos = (617,95);
},
{
angle = 90;
pos = (617,121);
},
{
angle = 90;
pos = (484,121);
},
{
pos = (448,43);
},
{
angle = 90;
pos = (599,121);
}
);
layerId = m006;
shapes = (
{
closed = 1;
nodes = (
(482,-10,o),
(571,39,o),
(617,92,c),
(537,215,l),
(498,178,o),
(437,138,o),
(382,138,cs),
(305,138,o),
(233,191,o),
(233,350,cs),
(233,509,o),
(301,562,o),
(373,562,cs),
(437,562,o),
(486,522,o),
(525,485,c),
(605,608,l),
(560,661,o),
(472,710,o),
(366,710,cs),
(165,710,o),
(45,581,o),
(45,350,cs),
(45,119,o),
(168,-10,o),
(375,-10,cs)
);
}
);
userData = {
com.hugojourdan.ColorFlow = {
"0" = 0;
"1" = 0;
"10" = 0;
"11" = 0;
"2" = 0;
"3" = 0;
"4" = 0;
"5" = 0;
"6" = 0;
"7" = 0;
"8" = 0;
"9" = 0;
};
};
width = 654;
},
{
anchors = (
{
name = bottom;
pos = (283,0);
}
);
background = {
shapes = (
{
pos = (8,0);
ref = O;
}
);
};
guides = (
{
angle = 80.5;
pos = (75,239);
},
{
angle = 80.5;
pos = (128,239);
},
{
angle = 80.5;
pos = (542,239);
}
);
layerId = "4E5694F4-F64E-4331-B998-78BE273203C7";
shapes = (
{
closed = 1;
nodes = (
(397,-10,o),
(462,11,o),
(511,54,c),
(484,91,l),
(454,60,o),
(393,33,o),
(332,33,cs),
(209,33,o),
(141,119,o),
(141,267,cs),
(141,413,o),
(202,667,o),
(399,667,cs),
(471,667,o),
(538,626,o),
(561,588,c),
(599,620,l),
(556,682,o),
(475,710,o),
(399,710,cs),
(155,710,o),
(88,422,o),
(88,264,cs),
(88,94,o),
(174,-10,o),
(333,-10,cs)
);
}
);
userData = {
com.hugojourdan.ColorFlow = {
"0" = 0;
"1" = 0;
"10" = 0;
"11" = 0;
"2" = 0;
"3" = 0;
"4" = 0;
"5" = 0;
"6" = 0;
"7" = 0;
"8" = 0;
"9" = 0;
};
};
width = 604;
},
{
anchors = (
{
name = bottom;
pos = (300,0);
}
);
background = {
shapes = (
{
pos = (-9,0);
ref = O;
}
);
};
guides = (
{
angle = 80.5;
pos = (65,245);
},
{
angle = 80.5;
pos = (170,245);
},
{
angle = 80.5;
pos = (580,245);
}
);
layerId = "DF4E5521-40BA-460F-874A-364F4D14AAD8";
shapes = (
{
closed = 1;
nodes = (
(427,-10,o),
(497,16,o),
(548,61,c),
(504,130,l),
(461,96,o),
(402,74,o),
(346,74,cs),
(239,74,o),
(183,157,o),
(183,280,cs),
(183,395,o),
(232,626,o),
(406,626,cs),
(474,626,o),
(536,591,o),
(573,542,c),
(635,607,l),
(582,680,o),
(487,710,o),
(404,710,cs),
(176,710,o),
(79,477,o),
(79,273,cs),
(79,73,o),
(199,-10,o),
(346,-10,cs)
);
}
);
userData = {
com.hugojourdan.ColorFlow = {
"0" = 0;
"1" = 0;
"10" = 0;
"11" = 0;
"2" = 0;
"3" = 0;
"4" = 0;
"5" = 0;
"6" = 0;
"7" = 0;
"8" = 0;
"9" = 0;
};
};
width = 633;
},
{
anchors = (
{
name = bottom;
pos = (359,0);
}
);
guides = (
{
angle = 80.5;
pos = (45,251);
},
{
angle = 80.5;
pos = (233,251);
},
{
angle = 80.5;
pos = (617,251);
}
);
layerId = "C6DE9ED7-34B3-46A1-8A00-A72C4A5E93A3";
shapes = (
{
closed = 1;
nodes = (
(458,-10,o),
(537,28,o),
(587,71,c),
(527,200,l),
(487,169,o),
(426,138,o),
(371,138,cs),
(307,138,o),
(245,180,o),
(245,294,cs),
(245,384,o),
(284,562,o),
(415,562,cs),
(482,562,o),
(526,515,o),
(561,472,c),
(660,587,l),
(609,668,o),
(509,710,o),
(406,710,cs),
(171,710,o),
(59,499,o),
(59,286,cs),
(59,81,o),
(197,-10,o),
(359,-10,cs)
);
}
);
userData = {
com.hugojourdan.ColorFlow = {
"0" = 0;
"1" = 0;
"10" = 0;
"11" = 0;
"2" = 0;
"3" = 0;
"4" = 0;
"5" = 0;
"6" = 0;
"7" = 0;
"8" = 0;
"9" = 0;
};
};
width = 654;
},
{
anchors = (
{
name = bottom;
pos = (289,0);
}
);
layerId = "D2741A44-CB8E-4434-9CC9-735A9A127F4C";
shapes = (
{
closed = 1;
nodes = (
(401,-10,o),
(466,11,o),
(515,55,c),
(481,86,l),
(452,44,o),
(394,21,o),
(336,21,cs),
(211,21,o),
(142,113,o),
(142,271,cs),
(142,428,o),
(204,679,o),
(399,679,cs),
(471,679,o),
(537,639,o),
(560,589,c),
(598,621,l),
(554,682,o),
(475,710,o),
(399,710,cs),
(158,710,o),
(89,430,o),
(89,269,cs),
(89,95,o),
(176,-10,o),
(337,-10,cs)
);
}
);
userData = {
com.hugojourdan.ColorFlow = {
"0" = 0;
"1" = 0;
"10" = 0;
"11" = 0;
"2" = 0;
"3" = 0;
"4" = 0;
"5" = 0;
"6" = 0;
"7" = 0;
"8" = 0;
"9" = 0;
};
};
width = 608;
},
{
anchors = (
{
name = bottom;
pos = (293,0);
}
);
layerId = "0B63B416-D10E-4459-8DAA-360BF3D1BFD2";
shapes = (
{
closed = 1;
nodes = (
(408,-10,o),
(473,7,o),
(536,56,c),
(473,127,l),
(442,88,o),
(397,45,o),
(347,45,cs),
(252,45,o),
(182,104,o),
(182,270,cs),
(182,429,o),
(242,652,o),
(406,652,cs),
(468,652,o),
(516,602,o),
(538,551,c),
(617,593,l),
(566,683,o),
(482,710,o),
(408,710,cs),
(169,710,o),
(77,458,o),
(77,265,cs),
(77,58,o),
(187,-10,o),
(342,-10,cs)
);
}
);
userData = {
com.hugojourdan.ColorFlow = {
"0" = 0;
"1" = 0;
"10" = 0;
"11" = 0;
"2" = 0;
"3" = 0;
"4" = 0;
"5" = 0;
"6" = 0;
"7" = 0;
"8" = 0;
"9" = 0;
};
};
width = 622;
},
{
anchors = (
{
name = bottom;
pos = (304,0);
}
);
layerId = "EE3858F4-A475-4EBA-A8F4-31CE9F38567C";
shapes = (
{
closed = 1;
nodes = (
(423,-10,o),
(491,4,o),
(573,62,c),
(463,193,l),
(429,157,o),
(403,83,o),
(364,83,cs),
(314,83,o),
(245,97,o),
(245,275,cs),
(245,438,o),
(301,610,o),
(412,610,cs),
(459,610,o),
(480,544,o),
(500,491,c),
(644,548,l),
(583,682,o),
(491,710,o),
(417,710,cs),
(184,710,o),
(57,508,o),
(57,266,cs),
(57,9,o),
(201,-10,o),
(350,-10,cs)
);
}
);
userData = {
com.hugojourdan.ColorFlow = {
"0" = 0;
"1" = 0;
"10" = 0;
"11" = 0;
"2" = 0;
"3" = 0;
"4" = 0;
"5" = 0;
"6" = 0;
"7" = 0;
"8" = 0;
"9" = 0;
};
};
width = 642;
}
);
metricLeft = "=O";
metricRight = "=|*0.83";
note = C;
unicode = 67;
userData = {
KernOnName = C;
};
},
{
glyphname = D;
layers = (
{
layerId = m01;
shapes = (
{
closed = 1;
nodes = (
(272,0,ls),
(475,0,o),
(580,119,o),
(580,350,cs),
(580,581,o),
(476,700,o),
(276,700,cs),
(102,700,l),
(102,0,l)
);
},
{
closed = 1;
nodes = (
(150,692,l),
(126,668,l),
(267,668,ls),
(440,668,o),
(527,562,o),
(527,350,cs),
(527,139,o),
(442,32,o),
(275,32,cs),
(126,32,l),
(150,8,l)
);
}
);
userData = {
com.hugojourdan.ColorFlow = {
"0" = 0;
"1" = 0;
"10" = 0;
"11" = 0;
"2" = 0;
"3" = 0;
"4" = 0;
"5" = 0;
"6" = 0;
"7" = 0;
"8" = 0;
"9" = 0;
};
};
width = 655;
},
{
layerId = "FF73925E-1E34-445B-881D-5A7CAAA8E8BE";
shapes = (
{
closed = 1;
nodes = (
(270,0,ls),
(506,0,o),
(623,116,o),
(623,350,cs),
(623,584,o),
(506,700,o),
(270,700,cs),
(54,700,l),
(54,0,l)
);
},
{
closed = 1;
nodes = (
(232,655,l),
(187,610,l),
(285,610,ls),
(385,610,o),
(435,524,o),
(435,350,cs),
(435,176,o),
(385,89,o),
(285,89,cs),
(187,89,l),
(232,44,l)
);
}
);
userData = {
com.hugojourdan.ColorFlow = {
"0" = 0;
"1" = 0;
"10" = 0;
"11" = 0;
"2" = 0;
"3" = 0;
"4" = 0;
"5" = 0;
"6" = 0;
"7" = 0;
"8" = 0;
"9" = 0;
};
};
width = 668;
},
{
layerId = "BF6BA5B2-0556-42F4-A103-614BEBF16A1A";
shapes = (
{
closed = 1;
nodes = (
(274,0,ls),
(469,0,o),
(603,142,o),
(603,350,cs),
(603,558,o),
(469,700,o),
(274,700,cs),
(88,700,l),
(88,0,l)
);
},
{
closed = 1;
nodes = (
(185,691,l),
(146,652,l),
(276,652,ls),
(409,652,o),
(498,531,o),
(498,350,cs),
(498,169,o),
(409,48,o),
(276,48,cs),
(146,48,l),
(185,9,l)
);
}
);
userData = {
com.hugojourdan.ColorFlow = {
"0" = 0;
"1" = 0;
"10" = 0;
"11" = 0;
"2" = 0;
"3" = 0;
"4" = 0;
"5" = 0;
"6" = 0;
"7" = 0;
"8" = 0;
"9" = 0;
};
};
width = 668;
},
{
layerId = m004;
shapes = (
{
closed = 1;
nodes = (
(305,0,ls),
(484,0,o),
(580,129,o),
(580,350,cs),
(580,571,o),
(484,700,o),
(309,700,cs),
(102,700,l),
(102,0,l)
);
},
{
closed = 1;
nodes = (
(150,676,l),
(132,658,l),
(300,658,ls),
(450,658,o),
(527,544,o),
(527,350,cs),
(527,156,o),
(450,42,o),
(308,42,cs),
(132,42,l),
(150,24,l)
);
}
);
userData = {
com.hugojourdan.ColorFlow = {
"0" = 0;
"1" = 0;
"10" = 0;
"11" = 0;
"2" = 0;
"3" = 0;
"4" = 0;
"5" = 0;
"6" = 0;
"7" = 0;
"8" = 0;
"9" = 0;
};
};
width = 655;
},
{
layerId = m005;
shapes = (
{
closed = 1;
nodes = (
(296,0,ls),
(499,0,o),
(603,124,o),
(603,350,cs),
(603,576,o),
(499,700,o),
(299,700,cs),
(88,700,l),
(88,0,l)
);
},
{
closed = 1;
nodes = (
(186,652,l),
(156,622,l),
(299,622,ls),
(431,622,o),
(498,524,o),
(498,350,cs),
(498,176,o),
(431,78,o),
(304,78,cs),
(156,78,l),
(186,48,l)
);
}
);
userData = {
com.hugojourdan.ColorFlow = {
"0" = 0;
"1" = 0;
"10" = 0;
"11" = 0;
"2" = 0;
"3" = 0;
"4" = 0;
"5" = 0;
"6" = 0;
"7" = 0;
"8" = 0;
"9" = 0;
};
};
width = 668;
},
{
layerId = m006;
shapes = (
{
closed = 1;
nodes = (
(270,0,ls),
(506,0,o),
(623,116,o),
(623,350,cs),
(623,584,o),
(506,700,o),
(270,700,cs),
(54,700,l),
(54,0,l)
);
},
{
closed = 1;
nodes = (
(232,610,l),
(186,564,l),
(285,564,ls),
(385,564,o),
(435,493,o),
(435,350,cs),
(435,207,o),
(385,136,o),
(285,136,cs),
(184,136,l),
(232,90,l)
);
}
);
userData = {
com.hugojourdan.ColorFlow = {
"0" = 0;
"1" = 0;
"10" = 0;
"11" = 0;
"2" = 0;
"3" = 0;
"4" = 0;
"5" = 0;
"6" = 0;
"7" = 0;
"8" = 0;
"9" = 0;
};
};
width = 668;
},
{
background = {
shapes = (
{
closed = 0;
nodes = (
(603,429,ls),
(603,592,o),
(531,687,o),
(386,700,c)
);
},
{
closed = 0;
nodes = (
(371,658,l),
(491,648,o),
(551,568,o),
(551,431,cs)
);
}
);
};
guides = (
{
angle = 80.5;
pos = (102,239);
},
{
angle = 80.5;
pos = (580,239);
},
{
angle = 80.5;
pos = (527,239);
},
{
angle = 80.5;
pos = (150,239);
},
{
angle = 80.5;
pos = (131,239);
}
);
layerId = "4E5694F4-F64E-4331-B998-78BE273203C7";
shapes = (
{
closed = 1;
nodes = (
(286,0,ls),
(531,0,o),
(603,264,o),
(603,429,cs),
(603,592,o),
(532,700,o),
(326,700,cs),
(179,700,l),
(62,0,l)
);
},
{
closed = 1;
nodes = (
(223,676,l),
(201,658,l),
(323,658,ls),
(492,658,o),
(551,568,o),
(551,431,cs),
(551,294,o),
(493,42,o),
(285,42,cs),
(98,42,l),
(114,24,l)
);
}
);
userData = {
com.hugojourdan.ColorFlow = {
"0" = 0;
"1" = 0;
"10" = 0;
"11" = 0;
"2" = 0;
"3" = 0;
"4" = 0;
"5" = 0;
"6" = 0;
"7" = 0;
"8" = 0;
"9" = 0;
};
};
width = 655;
},
{
guides = (
{
angle = 80.5069;
pos = (173,350);
},
{
angle = 80.5;
pos = (88,245);
},
{
angle = 80.5;
pos = (603,245);
},
{
angle = 80.5;
pos = (498,245);
}
);
layerId = "DF4E5521-40BA-460F-874A-364F4D14AAD8";
shapes = (
{
closed = 1;
nodes = (
(293,0,ls),
(535,0,o),
(624,232,o),
(624,417,cs),
(624,591,o),
(545,700,o),
(339,700,cs),
(164,700,l),
(47,0,l)
);
},
{
closed = 1;
nodes = (
(254,652,l),
(219,622,l),
(342,622,ls),
(468,622,o),
(521,544,o),
(521,424,cs),
(521,308,o),
(475,78,o),
(295,78,cs),
(128,78,l),
(153,48,l)
);
}
);
userData = {
com.hugojourdan.ColorFlow = {
"0" = 0;
"1" = 0;
"10" = 0;
"11" = 0;
"2" = 0;
"3" = 0;
"4" = 0;
"5" = 0;
"6" = 0;
"7" = 0;
"8" = 0;
"9" = 0;
};
};
width = 668;
},
{
background = {
shapes = (
{
closed = 0;
nodes = (
(336,563,l),
(416,556,o),
(456,510,o),
(456,413,cs)
);
},
{
closed = 0;
nodes = (
(641,403,ls),
(641,590,o),
(552,680,o),
(343,700,c)
);
}
);
};
guides = (
{
angle = 80.5;
pos = (54,251);
},
{
angle = 80.5;
pos = (623,251);
},
{
angle = 80.5;
pos = (232,251);
},
{
angle = 80.5;
pos = (435,251);
}
);
layerId = "C6DE9ED7-34B3-46A1-8A00-A72C4A5E93A3";
shapes = (
{
closed = 1;
nodes = (
(272,0,ls),
(496,0,o),
(640,156,o),
(640,398,cs),
(640,609,o),
(534,700,o),
(289,700,cs),
(129,700,l),
(12,0,l)
);
},
{
closed = 1;
nodes = (
(292,610,l),
(239,563,l),
(322,563,ls),
(414,563,o),
(455,514,o),
(455,405,cs),
(455,253,o),
(375,137,o),
(271,137,cs),
(168,137,l),
(205,90,l)
);
}
);
userData = {
com.hugojourdan.ColorFlow = {
"0" = 0;
"1" = 0;
"10" = 0;
"11" = 0;
"2" = 0;
"3" = 0;
"4" = 0;
"5" = 0;
"6" = 0;
"7" = 0;
"8" = 0;
"9" = 0;
};
};
width = 668;
},
{
layerId = "D2741A44-CB8E-4434-9CC9-735A9A127F4C";
shapes = (
{
closed = 1;
nodes = (
(258,0,ls),
(524,0,o),
(606,247,o),
(606,425,cs),
(606,601,o),
(525,700,o),
(296,700,cs),
(179,700,l),
(68,0,l)
);
},
{
closed = 1;
nodes = (
(223,692,l),
(195,668,l),
(293,668,ls),
(484,668,o),
(554,585,o),
(554,427,cs),
(554,270,o),
(487,32,o),
(257,32,cs),
(98,32,l),
(120,8,l)
);
}
);
userData = {
com.hugojourdan.ColorFlow = {
"0" = 0;
"1" = 0;
"10" = 0;
"11" = 0;
"2" = 0;
"3" = 0;
"4" = 0;
"5" = 0;
"6" = 0;
"7" = 0;
"8" = 0;
"9" = 0;
};
};
width = 658;
},
{
layerId = "0B63B416-D10E-4459-8DAA-360BF3D1BFD2";
shapes = (
{
closed = 1;
nodes = (
(257,0,ls),
(555,0,o),
(622,236,o),
(622,429,cs),
(622,621,o),
(556,700,o),
(297,700,cs),
(164,700,l),
(47,0,l)
);
},
{
closed = 1;
nodes = (
(259,668,l),
(228,641,l),
(303,641,ls),
(475,641,o),
(518,583,o),
(518,431,cs),
(518,280,o),
(478,58,o),
(265,58,cs),
(125,58,l),
(151,31,l)
);
}
);
userData = {
com.hugojourdan.ColorFlow = {
"0" = 0;
"1" = 0;
"10" = 0;
"11" = 0;
"2" = 0;
"3" = 0;
"4" = 0;
"5" = 0;
"6" = 0;
"7" = 0;
"8" = 0;
"9" = 0;
};
};
width = 667;
},
{
layerId = "EE3858F4-A475-4EBA-A8F4-31CE9F38567C";
shapes = (
{
closed = 1;
nodes = (
(252,0,ls),
(592,0,o),
(641,211,o),
(641,429,cs),
(641,647,o),
(593,700,o),
(292,700,cs),
(129,700,l),
(12,0,l)
);
},
{
closed = 1;
nodes = (
(305,632,l),
(268,599,l),
(311,599,ls),
(450,599,o),
(454,576,o),
(454,431,cs),
(454,287,o),
(453,98,o),
(273,98,cs),
(164,98,l),
(198,66,l)
);
}
);
userData = {
com.hugojourdan.ColorFlow = {
"0" = 0;
"1" = 0;
"10" = 0;
"11" = 0;
"2" = 0;
"3" = 0;
"4" = 0;
"5" = 0;
"6" = 0;
"7" = 0;
"8" = 0;
"9" = 0;
};
};
width = 670;
}
);
metricLeft = "=H";
metricRight = "=O";
note = D;
unicode = 68;
},
{
glyphname = E;
layers = (
{
anchors = (
{
name = top;
pos = (286,700);
}
);
layerId = m01;
shapes = (
{
closed = 1;
nodes = (
(483,0,l),
(483,32,l),
(126,32,l),
(150,8,l),
(150,692,l),
(126,668,l),
(470,668,l),
(470,700,l),
(102,700,l),
(102,0,l)
);
},
{
closed = 1;
nodes = (
(450,348,l),
(450,378,l),
(126,378,l),
(126,348,l)
);
}
);
userData = {
com.hugojourdan.ColorFlow = {
"0" = 0;
"1" = 0;
"10" = 0;
"11" = 0;
"2" = 0;
"3" = 0;
"4" = 0;
"5" = 0;
"6" = 0;
"7" = 0;
"8" = 0;
"9" = 0;
};
};
width = 530;
},
{
anchors = (
{
name = top;
pos = (270,700);
}
);
layerId = "FF73925E-1E34-445B-881D-5A7CAAA8E8BE";
shapes = (
{
closed = 1;
nodes = (
(495,0,l),
(495,90,l),
(187,90,l),
(232,45,l),
(232,655,l),
(187,610,l),
(485,610,l),
(485,700,l),
(54,700,l),
(54,0,l)
);
},
{
closed = 1;
nodes = (
(462,323,l),
(462,403,l),
(143,403,l),
(143,323,l)
);
}
);
userData = {
com.hugojourdan.ColorFlow = {
"0" = 0;
"1" = 0;
"10" = 0;
"11" = 0;
"2" = 0;
"3" = 0;
"4" = 0;
"5" = 0;
"6" = 0;
"7" = 0;
"8" = 0;
"9" = 0;
};
};
width = 520;
},
{
anchors = (
{
name = top;
pos = (284,700);
}
);
layerId = "BF6BA5B2-0556-42F4-A103-614BEBF16A1A";
shapes = (
{
closed = 1;
nodes = (
(491,0,l),
(491,52,l),
(146,52,l),
(185,13,l),
(185,687,l),
(146,648,l),
(479,648,l),
(479,700,l),
(88,700,l),
(88,0,l)
);
},
{
closed = 1;
nodes = (
(458,339,l),
(458,387,l),
(136,387,l),
(136,339,l)
);
}
);
userData = {
com.hugojourdan.ColorFlow = {
"0" = 0;
"1" = 0;
"10" = 0;
"11" = 0;
"2" = 0;
"3" = 0;
"4" = 0;
"5" = 0;
"6" = 0;
"7" = 0;
"8" = 0;
"9" = 0;
};
};
width = 531;
},
{
anchors = (
{
name = top;
pos = (286,700);
}
);
layerId = m004;
shapes = (
{
closed = 1;
nodes = (
(483,0,l),
(483,42,l),
(132,42,l),
(150,24,l),
(150,676,l),
(132,658,l),
(473,658,l),
(473,700,l),
(102,700,l),
(102,0,l)
);
},
{
closed = 1;
nodes = (
(450,342,l),
(450,384,l),
(126,384,l),
(126,342,l)
);
}
);
userData = {
com.hugojourdan.ColorFlow = {
"0" = 0;
"1" = 0;
"10" = 0;
"11" = 0;
"2" = 0;
"3" = 0;
"4" = 0;
"5" = 0;
"6" = 0;
"7" = 0;
"8" = 0;
"9" = 0;
};
};
width = 530;
},
{
anchors = (
{
name = top;
pos = (286,700);
}
);
layerId = m005;
shapes = (
{
closed = 1;
nodes = (
(496,0,l),
(496,78,l),
(156,78,l),
(186,48,l),
(186,652,l),
(156,622,l),
(484,622,l),
(484,700,l),
(88,700,l),
(88,0,l)
);
},
{
closed = 1;
nodes = (
(461,326,l),
(461,400,l),
(136,400,l),
(136,326,l)
);
}
);
userData = {
com.hugojourdan.ColorFlow = {
"0" = 0;
"1" = 0;
"10" = 0;
"11" = 0;
"2" = 0;
"3" = 0;
"4" = 0;
"5" = 0;
"6" = 0;
"7" = 0;
"8" = 0;
"9" = 0;
};
};
width = 536;
},
{
anchors = (
{
name = top;
pos = (270,700);
}
);
background = {
anchors = (
{
name = top;
pos = (270,700);
}
);
};
layerId = m006;
shapes = (
{
closed = 1;
nodes = (
(505,0,l),
(505,137,l),
(185,137,l),
(232,90,l),
(232,610,l),
(185,563,l),
(495,563,l),
(495,700,l),
(54,700,l),
(54,0,l)
);
},
{
closed = 1;
nodes = (
(472,298,l),
(472,428,l),
(143,428,l),
(143,298,l)
);
}
);
userData = {
com.hugojourdan.ColorFlow = {
"0" = 0;
"1" = 0;
"10" = 0;
"11" = 0;
"2" = 0;
"3" = 0;
"4" = 0;
"5" = 0;
"6" = 0;
"7" = 0;
"8" = 0;
"9" = 0;
};
};
width = 530;
},
{
anchors = (
{
name = top;
pos = (363,700);
}
);
background = {
shapes = (
{
ref = I;
}
);
};
layerId = "4E5694F4-F64E-4331-B998-78BE273203C7";
shapes = (
{
closed = 1;
nodes = (
(443,0,l),
(450,42,l),
(103,42,l),
(115,30,l),
(223,676,l),
(205,658,l),
(540,658,l),
(547,700,l),
(179,700,l),
(62,0,l)
);
},
{
closed = 1;
nodes = (
(467,342,l),
(474,384,l),
(153,384,l),
(147,342,l)
);
}
);
userData = {
com.hugojourdan.ColorFlow = {
"0" = 0;
"1" = 0;
"10" = 0;
"11" = 0;
"2" = 0;
"3" = 0;
"4" = 0;
"5" = 0;
"6" = 0;
"7" = 0;
"8" = 0;
"9" = 0;
};
};
width = 530;
},
{
anchors = (
{
name = top;
pos = (362,700);
}
);
background = {
shapes = (
{
ref = I;
}
);
};
guides = (
{
angle = 80.5069;
pos = (154,350);
}
);
layerId = "DF4E5521-40BA-460F-874A-364F4D14AAD8";
shapes = (
{
closed = 1;
nodes = (
(455,0,l),
(468,78,l),
(128,78,l),
(153,48,l),
(254,652,l),
(219,622,l),
(546,622,l),
(559,700,l),
(164,700,l),
(47,0,l)
);
},
{
closed = 1;
nodes = (
(473,326,l),
(487,400,l),
(162,400,l),
(150,326,l)
);
}
);
userData = {
com.hugojourdan.ColorFlow = {
"0" = 0;
"1" = 0;
"10" = 0;
"11" = 0;
"2" = 0;
"3" = 0;
"4" = 0;
"5" = 0;
"6" = 0;
"7" = 0;
"8" = 0;
"9" = 0;
};
};
width = 536;
},
{
anchors = (
{
name = top;
pos = (345,700);
}
);
background = {
anchors = (
{
name = top;
pos = (258,700);
}
);
};
guides = (
{
angle = 80.5;
pos = (54,251);
},
{
angle = 80.5;
pos = (232,251);
},
{
angle = 80.5;
pos = (505,251);
},
{
angle = 80.5;
pos = (472,251);
}
);
layerId = "C6DE9ED7-34B3-46A1-8A00-A72C4A5E93A3";
shapes = (
{
closed = 1;
nodes = (
(463,0,l),
(486,137,l),
(168,137,l),
(205,90,l),
(292,610,l),
(239,563,l),
(547,563,l),
(570,700,l),
(129,700,l),
(12,0,l)
);
},
{
closed = 1;
nodes = (
(480,298,l),
(502,428,l),
(173,428,l),
(151,298,l)
);
}
);
userData = {
com.hugojourdan.ColorFlow = {
"0" = 0;
"1" = 0;
"10" = 0;
"11" = 0;
"2" = 0;
"3" = 0;
"4" = 0;
"5" = 0;
"6" = 0;
"7" = 0;
"8" = 0;
"9" = 0;
};
};
width = 530;
},
{
anchors = (
{
name = top;
pos = (363,700);
}
);
layerId = "D2741A44-CB8E-4434-9CC9-735A9A127F4C";
shapes = (
{
closed = 1;
nodes = (
(449,0,l),
(456,32,l),
(103,32,l),
(121,14,l),
(223,692,l),
(199,668,l),
(537,668,l),
(544,700,l),
(179,700,l),
(68,0,l)
);
},
{
closed = 1;
nodes = (
(470,348,l),
(477,378,l),
(156,378,l),
(150,348,l)
);
}
);
userData = {
com.hugojourdan.ColorFlow = {
"0" = 0;
"1" = 0;
"10" = 0;
"11" = 0;
"2" = 0;
"3" = 0;
"4" = 0;
"5" = 0;
"6" = 0;
"7" = 0;
"8" = 0;
"9" = 0;
};
};
width = 538;
},
{
anchors = (
{
name = top;
pos = (361,700);
}
);
layerId = "0B63B416-D10E-4459-8DAA-360BF3D1BFD2";
shapes = (
{
closed = 1;
nodes = (
(452,0,l),
(460,56,l),
(131,56,l),
(152,35,l),
(259,671,l),
(232,644,l),
(547,644,l),
(554,700,l),
(164,700,l),
(47,0,l)
);
},
{
closed = 1;
nodes = (
(476,338,l),
(484,388,l),
(165,388,l),
(158,338,l)
);
}
);
userData = {
com.hugojourdan.ColorFlow = {
"0" = 0;
"1" = 0;
"10" = 0;
"11" = 0;
"2" = 0;
"3" = 0;
"4" = 0;
"5" = 0;
"6" = 0;
"7" = 0;
"8" = 0;
"9" = 0;
};
};
width = 533;
},
{
anchors = (
{
name = top;
pos = (346,700);
}
);
layerId = "EE3858F4-A475-4EBA-A8F4-31CE9F38567C";
shapes = (
{
closed = 1;
nodes = (
(455,0,l),
(464,94,l),
(171,94,l),
(199,66,l),
(305,639,l),
(272,606,l),
(552,606,l),
(558,700,l),
(129,700,l),
(12,0,l)
);
},
{
closed = 1;
nodes = (
(479,322,l),
(488,404,l),
(172,404,l),
(164,322,l)
);
}
);
userData = {
com.hugojourdan.ColorFlow = {
"0" = 0;
"1" = 0;
"10" = 0;
"11" = 0;
"2" = 0;
"3" = 0;
"4" = 0;
"5" = 0;
"6" = 0;
"7" = 0;
"8" = 0;
"9" = 0;
};
};
width = 522;
}
);
metricLeft = "=H";
metricRight = "=H*0.46";
note = E;
unicode = 69;
userData = {
KernOnName = E;
};
},
{
glyphname = F;
layers = (
{
layerId = m01;
shapes = (
{
closed = 1;
nodes = (
(150,0,l),
(150,692,l),
(126,668,l),
(483,668,l),
(483,700,l),
(102,700,l),
(102,0,l)
);
},
{
closed = 1;
nodes = (
(446,343,l),
(446,373,l),
(126,373,l),
(126,343,l)
);
}
);
userData = {
com.hugojourdan.ColorFlow = {
"0" = 0;
"1" = 0;
"10" = 0;
"11" = 0;
"2" = 0;
"3" = 0;
"4" = 0;
"5" = 0;
"6" = 0;
"7" = 0;
"8" = 0;
"9" = 0;
};
};
width = 526;
},
{
layerId = "FF73925E-1E34-445B-881D-5A7CAAA8E8BE";
shapes = (
{
closed = 1;
nodes = (
(232,0,l),
(232,655,l),
(187,610,l),
(501,610,l),
(501,700,l),
(54,700,l),
(54,0,l)
);
},
{
closed = 1;
nodes = (
(457,325,l),
(457,405,l),
(143,405,l),
(143,325,l)
);
}
);
userData = {
com.hugojourdan.ColorFlow = {
"0" = 0;
"1" = 0;
"10" = 0;
"11" = 0;
"2" = 0;
"3" = 0;
"4" = 0;
"5" = 0;
"6" = 0;
"7" = 0;
"8" = 0;
"9" = 0;
};
};
width = 524;
},
{
layerId = "BF6BA5B2-0556-42F4-A103-614BEBF16A1A";
shapes = (
{
closed = 1;
nodes = (
(186,0,l),
(186,687,l),
(147,648,l),
(496,648,l),
(496,700,l),
(88,700,l),
(88,0,l)
);
},
{
closed = 1;
nodes = (
(457,337,l),
(457,385,l),
(136,385,l),
(136,337,l)
);
}
);
userData = {
com.hugojourdan.ColorFlow = {
"0" = 0;
"1" = 0;
"10" = 0;
"11" = 0;
"2" = 0;
"3" = 0;
"4" = 0;
"5" = 0;
"6" = 0;
"7" = 0;
"8" = 0;
"9" = 0;
};
};
width = 533;
},
{
layerId = m004;
shapes = (
{
closed = 1;
nodes = (
(150,0,l),
(150,681,l),
(126,657,l),
(483,657,l),
(483,700,l),
(102,700,l),
(102,0,l)
);
},
{
closed = 1;
nodes = (
(446,337,l),
(446,379,l),
(126,379,l),
(126,337,l)
);
}
);
userData = {
com.hugojourdan.ColorFlow = {
"0" = 0;
"1" = 0;
"10" = 0;
"11" = 0;
"2" = 0;
"3" = 0;
"4" = 0;
"5" = 0;
"6" = 0;
"7" = 0;
"8" = 0;
"9" = 0;
};
};
width = 526;
},
{
layerId = m005;
shapes = (
{
closed = 1;
nodes = (
(186,0,l),
(186,652,l),
(156,622,l),
(496,622,l),
(496,700,l),
(88,700,l),
(88,0,l)
);
},
{
closed = 1;
nodes = (
(456,321,l),
(456,398,l),
(136,398,l),
(136,321,l)
);
}
);
userData = {
com.hugojourdan.ColorFlow = {
"0" = 0;
"1" = 0;
"10" = 0;
"11" = 0;
"2" = 0;
"3" = 0;
"4" = 0;
"5" = 0;
"6" = 0;
"7" = 0;
"8" = 0;
"9" = 0;
};
};
width = 533;
},
{
layerId = m006;
shapes = (
{
closed = 1;
nodes = (
(232,0,l),
(232,610,l),
(185,563,l),
(501,563,l),
(501,700,l),
(54,700,l),
(54,0,l)
);
},
{
closed = 1;
nodes = (
(457,297,l),
(457,430,l),
(143,430,l),
(143,297,l)
);
}
);
userData = {
com.hugojourdan.ColorFlow = {
"0" = 0;
"1" = 0;
"10" = 0;
"11" = 0;
"2" = 0;
"3" = 0;
"4" = 0;
"5" = 0;
"6" = 0;
"7" = 0;
"8" = 0;
"9" = 0;
};
};
width = 524;
},
{
layerId = "4E5694F4-F64E-4331-B998-78BE273203C7";
shapes = (
{
closed = 1;
nodes = (
(110,0,l),
(223,676,l),
(205,658,l),
(553,658,l),
(560,700,l),
(179,700,l),
(62,0,l)
);
},
{
closed = 1;
nodes = (
(466,338,l),
(473,380,l),
(151,380,l),
(145,338,l)
);
}
);
userData = {
com.hugojourdan.ColorFlow = {
"0" = 0;
"1" = 0;
"10" = 0;
"11" = 0;
"2" = 0;
"3" = 0;
"4" = 0;
"5" = 0;
"6" = 0;
"7" = 0;
"8" = 0;
"9" = 0;
};
};
width = 526;
},
{
guides = (
{
angle = 80.5069;
pos = (514,350);
},
{
angle = 80.5069;
pos = (474,350);
}
);
layerId = "DF4E5521-40BA-460F-874A-364F4D14AAD8";
shapes = (
{
closed = 1;
nodes = (
(145,0,l),
(254,652,l),
(219,622,l),
(559,622,l),
(572,700,l),
(164,700,l),
(47,0,l)
);
},
{
closed = 1;
nodes = (
(469,321,l),
(482,398,l),
(164,398,l),
(151,321,l)
);
}
);
userData = {
com.hugojourdan.ColorFlow = {
"0" = 0;
"1" = 0;
"10" = 0;
"11" = 0;
"2" = 0;
"3" = 0;
"4" = 0;
"5" = 0;
"6" = 0;
"7" = 0;
"8" = 0;
"9" = 0;
};
};
width = 533;
},
{
guides = (
{
angle = 80.5;
pos = (54,251);
},
{
angle = 80.5;
pos = (232,251);
},
{
angle = 80.5;
pos = (505,251);
},
{
angle = 80.5;
pos = (472,251);
}
);
layerId = "C6DE9ED7-34B3-46A1-8A00-A72C4A5E93A3";
shapes = (
{
closed = 1;
nodes = (
(190,0,l),
(292,610,l),
(239,563,l),
(557,563,l),
(580,700,l),
(129,700,l),
(12,0,l)
);
},
{
closed = 1;
nodes = (
(480,297,l),
(502,430,l),
(173,430,l),
(151,297,l)
);
}
);
userData = {
com.hugojourdan.ColorFlow = {
"0" = 0;
"1" = 0;
"10" = 0;
"11" = 0;
"2" = 0;
"3" = 0;
"4" = 0;
"5" = 0;
"6" = 0;
"7" = 0;
"8" = 0;
"9" = 0;
};
};
width = 528;
},
{
layerId = "D2741A44-CB8E-4434-9CC9-735A9A127F4C";
shapes = (
{
closed = 1;
nodes = (
(116,0,l),
(223,687,l),
(205,669,l),
(553,669,l),
(560,700,l),
(179,700,l),
(68,0,l)
);
},
{
closed = 1;
nodes = (
(469,344,l),
(476,374,l),
(154,374,l),
(148,344,l)
);
}
);
userData = {
com.hugojourdan.ColorFlow = {
"0" = 0;
"1" = 0;
"10" = 0;
"11" = 0;
"2" = 0;
"3" = 0;
"4" = 0;
"5" = 0;
"6" = 0;
"7" = 0;
"8" = 0;
"9" = 0;
};
};
width = 526;
},
{
layerId = "0B63B416-D10E-4459-8DAA-360BF3D1BFD2";
shapes = (
{
closed = 1;
nodes = (
(146,0,l),
(259,666,l),
(238,645,l),
(562,645,l),
(570,700,l),
(164,700,l),
(47,0,l)
);
},
{
closed = 1;
nodes = (
(472,336,l),
(480,387,l),
(162,387,l),
(156,336,l)
);
}
);
userData = {
com.hugojourdan.ColorFlow = {
"0" = 0;
"1" = 0;
"10" = 0;
"11" = 0;
"2" = 0;
"3" = 0;
"4" = 0;
"5" = 0;
"6" = 0;
"7" = 0;
"8" = 0;
"9" = 0;
};
};
width = 532;
},
{
layerId = "EE3858F4-A475-4EBA-A8F4-31CE9F38567C";
shapes = (
{
closed = 1;
nodes = (
(192,0,l),
(305,634,l),
(277,607,l),
(566,607,l),
(574,700,l),
(129,700,l),
(12,0,l)
);
},
{
closed = 1;
nodes = (
(470,323,l),
(479,407,l),
(167,407,l),
(162,323,l)
);
}
);
userData = {
com.hugojourdan.ColorFlow = {
"0" = 0;
"1" = 0;
"10" = 0;
"11" = 0;
"2" = 0;
"3" = 0;
"4" = 0;
"5" = 0;
"6" = 0;
"7" = 0;
"8" = 0;
"9" = 0;
};
};
width = 529;
}
);
metricLeft = "=H";
metricRight = "=H*0.42";
note = F;
unicode = 70;
},
{
glyphname = G;
layers = (
{
layerId = m01;
shapes = (
{
closed = 1;
nodes = (
(456,-10,o),
(533,45,o),
(550,138,c),
(534,138,l),
(534,0,l),
(571,0,l),
(571,344,l),
(356,344,l),
(356,312,l),
(552,307,l),
(523,334,l),
(523,187,ls),
(523,84,o),
(460,22,o),
(353,22,cs),
(209,22,o),
(128,141,o),
(128,350,cs),
(128,558,o),
(209,678,o),
(349,678,cs),
(421,678,o),
(486,648,o),
(515,602,c),
(548,637,l),
(501,684,o),
(430,710,o),
(350,710,cs),
(175,710,o),
(75,579,o),
(75,350,cs),
(75,123,o),
(174,-10,o),
(343,-10,cs)
);
}
);
userData = {
com.hugojourdan.ColorFlow = {
"0" = 0;
"1" = 0;
"10" = 0;
"11" = 0;
"2" = 0;
"3" = 0;
"4" = 0;
"5" = 0;
"6" = 0;
"7" = 0;
"8" = 0;
"9" = 0;
};
};
width = 673;
},
{
background = {
shapes = (
{
pos = (10,0);
ref = O;
}
);
};
layerId = "FF73925E-1E34-445B-881D-5A7CAAA8E8BE";
shapes = (
{
closed = 1;
nodes = (
(454,-10,o),
(527,51,o),
(539,160,c),
(531,160,l),
(531,0,l),
(624,0,l),
(624,365,l),
(321,365,l),
(321,299,l),
(502,298,l),
(457,334,l),
(457,196,ls),
(457,118,o),
(425,80,o),
(369,80,cs),
(282,80,o),
(233,179,o),
(233,355,cs),
(233,522,o),
(278,616,o),
(359,616,cs),
(409,616,o),
(450,571,o),
(474,491,c),
(619,542,l),
(580,650,o),
(489,710,o),
(363,710,cs),
(159,710,o),
(45,580,o),
(45,348,cs),
(45,118,o),
(150,-10,o),
(337,-10,cs)
);
}
);
userData = {
com.hugojourdan.ColorFlow = {
"0" = 0;
"1" = 0;
"10" = 0;
"11" = 0;
"2" = 0;
"3" = 0;
"4" = 0;
"5" = 0;
"6" = 0;
"7" = 0;
"8" = 0;
"9" = 0;
};
};
width = 678;
},
{
layerId = "BF6BA5B2-0556-42F4-A103-614BEBF16A1A";
shapes = (
{
closed = 1;
nodes = (
(457,-10,o),
(527,39,o),
(550,131,c),
(546,131,l),
(546,0,l),
(605,0,l),
(605,352,l),
(340,352,l),
(340,307,l),
(557,301,l),
(512,344,l),
(512,208,ls),
(512,105,o),
(457,42,o),
(368,42,cs),
(239,42,o),
(170,149,o),
(170,347,cs),
(170,541,o),
(239,658,o),
(352,658,cs),
(421,658,o),
(483,616,o),
(505,555,c),
(585,591,l),
(552,661,o),
(456,710,o),
(351,710,cs),
(176,710,o),
(65,570,o),
(65,345,cs),
(65,128,o),
(179,-10,o),
(355,-10,cs)
);
}
);
userData = {
com.hugojourdan.ColorFlow = {
"0" = 0;
"1" = 0;
"10" = 0;
"11" = 0;
"2" = 0;
"3" = 0;
"4" = 0;
"5" = 0;
"6" = 0;
"7" = 0;
"8" = 0;
"9" = 0;
};
};
width = 693;
},
{
layerId = m004;
shapes = (
{
closed = 1;
nodes = (
(456,-10,o),
(533,45,o),
(550,138,c),
(533,138,l),
(533,0,l),
(571,0,l),
(571,348,l),
(356,348,l),
(356,306,l),
(551,306,l),
(523,334,l),
(523,192,ls),
(524,92,o),
(460,32,o),
(353,32,cs),
(209,32,o),
(128,147,o),
(128,350,cs),
(128,552,o),
(209,668,o),
(349,668,cs),
(417,668,o),
(484,641,o),
(515,602,c),
(548,637,l),
(501,684,o),
(430,710,o),
(350,710,cs),
(175,710,o),
(75,579,o),
(75,350,cs),
(75,123,o),
(174,-10,o),
(343,-10,cs)
);
}
);
userData = {
com.hugojourdan.ColorFlow = {
"0" = 0;
"1" = 0;
"10" = 0;
"11" = 0;
"2" = 0;
"3" = 0;
"4" = 0;
"5" = 0;
"6" = 0;
"7" = 0;
"8" = 0;
"9" = 0;
};
};
width = 673;
},
{
layerId = m005;
shapes = (
{
closed = 1;
nodes = (
(461,-10,o),
(544,57,o),
(559,166,c),
(536,166,l),
(536,0,l),
(605,0,l),
(605,371,l),
(352,371,l),
(352,299,l),
(555,299,l),
(511,344,l),
(511,228,ls),
(511,131,o),
(451,75,o),
(364,75,cs),
(249,75,o),
(171,171,o),
(171,350,cs),
(171,535,o),
(252,627,o),
(370,627,cs),
(438,627,o),
(503,594,o),
(537,557,c),
(588,625,l),
(541,674,o),
(461,710,o),
(368,710,cs),
(177,710,o),
(65,580,o),
(65,350,cs),
(65,125,o),
(170,-10,o),
(340,-10,cs)
);
}
);
userData = {
com.hugojourdan.ColorFlow = {
"0" = 0;
"1" = 0;
"10" = 0;
"11" = 0;
"2" = 0;
"3" = 0;
"4" = 0;
"5" = 0;
"6" = 0;
"7" = 0;
"8" = 0;
"9" = 0;
};
};
width = 693;
},
{
background = {
shapes = (
{
pos = (10,0);
ref = C;
}
);
};
layerId = m006;
shapes = (
{
closed = 1;
nodes = (
(459,-10,o),
(536,62,o),
(551,194,c),
(505,210,l),
(505,0,l),
(624,0,l),
(624,412,l),
(336,412,l),
(336,292,l),
(502,292,l),
(457,334,l),
(457,284,ls),
(457,194,o),
(419,138,o),
(358,138,cs),
(283,138,o),
(233,221,o),
(233,348,cs),
(233,481,o),
(287,562,o),
(376,562,cs),
(428,562,o),
(484,535,o),
(537,485,c),
(617,608,l),
(558,674,o),
(469,710,o),
(366,710,cs),
(166,710,o),
(45,574,o),
(45,349,cs),
(45,131,o),
(158,-10,o),
(333,-10,cs)
);
}
);
userData = {
com.hugojourdan.ColorFlow = {
"0" = 0;
"1" = 0;
"10" = 0;
"11" = 0;
"2" = 0;
"3" = 0;
"4" = 0;
"5" = 0;
"6" = 0;
"7" = 0;
"8" = 0;
"9" = 0;
};
};
width = 678;
},
{
guides = (
{
angle = 80.5377;
pos = (560,174);
}
);
layerId = "4E5694F4-F64E-4331-B998-78BE273203C7";
shapes = (
{
closed = 1;
nodes = (
(428,-10,o),
(502,38,o),
(532,120,c),
(514,125,l),
(493,0,l),
(531,0,l),
(589,348,l),
(374,348,l),
(367,306,l),
(579,306,l),
(541,350,l),
(513,179,ls),
(498,87,o),
(434,32,o),
(338,32,cs),
(210,32,o),
(140,116,o),
(140,266,cs),
(140,407,o),
(200,668,o),
(405,668,cs),
(481,668,o),
(546,630,o),
(573,584,c),
(611,616,l),
(569,675,o),
(492,710,o),
(406,710,cs),
(161,710,o),
(88,428,o),
(88,263,cs),
(88,90,o),
(175,-10,o),
(330,-10,cs)
);
}
);
userData = {
com.hugojourdan.ColorFlow = {
"0" = 0;
"1" = 0;
"10" = 0;
"11" = 0;
"2" = 0;
"3" = 0;
"4" = 0;
"5" = 0;
"6" = 0;
"7" = 0;
"8" = 0;
"9" = 0;
};
};
width = 673;
},
{
background = {
shapes = (
{
pos = (11,0);
ref = C;
}
);
};
guides = (
{
angle = 80.5;
pos = (66,245);
},
{
angle = 80.5;
pos = (171,245);
},
{
angle = 80.5;
pos = (606,245);
},
{
angle = 80.5;
pos = (512,245);
},
{
angle = 80.5;
pos = (353,245);
}
);
layerId = "DF4E5521-40BA-460F-874A-364F4D14AAD8";
shapes = (
{
closed = 1;
nodes = (
(434,-10,o),
(515,49,o),
(545,148,c),
(521,149,l),
(496,0,l),
(565,0,l),
(627,371,l),
(374,371,l),
(362,299,l),
(564,299,l),
(526,329,l),
(507,215,ls),
(492,126,o),
(433,75,o),
(348,75,cs),
(247,75,o),
(184,147,o),
(184,283,cs),
(184,406,o),
(238,627,o),
(417,627,cs),
(495,627,o),
(558,585,o),
(587,540,c),
(649,604,l),
(598,677,o),
(503,710,o),
(414,710,cs),
(178,710,o),
(79,482,o),
(79,270,cs),
(79,96,o),
(179,-10,o),
(325,-10,cs)
);
}
);
userData = {
com.hugojourdan.ColorFlow = {
"0" = 0;
"1" = 0;
"10" = 0;
"11" = 0;
"2" = 0;
"3" = 0;
"4" = 0;
"5" = 0;
"6" = 0;
"7" = 0;
"8" = 0;
"9" = 0;
};
};
width = 694;
},
{
background = {
shapes = (
{
pos = (-1,0);
ref = C;
}
);
};
guides = (
{
angle = 80.5;
pos = (45,251);
},
{
angle = 80.5;
pos = (233,251);
},
{
angle = 80.5;
pos = (624,251);
},
{
angle = 80.5;
pos = (617,251);
},
{
angle = 80.5;
pos = (457,251);
},
{
angle = 80.5;
pos = (505,251);
}
);
layerId = "C6DE9ED7-34B3-46A1-8A00-A72C4A5E93A3";
shapes = (
{
closed = 1;
nodes = (
(419,-10,o),
(505,58,o),
(538,179,c),
(496,197,l),
(463,0,l),
(582,0,l),
(651,412,l),
(364,412,l),
(345,292,l),
(509,292,l),
(469,323,l),
(461,275,ls),
(446,187,o),
(406,138,o),
(350,138,cs),
(292,138,o),
(247,193,o),
(247,302,cs),
(247,445,o),
(326,562,o),
(421,562,cs),
(472,562,o),
(527,529,o),
(573,470,c),
(673,586,l),
(624,662,o),
(525,710,o),
(415,710,cs),
(202,710,o),
(59,529,o),
(59,289,cs),
(59,93,o),
(154,-10,o),
(302,-10,cs)
);
}
);
userData = {
com.hugojourdan.ColorFlow = {
"0" = 0;
"1" = 0;
"10" = 0;
"11" = 0;
"2" = 0;
"3" = 0;
"4" = 0;
"5" = 0;
"6" = 0;
"7" = 0;
"8" = 0;
"9" = 0;
};
};
width = 678;
},
{
layerId = "D2741A44-CB8E-4434-9CC9-735A9A127F4C";
shapes = (
{
closed = 1;
nodes = (
(431,-10,o),
(506,38,o),
(535,121,c),
(518,126,l),
(498,0,l),
(535,0,l),
(590,344,l),
(375,344,l),
(368,312,l),
(581,307,l),
(542,349,l),
(516,175,ls),
(500,79,o),
(437,22,o),
(341,22,cs),
(212,22,o),
(141,112,o),
(141,270,cs),
(141,421,o),
(202,678,o),
(404,678,cs),
(484,678,o),
(547,638,o),
(572,585,c),
(610,617,l),
(567,675,o),
(491,710,o),
(405,710,cs),
(164,710,o),
(89,436,o),
(89,268,cs),
(89,92,o),
(177,-10,o),
(333,-10,cs)
);
}
);
userData = {
com.hugojourdan.ColorFlow = {
"0" = 0;
"1" = 0;
"10" = 0;
"11" = 0;
"2" = 0;
"3" = 0;
"4" = 0;
"5" = 0;
"6" = 0;
"7" = 0;
"8" = 0;
"9" = 0;
};
};
width = 677;
},
{
layerId = "0B63B416-D10E-4459-8DAA-360BF3D1BFD2";
shapes = (
{
closed = 1;
nodes = (
(427,-10,o),
(505,46,o),
(527,140,c),
(506,145,l),
(485,0,l),
(544,0,l),
(602,352,l),
(364,352,l),
(357,307,l),
(546,305,l),
(507,343,l),
(479,165,ls),
(463,86,o),
(414,46,o),
(340,46,cs),
(239,46,o),
(181,130,o),
(181,271,cs),
(181,402,o),
(226,651,o),
(411,651,cs),
(479,651,o),
(528,609,o),
(555,544,c),
(634,586,l),
(586,668,o),
(515,710,o),
(416,710,cs),
(152,710,o),
(77,435,o),
(77,266,cs),
(77,83,o),
(157,-10,o),
(320,-10,cs)
);
}
);
userData = {
com.hugojourdan.ColorFlow = {
"0" = 0;
"1" = 0;
"10" = 0;
"11" = 0;
"2" = 0;
"3" = 0;
"4" = 0;
"5" = 0;
"6" = 0;
"7" = 0;
"8" = 0;
"9" = 0;
};
};
width = 673;
},
{
layerId = "EE3858F4-A475-4EBA-A8F4-31CE9F38567C";
shapes = (
{
closed = 1;
nodes = (
(423,-10,o),
(505,58,o),
(516,169,c),
(491,174,l),
(470,0,l),
(563,0,l),
(621,365,l),
(345,365,l),
(338,299,l),
(492,302,l),
(452,334,l),
(423,153,ls),
(409,99,o),
(381,84,o),
(341,84,cs),
(282,84,o),
(244,160,o),
(244,279,cs),
(244,383,o),
(265,609,o),
(417,609,cs),
(466,609,o),
(494,564,o),
(524,480,c),
(668,537,l),
(613,656,o),
(548,710,o),
(428,710,cs),
(135,710,o),
(57,445,o),
(57,269,cs),
(57,73,o),
(127,-10,o),
(302,-10,cs)
);
}
);
userData = {
com.hugojourdan.ColorFlow = {
"0" = 0;
"1" = 0;
"10" = 0;
"11" = 0;
"2" = 0;
"3" = 0;
"4" = 0;
"5" = 0;
"6" = 0;
"7" = 0;
"8" = 0;
"9" = 0;
};
};
width = 674;
}
);
metricLeft = "=O";
metricRight = "=H";
note = G;
unicode = 71;
userData = {
KernOnName = G;
};
},
{
glyphname = H;
layers = (
{
layerId = m01;
metricLeft = "=n*1.34";
shapes = (
{
closed = 1;
nodes = (
(585,0,l),
(585,700,l),
(537,700,l),
(537,0,l)
);
},
{
closed = 1;
nodes = (
(150,0,l),
(150,700,l),
(102,700,l),
(102,0,l)
);
},
{
closed = 1;
nodes = (
(545,340,l),
(545,372,l),
(142,372,l),
(142,340,l)
);
}
);
userData = {
com.hugojourdan.ColorFlow = {
"0" = 0;
"1" = 0;
"10" = 0;
"11" = 0;
"2" = 0;
"3" = 0;
"4" = 0;
"5" = 0;
"6" = 0;
"7" = 0;
"8" = 0;
"9" = 0;
};
};
width = 687;
},
{
layerId = "FF73925E-1E34-445B-881D-5A7CAAA8E8BE";
metricLeft = "=n*1.42";
shapes = (
{
closed = 1;
nodes = (
(628,0,l),
(628,700,l),
(450,700,l),
(450,0,l)
);
},
{
closed = 1;
nodes = (
(232,0,l),
(232,700,l),
(54,700,l),
(54,0,l)
);
},
{
closed = 1;
nodes = (
(466,310,l),
(466,400,l),
(216,400,l),
(216,310,l)
);
}
);
userData = {
com.hugojourdan.ColorFlow = {
"0" = 0;
"1" = 0;
"10" = 0;
"11" = 0;
"2" = 0;
"3" = 0;
"4" = 0;
"5" = 0;
"6" = 0;
"7" = 0;
"8" = 0;
"9" = 0;
};
};
width = 682;
},
{
layerId = "BF6BA5B2-0556-42F4-A103-614BEBF16A1A";
metricLeft = "=n*1.34";
shapes = (
{
closed = 1;
nodes = (
(606,0,l),
(606,700,l),
(508,700,l),
(508,0,l)
);
},
{
closed = 1;
nodes = (
(186,0,l),
(186,700,l),
(88,700,l),
(88,0,l)
);
},
{
closed = 1;
nodes = (
(522,329,l),
(522,381,l),
(172,381,l),
(172,329,l)
);
}
);
userData = {
com.hugojourdan.ColorFlow = {
"0" = 0;
"1" = 0;
"10" = 0;
"11" = 0;
"2" = 0;
"3" = 0;
"4" = 0;
"5" = 0;
"6" = 0;
"7" = 0;
"8" = 0;
"9" = 0;
};
};
width = 694;
},
{
layerId = m004;
metricLeft = "=n*1.19";
shapes = (
{
closed = 1;
nodes = (
(585,0,l),
(585,700,l),
(537,700,l),
(537,0,l)
);
},
{
closed = 1;
nodes = (
(150,0,l),
(150,700,l),
(102,700,l),
(102,0,l)
);
},
{
closed = 1;
nodes = (
(565,334,l),
(565,377,l),
(122,377,l),
(122,334,l)
);
}
);
userData = {
com.hugojourdan.ColorFlow = {
"0" = 0;
"1" = 0;
"10" = 0;
"11" = 0;
"2" = 0;
"3" = 0;
"4" = 0;
"5" = 0;
"6" = 0;
"7" = 0;
"8" = 0;
"9" = 0;
};
};
width = 687;
},
{
layerId = m005;
metricLeft = "=n*1.16";
shapes = (
{
closed = 1;
nodes = (
(606,0,l),
(606,700,l),
(508,700,l),
(508,0,l)
);
},
{
closed = 1;
nodes = (
(186,0,l),
(186,700,l),
(88,700,l),
(88,0,l)
);
},
{
closed = 1;
nodes = (
(519,316,l),
(519,396,l),
(175,396,l),
(175,316,l)
);
}
);
userData = {
com.hugojourdan.ColorFlow = {
"0" = 0;
"1" = 0;
"10" = 0;
"11" = 0;
"2" = 0;
"3" = 0;
"4" = 0;
"5" = 0;
"6" = 0;
"7" = 0;
"8" = 0;
"9" = 0;
};
};
width = 694;
},
{
layerId = m006;
metricLeft = "=n*1.12";
shapes = (
{
closed = 1;
nodes = (
(628,0,l),
(628,700,l),
(450,700,l),
(450,0,l)
);
},
{
closed = 1;
nodes = (
(232,0,l),
(232,700,l),
(54,700,l),
(54,0,l)
);
},
{
closed = 1;
nodes = (
(516,285,l),
(516,425,l),
(166,425,l),
(166,285,l)
);
}
);
userData = {
com.hugojourdan.ColorFlow = {
"0" = 0;
"1" = 0;
"10" = 0;
"11" = 0;
"2" = 0;
"3" = 0;
"4" = 0;
"5" = 0;
"6" = 0;
"7" = 0;
"8" = 0;
"9" = 0;
};
};
width = 682;
},
{
layerId = "4E5694F4-F64E-4331-B998-78BE273203C7";
metricLeft = "=n*1.19";
shapes = (
{
closed = 1;
nodes = (
(545,0,l),
(662,700,l),
(614,700,l),
(497,0,l)
);
},
{
closed = 1;
nodes = (
(110,0,l),
(227,700,l),
(179,700,l),
(62,0,l)
);
},
{
closed = 1;
nodes = (
(578,334,l),
(585,377,l),
(147,377,l),
(139,334,l)
);
}
);
userData = {
com.hugojourdan.ColorFlow = {
"0" = 0;
"1" = 0;
"10" = 0;
"11" = 0;
"2" = 0;
"3" = 0;
"4" = 0;
"5" = 0;
"6" = 0;
"7" = 0;
"8" = 0;
"9" = 0;
};
};
width = 687;
},
{
layerId = "DF4E5521-40BA-460F-874A-364F4D14AAD8";
metricLeft = "=n*1.16";
shapes = (
{
closed = 1;
nodes = (
(565,0,l),
(682,700,l),
(584,700,l),
(467,0,l)
);
},
{
closed = 1;
nodes = (
(145,0,l),
(262,700,l),
(164,700,l),
(47,0,l)
);
},
{
closed = 1;
nodes = (
(530,316,l),
(543,396,l),
(201,396,l),
(188,316,l)
);
}
);
userData = {
com.hugojourdan.ColorFlow = {
"0" = 0;
"1" = 0;
"10" = 0;
"11" = 0;
"2" = 0;
"3" = 0;
"4" = 0;
"5" = 0;
"6" = 0;
"7" = 0;
"8" = 0;
"9" = 0;
};
};
width = 694;
},
{
layerId = "C6DE9ED7-34B3-46A1-8A00-A72C4A5E93A3";
metricLeft = "=n*1.12";
shapes = (
{
closed = 1;
nodes = (
(586,0,l),
(703,700,l),
(525,700,l),
(408,0,l)
);
},
{
closed = 1;
nodes = (
(190,0,l),
(307,700,l),
(129,700,l),
(12,0,l)
);
},
{
closed = 1;
nodes = (
(521,286,l),
(544,425,l),
(206,425,l),
(183,286,l)
);
}
);
userData = {
com.hugojourdan.ColorFlow = {
"0" = 0;
"1" = 0;
"10" = 0;
"11" = 0;
"2" = 0;
"3" = 0;
"4" = 0;
"5" = 0;
"6" = 0;
"7" = 0;
"8" = 0;
"9" = 0;
};
};
width = 682;
},
{
layerId = "D2741A44-CB8E-4434-9CC9-735A9A127F4C";
metricLeft = "=n*1.34";
shapes = (
{
closed = 1;
nodes = (
(545,0,l),
(662,700,l),
(614,700,l),
(497,0,l)
);
},
{
closed = 1;
nodes = (
(110,0,l),
(227,700,l),
(179,700,l),
(62,0,l)
);
},
{
closed = 1;
nodes = (
(562,340,l),
(567,372,l),
(164,372,l),
(159,340,l)
);
}
);
userData = {
com.hugojourdan.ColorFlow = {
"0" = 0;
"1" = 0;
"10" = 0;
"11" = 0;
"2" = 0;
"3" = 0;
"4" = 0;
"5" = 0;
"6" = 0;
"7" = 0;
"8" = 0;
"9" = 0;
};
};
width = 687;
},
{
layerId = "0B63B416-D10E-4459-8DAA-360BF3D1BFD2";
metricLeft = "=n*1.34";
shapes = (
{
closed = 1;
nodes = (
(565,0,l),
(683,700,l),
(585,700,l),
(467,0,l)
);
},
{
closed = 1;
nodes = (
(145,0,l),
(263,700,l),
(165,700,l),
(47,0,l)
);
},
{
closed = 1;
nodes = (
(536,329,l),
(545,381,l),
(195,381,l),
(186,329,l)
);
}
);
userData = {
com.hugojourdan.ColorFlow = {
"0" = 0;
"1" = 0;
"10" = 0;
"11" = 0;
"2" = 0;
"3" = 0;
"4" = 0;
"5" = 0;
"6" = 0;
"7" = 0;
"8" = 0;
"9" = 0;
};
};
width = 695;
},
{
layerId = "EE3858F4-A475-4EBA-A8F4-31CE9F38567C";
metricLeft = "=n*1.42";
shapes = (
{
closed = 1;
nodes = (
(586,0,l),
(704,700,l),
(526,700,l),
(408,0,l)
);
},
{
closed = 1;
nodes = (
(190,0,l),
(308,700,l),
(130,700,l),
(12,0,l)
);
},
{
closed = 1;
nodes = (
(476,310,l),
(491,400,l),
(241,400,l),
(226,310,l)
);
}
);
userData = {
com.hugojourdan.ColorFlow = {
"0" = 0;
"1" = 0;
"10" = 0;
"11" = 0;
"2" = 0;
"3" = 0;
"4" = 0;
"5" = 0;
"6" = 0;
"7" = 0;
"8" = 0;
"9" = 0;
};
};
width = 683;
}
);
metricLeft = "=n+10*1.24";
metricRight = "=|";
note = H;
unicode = 72;
userData = {
KernOnName = H;
};
},
{
glyphname = I;
layers = (
{
anchors = (
{
name = top;
pos = (126,700);
}
);
layerId = m01;
shapes = (
{
closed = 1;
nodes = (
(150,0,l),
(150,700,l),
(102,700,l),
(102,0,l)
);
}
);
userData = {
com.hugojourdan.ColorFlow = {
"0" = 0;
"1" = 0;
"10" = 0;
"11" = 0;
"2" = 0;
"3" = 0;
"4" = 0;
"5" = 0;
"6" = 0;
"7" = 0;
"8" = 0;
"9" = 0;
};
};
width = 252;
},
{
anchors = (
{
name = top;
pos = (143,700);
}
);
layerId = "FF73925E-1E34-445B-881D-5A7CAAA8E8BE";
shapes = (
{
closed = 1;
nodes = (
(232,0,l),
(232,700,l),
(54,700,l),
(54,0,l)
);
}
);
userData = {
com.hugojourdan.ColorFlow = {
"0" = 0;
"1" = 0;
"10" = 0;
"11" = 0;
"2" = 0;
"3" = 0;
"4" = 0;
"5" = 0;
"6" = 0;
"7" = 0;
"8" = 0;
"9" = 0;
};
};
width = 286;
},
{
anchors = (
{
name = top;
pos = (137,700);
}
);
layerId = "BF6BA5B2-0556-42F4-A103-614BEBF16A1A";
shapes = (
{
closed = 1;
nodes = (
(186,0,l),
(186,700,l),
(88,700,l),
(88,0,l)
);
}
);
userData = {
com.hugojourdan.ColorFlow = {
"0" = 0;
"1" = 0;
"10" = 0;
"11" = 0;
"2" = 0;
"3" = 0;
"4" = 0;
"5" = 0;
"6" = 0;
"7" = 0;
"8" = 0;
"9" = 0;
};
};
width = 274;
},
{
anchors = (
{
name = top;
pos = (126,700);
}
);
layerId = m004;
shapes = (
{
closed = 1;
nodes = (
(150,0,l),
(150,700,l),
(102,700,l),
(102,0,l)
);
}
);
userData = {
com.hugojourdan.ColorFlow = {
"0" = 0;
"1" = 0;
"10" = 0;
"11" = 0;
"2" = 0;
"3" = 0;
"4" = 0;
"5" = 0;
"6" = 0;
"7" = 0;
"8" = 0;
"9" = 0;
};
};
width = 252;
},
{
anchors = (
{
name = top;
pos = (137,700);
}
);
layerId = m005;
shapes = (
{
closed = 1;
nodes = (
(186,0,l),
(186,700,l),
(88,700,l),
(88,0,l)
);
}
);
userData = {
com.hugojourdan.ColorFlow = {
"0" = 0;
"1" = 0;
"10" = 0;
"11" = 0;
"2" = 0;
"3" = 0;
"4" = 0;
"5" = 0;
"6" = 0;
"7" = 0;
"8" = 0;
"9" = 0;
};
};
width = 274;
},
{
anchors = (
{
name = top;
pos = (143,700);
}
);
layerId = m006;
shapes = (
{
closed = 1;
nodes = (
(232,0,l),
(232,700,l),
(54,700,l),
(54,0,l)
);
}
);
userData = {
com.hugojourdan.ColorFlow = {
"0" = 0;
"1" = 0;
"10" = 0;
"11" = 0;
"2" = 0;
"3" = 0;
"4" = 0;
"5" = 0;
"6" = 0;
"7" = 0;
"8" = 0;
"9" = 0;
};
};
width = 286;
},
{
anchors = (
{
name = top;
pos = (203,700);
}
);
layerId = "4E5694F4-F64E-4331-B998-78BE273203C7";
shapes = (
{
closed = 1;
nodes = (
(110,0,l),
(227,700,l),
(179,700,l),
(62,0,l)
);
}
);
userData = {
com.hugojourdan.ColorFlow = {
"0" = 0;
"1" = 0;
"10" = 0;
"11" = 0;
"2" = 0;
"3" = 0;
"4" = 0;
"5" = 0;
"6" = 0;
"7" = 0;
"8" = 0;
"9" = 0;
};
};
width = 252;
},
{
anchors = (
{
name = top;
pos = (213,700);
}
);
layerId = "DF4E5521-40BA-460F-874A-364F4D14AAD8";
shapes = (
{
closed = 1;
nodes = (
(145,0,l),
(262,700,l),
(164,700,l),
(47,0,l)
);
}
);
userData = {
com.hugojourdan.ColorFlow = {
"0" = 0;
"1" = 0;
"10" = 0;
"11" = 0;
"2" = 0;
"3" = 0;
"4" = 0;
"5" = 0;
"6" = 0;
"7" = 0;
"8" = 0;
"9" = 0;
};
};
width = 274;
},
{
anchors = (
{
name = top;
pos = (218,700);
}
);
layerId = "C6DE9ED7-34B3-46A1-8A00-A72C4A5E93A3";
shapes = (
{
closed = 1;
nodes = (
(190,0,l),
(307,700,l),
(129,700,l),
(12,0,l)
);
}
);
userData = {
com.hugojourdan.ColorFlow = {
"0" = 0;
"1" = 0;
"10" = 0;
"11" = 0;
"2" = 0;
"3" = 0;
"4" = 0;
"5" = 0;
"6" = 0;
"7" = 0;
"8" = 0;
"9" = 0;
};
};
width = 286;
},
{
anchors = (
{
name = top;
pos = (203,700);
}
);
layerId = "D2741A44-CB8E-4434-9CC9-735A9A127F4C";
shapes = (
{
closed = 1;
nodes = (
(116,0,l),
(227,700,l),
(179,700,l),
(68,0,l)
);
}
);
userData = {
com.hugojourdan.ColorFlow = {
"0" = 0;
"1" = 0;
"10" = 0;
"11" = 0;
"2" = 0;
"3" = 0;
"4" = 0;
"5" = 0;
"6" = 0;
"7" = 0;
"8" = 0;
"9" = 0;
};
};
width = 258;
},
{
anchors = (
{
name = top;
pos = (213,700);
}
);
layerId = "0B63B416-D10E-4459-8DAA-360BF3D1BFD2";
shapes = (
{
closed = 1;
nodes = (
(146,0,l),
(263,700,l),
(164,700,l),
(47,0,l)
);
}
);
userData = {
com.hugojourdan.ColorFlow = {
"0" = 0;
"1" = 0;
"10" = 0;
"11" = 0;
"2" = 0;
"3" = 0;
"4" = 0;
"5" = 0;
"6" = 0;
"7" = 0;
"8" = 0;
"9" = 0;
};
};
width = 275;
},
{
anchors = (
{
name = top;
pos = (217,700);
}
);
layerId = "EE3858F4-A475-4EBA-A8F4-31CE9F38567C";
shapes = (
{
closed = 1;
nodes = (
(192,0,l),
(308,700,l),
(129,700,l),
(12,0,l)
);
}
);
userData = {
com.hugojourdan.ColorFlow = {
"0" = 0;
"1" = 0;
"10" = 0;
"11" = 0;
"2" = 0;
"3" = 0;
"4" = 0;
"5" = 0;
"6" = 0;
"7" = 0;
"8" = 0;
"9" = 0;
};
};
width = 288;
}
);
metricLeft = "=H";
metricRight = "=|";
note = I;
unicode = 73;
userData = {
KernOnName = I;
};
},
{
glyphname = J;
layers = (
{
layerId = m01;
shapes = (
{
closed = 1;
nodes = (
(306,-10,o),
(394,55,o),
(394,177,cs),
(394,700,l),
(346,700,l),
(346,170,ls),
(346,78,o),
(281,24,o),
(208,24,cs),
(155,24,o),
(96,53,o),
(57,118,c),
(28,81,l),
(77,20,o),
(145,-10,o),
(210,-10,cs)
);
}
);
userData = {
com.hugojourdan.ColorFlow = {
"0" = 0;
"1" = 0;
"10" = 0;
"11" = 0;
"2" = 0;
"3" = 0;
"4" = 0;
"5" = 0;
"6" = 0;
"7" = 0;
"8" = 0;
"9" = 0;
};
};
width = 484;
},
{
layerId = "FF73925E-1E34-445B-881D-5A7CAAA8E8BE";
shapes = (
{
closed = 1;
nodes = (
(441,-10,o),
(531,79,o),
(531,239,cs),
(531,700,l),
(356,700,l),
(356,235,ls),
(356,136,o),
(328,80,o),
(278,80,cs),
(230,80,o),
(182,134,o),
(144,211,c),
(15,121,l),
(68,37,o),
(162,-10,o),
(279,-10,cs)
);
}
);
userData = {
com.hugojourdan.ColorFlow = {
"0" = 0;
"1" = 0;
"10" = 0;
"11" = 0;
"2" = 0;
"3" = 0;
"4" = 0;
"5" = 0;
"6" = 0;
"7" = 0;
"8" = 0;
"9" = 0;
};
};
width = 579;
},
{
layerId = "BF6BA5B2-0556-42F4-A103-614BEBF16A1A";
shapes = (
{
closed = 1;
nodes = (
(343,-10,o),
(409,59,o),
(409,183,cs),
(409,700,l),
(312,700,l),
(312,177,ls),
(312,90,o),
(281,41,o),
(225,41,cs),
(167,41,o),
(124,78,o),
(106,145,c),
(24,114,l),
(53,34,o),
(125,-10,o),
(225,-10,cs)
);
}
);
userData = {
com.hugojourdan.ColorFlow = {
"0" = 0;
"1" = 0;
"10" = 0;
"11" = 0;
"2" = 0;
"3" = 0;
"4" = 0;
"5" = 0;
"6" = 0;
"7" = 0;
"8" = 0;
"9" = 0;
};
};
width = 486;
},
{
layerId = m004;
shapes = (
{
closed = 1;
nodes = (
(318,-10,o),
(394,67,o),
(394,177,cs),
(394,700,l),
(346,700,l),
(346,170,ls),
(346,91,o),
(290,34,o),
(212,34,cs),
(157,34,o),
(99,61,o),
(61,104,c),
(28,69,l),
(83,18,o),
(147,-10,o),
(211,-10,cs)
);
}
);
userData = {
com.hugojourdan.ColorFlow = {
"0" = 0;
"1" = 0;
"10" = 0;
"11" = 0;
"2" = 0;
"3" = 0;
"4" = 0;
"5" = 0;
"6" = 0;
"7" = 0;
"8" = 0;
"9" = 0;
};
};
width = 484;
},
{
layerId = m005;
shapes = (
{
closed = 1;
nodes = (
(367,-10,o),
(449,71,o),
(449,202,cs),
(449,700,l),
(351,700,l),
(351,195,ls),
(351,122,o),
(307,74,o),
(238,74,cs),
(186,74,o),
(121,102,o),
(79,143,c),
(24,78,l),
(78,23,o),
(158,-10,o),
(236,-10,cs)
);
}
);
userData = {
com.hugojourdan.ColorFlow = {
"0" = 0;
"1" = 0;
"10" = 0;
"11" = 0;
"2" = 0;
"3" = 0;
"4" = 0;
"5" = 0;
"6" = 0;
"7" = 0;
"8" = 0;
"9" = 0;
};
};
width = 526;
},
{
layerId = m006;
shapes = (
{
closed = 1;
nodes = (
(448,-10,o),
(531,71,o),
(531,234,cs),
(531,700,l),
(353,700,l),
(353,235,ls),
(353,169,o),
(327,138,o),
(270,138,cs),
(214,138,o),
(150,168,o),
(95,221,c),
(15,98,l),
(77,28,o),
(172,-10,o),
(283,-10,cs)
);
}
);
userData = {
com.hugojourdan.ColorFlow = {
"0" = 0;
"1" = 0;
"10" = 0;
"11" = 0;
"2" = 0;
"3" = 0;
"4" = 0;
"5" = 0;
"6" = 0;
"7" = 0;
"8" = 0;
"9" = 0;
};
};
width = 579;
},
{
background = {
shapes = (
{
pos = (244,0);
ref = I;
}
);
};
layerId = "4E5694F4-F64E-4331-B998-78BE273203C7";
shapes = (
{
closed = 1;
nodes = (
(289,-10,o),
(364,57,o),
(381,162,cs),
(471,700,l),
(423,700,l),
(333,162,ls),
(320,85,o),
(262,34,o),
(189,34,cs),
(131,34,o),
(73,67,o),
(41,117,c),
(2,85,l),
(52,24,o),
(119,-10,o),
(190,-10,cs)
);
}
);
userData = {
com.hugojourdan.ColorFlow = {
"0" = 0;
"1" = 0;
"10" = 0;
"11" = 0;
"2" = 0;
"3" = 0;
"4" = 0;
"5" = 0;
"6" = 0;
"7" = 0;
"8" = 0;
"9" = 0;
};
};
width = 484;
},
{
background = {
shapes = (
{
pos = (263,0);
ref = I;
}
);
};
layerId = "DF4E5521-40BA-460F-874A-364F4D14AAD8";
shapes = (
{
closed = 1;
nodes = (
(336,-10,o),
(418,61,o),
(438,180,cs),
(525,700,l),
(427,700,l),
(341,186,ls),
(329,117,o),
(283,74,o),
(221,74,cs),
(167,74,o),
(100,109,o),
(64,157,c),
(-1,97,l),
(49,30,o),
(132,-10,o),
(219,-10,cs)
);
}
);
userData = {
com.hugojourdan.ColorFlow = {
"0" = 0;
"1" = 0;
"10" = 0;
"11" = 0;
"2" = 0;
"3" = 0;
"4" = 0;
"5" = 0;
"6" = 0;
"7" = 0;
"8" = 0;
"9" = 0;
};
};
width = 526;
},
{
background = {
shapes = (
{
pos = (302,0);
ref = I;
}
);
};
layerId = "C6DE9ED7-34B3-46A1-8A00-A72C4A5E93A3";
shapes = (
{
closed = 1;
nodes = (
(416,-10,o),
(500,65,o),
(525,215,cs),
(606,700,l),
(428,700,l),
(349,227,ls),
(339,167,o),
(312,138,o),
(262,138,cs),
(205,138,o),
(141,175,o),
(93,235,c),
(-7,119,l),
(46,40,o),
(152,-10,o),
(271,-10,cs)
);
}
);
userData = {
com.hugojourdan.ColorFlow = {
"0" = 0;
"1" = 0;
"10" = 0;
"11" = 0;
"2" = 0;
"3" = 0;
"4" = 0;
"5" = 0;
"6" = 0;
"7" = 0;
"8" = 0;
"9" = 0;
};
};
width = 579;
},
{
layerId = "D2741A44-CB8E-4434-9CC9-735A9A127F4C";
shapes = (
{
closed = 1;
nodes = (
(280,-10,o),
(367,46,o),
(383,163,cs),
(468,700,l),
(420,700,l),
(335,162,ls),
(322,72,o),
(255,24,o),
(187,24,cs),
(131,24,o),
(72,59,o),
(39,130,c),
(4,96,l),
(49,26,o),
(119,-10,o),
(191,-10,cs)
);
}
);
userData = {
com.hugojourdan.ColorFlow = {
"0" = 0;
"1" = 0;
"10" = 0;
"11" = 0;
"2" = 0;
"3" = 0;
"4" = 0;
"5" = 0;
"6" = 0;
"7" = 0;
"8" = 0;
"9" = 0;
};
};
width = 486;
},
{
layerId = "0B63B416-D10E-4459-8DAA-360BF3D1BFD2";
shapes = (
{
closed = 1;
nodes = (
(345,-10,o),
(449,59,o),
(466,199,cs),
(556,700,l),
(458,700,l),
(369,200,ls),
(355,102,o),
(288,49,o),
(223,49,cs),
(174,49,o),
(111,95,o),
(64,173,c),
(0,100,l),
(62,28,o),
(146,-10,o),
(228,-10,cs)
);
}
);
userData = {
com.hugojourdan.ColorFlow = {
"0" = 0;
"1" = 0;
"10" = 0;
"11" = 0;
"2" = 0;
"3" = 0;
"4" = 0;
"5" = 0;
"6" = 0;
"7" = 0;
"8" = 0;
"9" = 0;
};
};
width = 557;
},
{
layerId = "EE3858F4-A475-4EBA-A8F4-31CE9F38567C";
shapes = (
{
closed = 1;
nodes = (
(443,-10,o),
(571,80,o),
(588,255,cs),
(679,700,l),
(502,700,l),
(414,258,ls),
(399,148,o),
(335,88,o),
(276,88,cs),
(237,88,o),
(169,151,o),
(103,239,c),
(-9,107,l),
(77,32,o),
(183,-10,o),
(282,-10,cs)
);
}
);
userData = {
com.hugojourdan.ColorFlow = {
"0" = 0;
"1" = 0;
"10" = 0;
"11" = 0;
"2" = 0;
"3" = 0;
"4" = 0;
"5" = 0;
"6" = 0;
"7" = 0;
"8" = 0;
"9" = 0;
};
};
width = 652;
}
);
metricLeft = "=T";
metricRight = "=U";
note = J;
unicode = 74;
},
{
glyphname = K;
layers = (
{
layerId = m01;
shapes = (
{
closed = 1;
nodes = (
(264,334,l),
(264,334,l),
(578,700,l),
(532,700,l),
(252,379,l),
(143,362,l),
(143,334,l)
);
},
{
closed = 1;
nodes = (
(150,0,l),
(150,700,l),
(102,700,l),
(102,0,l)
);
},
{
closed = 1;
nodes = (
(603,0,l),
(279,376,l),
(231,367,l),
(542,0,l)
);
}
);
userData = {
com.hugojourdan.ColorFlow = {
"0" = 0;
"1" = 0;
"10" = 0;
"11" = 0;
"2" = 0;
"3" = 0;
"4" = 0;
"5" = 0;
"6" = 0;
"7" = 0;
"8" = 0;
"9" = 0;
};
};
width = 648;
},
{
layerId = "FF73925E-1E34-445B-881D-5A7CAAA8E8BE";
shapes = (
{
closed = 1;
nodes = (
(360,322,l),
(360,322,l),
(629,700,l),
(519,700,l),
(317,417,l),
(216,404,l),
(216,322,l)
);
},
{
closed = 1;
nodes = (
(232,0,l),
(232,700,l),
(54,700,l),
(54,0,l)
);
},
{
closed = 1;
nodes = (
(649,0,l),
(410,418,l),
(262,365,l),
(452,0,l)
);
}
);
userData = {
com.hugojourdan.ColorFlow = {
"0" = 0;
"1" = 0;
"10" = 0;
"11" = 0;
"2" = 0;
"3" = 0;
"4" = 0;
"5" = 0;
"6" = 0;
"7" = 0;
"8" = 0;
"9" = 0;
};
};
width = 660;
},
{
layerId = "BF6BA5B2-0556-42F4-A103-614BEBF16A1A";
shapes = (
{
closed = 1;
nodes = (
(298,324,l),
(298,324,l),
(602,700,l),
(531,700,l),
(280,392,l),
(165,374,l),
(165,324,l)
);
},
{
closed = 1;
nodes = (
(185,0,l),
(185,700,l),
(88,700,l),
(88,0,l)
);
},
{
closed = 1;
nodes = (
(625,0,l),
(333,394,l),
(244,367,l),
(511,0,l)
);
}
);
userData = {
com.hugojourdan.ColorFlow = {
"0" = 0;
"1" = 0;
"10" = 0;
"11" = 0;
"2" = 0;
"3" = 0;
"4" = 0;
"5" = 0;
"6" = 0;
"7" = 0;
"8" = 0;
"9" = 0;
};
};
width = 657;
},
{
layerId = m004;
shapes = (
{
closed = 1;
nodes = (
(264,365,l),
(264,365,l),
(565,700,l),
(505,700,l),
(253,417,l),
(143,293,l),
(143,230,l)
);
},
{
closed = 1;
nodes = (
(150,0,l),
(150,700,l),
(102,700,l),
(102,0,l)
);
},
{
closed = 1;
nodes = (
(603,0,l),
(294,418,l),
(262,382,l),
(546,0,l)
);
}
);
userData = {
com.hugojourdan.ColorFlow = {
"0" = 0;
"1" = 0;
"10" = 0;
"11" = 0;
"2" = 0;
"3" = 0;
"4" = 0;
"5" = 0;
"6" = 0;
"7" = 0;
"8" = 0;
"9" = 0;
};
};
width = 639;
},
{
layerId = m005;
shapes = (
{
closed = 1;
nodes = (
(295,345,l),
(295,343,l),
(602,700,l),
(496,700,l),
(274,441,l),
(166,315,l),
(166,195,l)
);
},
{
closed = 1;
nodes = (
(186,0,l),
(186,700,l),
(88,700,l),
(88,0,l)
);
},
{
closed = 1;
nodes = (
(625,0,l),
(335,412,l),
(261,365,l),
(514,0,l)
);
}
);
userData = {
com.hugojourdan.ColorFlow = {
"0" = 0;
"1" = 0;
"10" = 0;
"11" = 0;
"2" = 0;
"3" = 0;
"4" = 0;
"5" = 0;
"6" = 0;
"7" = 0;
"8" = 0;
"9" = 0;
};
};
width = 657;
},
{
guides = (
{
angle = 90;
pos = (232,350);
},
{
angle = 90;
pos = (216,350);
},
{
angle = 90;
pos = (359,322);
}
);
layerId = m006;
shapes = (
{
closed = 1;
nodes = (
(359,356,l),
(359,345,l),
(649,700,l),
(469,700,l),
(317,512,l),
(216,387,l),
(216,181,l)
);
},
{
closed = 1;
nodes = (
(232,0,l),
(232,700,l),
(54,700,l),
(54,0,l)
);
},
{
closed = 1;
nodes = (
(649,0,l),
(388,403,l),
(248,338,l),
(452,0,l)
);
}
);
userData = {
com.hugojourdan.ColorFlow = {
"0" = 0;
"1" = 0;
"10" = 0;
"11" = 0;
"2" = 0;
"3" = 0;
"4" = 0;
"5" = 0;
"6" = 0;
"7" = 0;
"8" = 0;
"9" = 0;
};
};
width = 660;
},
{
associatedMasterId = m005;
layerId = "08F6F4D0-0A49-4B80-A84D-A6F92DF2C3BE";
name = "20 Jun 23 4.51 PM";
shapes = (
{
closed = 1;
nodes = (
(143,167,l),
(602,700,l),
(496,700,l),
(118,259,l),
(100,259,l),
(100,167,l)
);
},
{
closed = 1;
nodes = (
(186,0,l),
(186,700,l),
(88,700,l),
(88,0,l)
);
},
{
closed = 1;
nodes = (
(625,0,l),
(335,412,l),
(261,365,l),
(514,0,l)
);
}
);
userData = {
com.hugojourdan.ColorFlow = {
"0" = 0;
"1" = 0;
"10" = 0;
"11" = 0;
"2" = 0;
"3" = 0;
"4" = 0;
"5" = 0;
"6" = 0;
"7" = 0;
"8" = 0;
"9" = 0;
};
};
width = 655;
},
{
layerId = "4E5694F4-F64E-4331-B998-78BE273203C7";
shapes = (
{
closed = 1;
nodes = (
(286,372,l),
(286,372,l),
(660,700,l),
(595,700,l),
(283,425,l),
(154,311,l),
(144,248,l)
);
},
{
closed = 1;
nodes = (
(110,0,l),
(227,700,l),
(179,700,l),
(62,0,l)
);
},
{
closed = 1;
nodes = (
(563,0,l),
(338,423,l),
(300,389,l),
(509,0,l)
);
}
);
userData = {
com.hugojourdan.ColorFlow = {
"0" = 0;
"1" = 0;
"10" = 0;
"11" = 0;
"2" = 0;
"3" = 0;
"4" = 0;
"5" = 0;
"6" = 0;
"7" = 0;
"8" = 0;
"9" = 0;
};
};
width = 639;
},
{
layerId = "DF4E5521-40BA-460F-874A-364F4D14AAD8";
shapes = (
{
closed = 1;
nodes = (
(313,350,l),
(313,348,l),
(699,700,l),
(585,700,l),
(308,448,l),
(181,331,l),
(161,211,l)
);
},
{
closed = 1;
nodes = (
(145,0,l),
(262,700,l),
(164,700,l),
(47,0,l)
);
},
{
closed = 1;
nodes = (
(584,0,l),
(376,414,l),
(296,373,l),
(479,0,l)
);
}
);
userData = {
com.hugojourdan.ColorFlow = {
"0" = 0;
"1" = 0;
"10" = 0;
"11" = 0;
"2" = 0;
"3" = 0;
"4" = 0;
"5" = 0;
"6" = 0;
"7" = 0;
"8" = 0;
"9" = 0;
};
};
width = 657;
},
{
associatedMasterId = "DF4E5521-40BA-460F-874A-364F4D14AAD8";
layerId = "C1F258F3-652C-4BCC-9A10-007598A3D2A6";
name = "20 Jun 23 4.51 PM";
shapes = (
{
closed = 1;
nodes = (
(219,167,l),
(678,700,l),
(572,700,l),
(194,259,l),
(176,259,l),
(176,167,l)
);
},
{
closed = 1;
nodes = (
(262,0,l),
(262,700,l),
(164,700,l),
(164,0,l)
);
},
{
closed = 1;
nodes = (
(701,0,l),
(411,412,l),
(337,365,l),
(590,0,l)
);
}
);
userData = {
com.hugojourdan.ColorFlow = {
"0" = 0;
"1" = 0;
"10" = 0;
"11" = 0;
"2" = 0;
"3" = 0;
"4" = 0;
"5" = 0;
"6" = 0;
"7" = 0;
"8" = 0;
"9" = 0;
};
};
width = 772;
},
{
guides = (
{
angle = 80.5;
pos = (649,251);
}
);
layerId = "C6DE9ED7-34B3-46A1-8A00-A72C4A5E93A3";
shapes = (
{
closed = 1;
nodes = (
(351,355,l),
(351,344,l),
(724,700,l),
(529,700,l),
(337,514,l),
(216,398,l),
(181,193,l)
);
},
{
closed = 1;
nodes = (
(190,0,l),
(307,700,l),
(129,700,l),
(12,0,l)
);
},
{
closed = 1;
nodes = (
(607,0,l),
(410,431,l),
(261,378,l),
(419,0,l)
);
}
);
userData = {
com.hugojourdan.ColorFlow = {
"0" = 0;
"1" = 0;
"10" = 0;
"11" = 0;
"2" = 0;
"3" = 0;
"4" = 0;
"5" = 0;
"6" = 0;
"7" = 0;
"8" = 0;
"9" = 0;
};
};
width = 660;
},
{
layerId = "D2741A44-CB8E-4434-9CC9-735A9A127F4C";
shapes = (
{
closed = 1;
nodes = (
(289,341,l),
(289,341,l),
(672,700,l),
(621,700,l),
(284,387,l),
(157,379,l),
(148,351,l)
);
},
{
closed = 1;
nodes = (
(116,0,l),
(227,700,l),
(179,700,l),
(68,0,l)
);
},
{
closed = 1;
nodes = (
(569,0,l),
(325,381,l),
(271,374,l),
(511,0,l)
);
}
);
userData = {
com.hugojourdan.ColorFlow = {
"0" = 0;
"1" = 0;
"10" = 0;
"11" = 0;
"2" = 0;
"3" = 0;
"4" = 0;
"5" = 0;
"6" = 0;
"7" = 0;
"8" = 0;
"9" = 0;
};
};
width = 642;
},
{
layerId = "0B63B416-D10E-4459-8DAA-360BF3D1BFD2";
shapes = (
{
closed = 1;
nodes = (
(333,341,l),
(333,341,l),
(697,700,l),
(621,700,l),
(312,403,l),
(193,399,l),
(184,351,l)
);
},
{
closed = 1;
nodes = (
(146,0,l),
(263,700,l),
(164,700,l),
(47,0,l)
);
},
{
closed = 1;
nodes = (
(585,0,l),
(379,396,l),
(287,373,l),
(474,0,l)
);
}
);
userData = {
com.hugojourdan.ColorFlow = {
"0" = 0;
"1" = 0;
"10" = 0;
"11" = 0;
"2" = 0;
"3" = 0;
"4" = 0;
"5" = 0;
"6" = 0;
"7" = 0;
"8" = 0;
"9" = 0;
};
};
width = 650;
},
{
layerId = "EE3858F4-A475-4EBA-A8F4-31CE9F38567C";
shapes = (
{
closed = 1;
nodes = (
(395,340,l),
(395,340,l),
(723,700,l),
(608,700,l),
(348,427,l),
(243,429,l),
(234,349,l)
);
},
{
closed = 1;
nodes = (
(192,0,l),
(308,700,l),
(129,700,l),
(12,0,l)
);
},
{
closed = 1;
nodes = (
(608,0,l),
(455,420,l),
(304,371,l),
(413,0,l)
);
}
);
userData = {
com.hugojourdan.ColorFlow = {
"0" = 0;
"1" = 0;
"10" = 0;
"11" = 0;
"2" = 0;
"3" = 0;
"4" = 0;
"5" = 0;
"6" = 0;
"7" = 0;
"8" = 0;
"9" = 0;
};
};
width = 654;
}
);
metricLeft = "=H";
metricRight = "=V";
note = K;
unicode = 75;
},
{
glyphname = L;
layers = (
{
layerId = m01;
shapes = (
{
closed = 1;
nodes = (
(474,0,l),
(474,32,l),
(150,32,l),
(150,700,l),
(102,700,l),
(102,0,l)
);
}
);
userData = {
com.hugojourdan.ColorFlow = {
"0" = 0;
"1" = 0;
"10" = 0;
"11" = 0;
"2" = 0;
"3" = 0;
"4" = 0;
"5" = 0;
"6" = 0;
"7" = 0;
"8" = 0;
"9" = 0;
};
};
width = 543;
},
{
layerId = "FF73925E-1E34-445B-881D-5A7CAAA8E8BE";
shapes = (
{
closed = 1;
nodes = (
(490,0,l),
(490,90,l),
(232,90,l),
(232,700,l),
(54,700,l),
(54,0,l)
);
}
);
userData = {
com.hugojourdan.ColorFlow = {
"0" = 0;
"1" = 0;
"10" = 0;
"11" = 0;
"2" = 0;
"3" = 0;
"4" = 0;
"5" = 0;
"6" = 0;
"7" = 0;
"8" = 0;
"9" = 0;
};
};
width = 527;
},
{
layerId = "BF6BA5B2-0556-42F4-A103-614BEBF16A1A";
shapes = (
{
closed = 1;
nodes = (
(484,0,l),
(484,52,l),
(185,52,l),
(185,700,l),
(88,700,l),
(88,0,l)
);
}
);
userData = {
com.hugojourdan.ColorFlow = {
"0" = 0;
"1" = 0;
"10" = 0;
"11" = 0;
"2" = 0;
"3" = 0;
"4" = 0;
"5" = 0;
"6" = 0;
"7" = 0;
"8" = 0;
"9" = 0;
};
};
width = 544;
},
{
background = {
guides = (
{
angle = 258.6901;
},
{
angle = 260.5377;
pos = (0,24);
}
);
shapes = (
{
closed = 1;
nodes = (
(0,0,l),
(9,45,l)
);
},
{
closed = 1;
nodes = (
(8,0,l),
(19,44,l)
);
},
{
closed = 1;
nodes = (
(-4,0,l),
(4,48,l)
);
}
);
};
layerId = m004;
shapes = (
{
closed = 1;
nodes = (
(474,0,l),
(474,42,l),
(150,42,l),
(150,700,l),
(102,700,l),
(102,0,l)
);
}
);
userData = {
com.hugojourdan.ColorFlow = {
"0" = 0;
"1" = 0;
"10" = 0;
"11" = 0;
"2" = 0;
"3" = 0;
"4" = 0;
"5" = 0;
"6" = 0;
"7" = 0;
"8" = 0;
"9" = 0;
};
};
width = 543;
},
{
layerId = m005;
shapes = (
{
closed = 1;
nodes = (
(485,0,l),
(485,83,l),
(186,83,l),
(186,700,l),
(88,700,l),
(88,0,l)
);
}
);
userData = {
com.hugojourdan.ColorFlow = {
"0" = 0;
"1" = 0;
"10" = 0;
"11" = 0;
"2" = 0;
"3" = 0;
"4" = 0;
"5" = 0;
"6" = 0;
"7" = 0;
"8" = 0;
"9" = 0;
};
};
width = 545;
},
{
layerId = m006;
shapes = (
{
closed = 1;
nodes = (
(490,0,l),
(490,143,l),
(232,143,l),
(232,700,l),
(54,700,l),
(54,0,l)
);
}
);
userData = {
com.hugojourdan.ColorFlow = {
"0" = 0;
"1" = 0;
"10" = 0;
"11" = 0;
"2" = 0;
"3" = 0;
"4" = 0;
"5" = 0;
"6" = 0;
"7" = 0;
"8" = 0;
"9" = 0;
};
};
width = 527;
},
{
layerId = "4E5694F4-F64E-4331-B998-78BE273203C7";
shapes = (
{
closed = 1;
nodes = (
(435,0,l),
(442,42,l),
(117,42,l),
(227,700,l),
(179,700,l),
(62,0,l)
);
}
);
userData = {
com.hugojourdan.ColorFlow = {
"0" = 0;
"1" = 0;
"10" = 0;
"11" = 0;
"2" = 0;
"3" = 0;
"4" = 0;
"5" = 0;
"6" = 0;
"7" = 0;
"8" = 0;
"9" = 0;
};
};
width = 544;
},
{
background = {
shapes = (
{
ref = I;
}
);
};
layerId = "DF4E5521-40BA-460F-874A-364F4D14AAD8";
shapes = (
{
closed = 1;
nodes = (
(444,0,l),
(458,83,l),
(159,83,l),
(262,700,l),
(164,700,l),
(47,0,l)
);
}
);
userData = {
com.hugojourdan.ColorFlow = {
"0" = 0;
"1" = 0;
"10" = 0;
"11" = 0;
"2" = 0;
"3" = 0;
"4" = 0;
"5" = 0;
"6" = 0;
"7" = 0;
"8" = 0;
"9" = 0;
};
};
width = 545;
},
{
background = {
shapes = (
{
pos = (3,0);
ref = I;
}
);
};
layerId = "C6DE9ED7-34B3-46A1-8A00-A72C4A5E93A3";
shapes = (
{
closed = 1;
nodes = (
(448,0,l),
(472,143,l),
(214,143,l),
(307,700,l),
(129,700,l),
(12,0,l)
);
}
);
userData = {
com.hugojourdan.ColorFlow = {
"0" = 0;
"1" = 0;
"10" = 0;
"11" = 0;
"2" = 0;
"3" = 0;
"4" = 0;
"5" = 0;
"6" = 0;
"7" = 0;
"8" = 0;
"9" = 0;
};
};
width = 527;
},
{
layerId = "D2741A44-CB8E-4434-9CC9-735A9A127F4C";
shapes = (
{
closed = 1;
nodes = (
(441,0,l),
(448,32,l),
(123,32,l),
(227,700,l),
(179,700,l),
(68,0,l)
);
}
);
userData = {
com.hugojourdan.ColorFlow = {
"0" = 0;
"1" = 0;
"10" = 0;
"11" = 0;
"2" = 0;
"3" = 0;
"4" = 0;
"5" = 0;
"6" = 0;
"7" = 0;
"8" = 0;
"9" = 0;
};
};
width = 552;
},
{
layerId = "0B63B416-D10E-4459-8DAA-360BF3D1BFD2";
shapes = (
{
closed = 1;
nodes = (
(445,0,l),
(453,56,l),
(154,56,l),
(263,700,l),
(164,700,l),
(47,0,l)
);
}
);
userData = {
com.hugojourdan.ColorFlow = {
"0" = 0;
"1" = 0;
"10" = 0;
"11" = 0;
"2" = 0;
"3" = 0;
"4" = 0;
"5" = 0;
"6" = 0;
"7" = 0;
"8" = 0;
"9" = 0;
};
};
width = 546;
},
{
layerId = "EE3858F4-A475-4EBA-A8F4-31CE9F38567C";
shapes = (
{
closed = 1;
nodes = (
(449,0,l),
(458,94,l),
(200,94,l),
(308,700,l),
(129,700,l),
(12,0,l)
);
}
);
userData = {
com.hugojourdan.ColorFlow = {
"0" = 0;
"1" = 0;
"10" = 0;
"11" = 0;
"2" = 0;
"3" = 0;
"4" = 0;
"5" = 0;
"6" = 0;
"7" = 0;
"8" = 0;
"9" = 0;
};
};
width = 528;
}
);
metricLeft = "=H";
metricRight = "=H*0.68";
note = L;
unicode = 76;
},
{
glyphname = M;
layers = (
{
layerId = m01;
shapes = (
{
closed = 1;
nodes = (
(139,0,l),
(139,673,l),
(121,669,l),
(409,0,l),
(439,0,l),
(723,671,l),
(705,675,l),
(705,0,l),
(754,0,l),
(754,700,l),
(696,700,l),
(414,36,l),
(450,36,l),
(163,700,l),
(102,700,l),
(102,0,l)
);
}
);
userData = {
com.hugojourdan.ColorFlow = {
"0" = 0;
"1" = 0;
"10" = 0;
"11" = 0;
"2" = 0;
"3" = 0;
"4" = 0;
"5" = 0;
"6" = 0;
"7" = 0;
"8" = 0;
"9" = 0;
};
};
width = 856;
},
{
layerId = "FF73925E-1E34-445B-881D-5A7CAAA8E8BE";
shapes = (
{
closed = 1;
nodes = (
(148,0,l),
(148,547,l),
(133,544,l),
(323,0,l),
(448,0,l),
(629,549,l),
(615,551,l),
(615,0,l),
(791,0,l),
(791,700,l),
(588,700,l),
(408,155,l),
(441,155,l),
(252,700,l),
(54,700,l),
(54,0,l)
);
}
);
userData = {
com.hugojourdan.ColorFlow = {
"0" = 0;
"1" = 0;
"10" = 0;
"11" = 0;
"2" = 0;
"3" = 0;
"4" = 0;
"5" = 0;
"6" = 0;
"7" = 0;
"8" = 0;
"9" = 0;
};
};
width = 845;
},
{
layerId = "BF6BA5B2-0556-42F4-A103-614BEBF16A1A";
shapes = (
{
closed = 1;
nodes = (
(148,0,l),
(148,624,l),
(131,621,l),
(381,0,l),
(447,0,l),
(691,628,l),
(675,631,l),
(675,0,l),
(773,0,l),
(773,700,l),
(655,700,l),
(418,78,l),
(451,78,l),
(203,700,l),
(88,700,l),
(88,0,l)
);
}
);
userData = {
com.hugojourdan.ColorFlow = {
"0" = 0;
"1" = 0;
"10" = 0;
"11" = 0;
"2" = 0;
"3" = 0;
"4" = 0;
"5" = 0;
"6" = 0;
"7" = 0;
"8" = 0;
"9" = 0;
};
};
width = 861;
},
{
guides = (
{
angle = -67.6543;
pos = (272,335);
},
{
angle = -67.654;
pos = (307,362);
}
);
layerId = m004;
shapes = (
{
closed = 1;
nodes = (
(150,0,l),
(150,673,l),
(134,669,l),
(409,0,l),
(448,0,l),
(723,669,l),
(707,673,l),
(707,0,l),
(754,0,l),
(754,700,l),
(689,700,l),
(411,24,l),
(446,24,l),
(168,700,l),
(102,700,l),
(102,0,l)
);
}
);
userData = {
com.hugojourdan.ColorFlow = {
"0" = 0;
"1" = 0;
"10" = 0;
"11" = 0;
"2" = 0;
"3" = 0;
"4" = 0;
"5" = 0;
"6" = 0;
"7" = 0;
"8" = 0;
"9" = 0;
};
};
width = 856;
},
{
guides = (
{
angle = 109.9686;
pos = (333,384);
},
{
angle = 109.969;
pos = (281,293);
}
);
layerId = m005;
shapes = (
{
closed = 1;
nodes = (
(186,0,l),
(186,606,l),
(180,590,l),
(384,0,l),
(477,0,l),
(681,590,l),
(677,606,l),
(677,0,l),
(773,0,l),
(773,700,l),
(628,700,l),
(409,67,l),
(455,67,l),
(235,700,l),
(88,700,l),
(88,0,l)
);
}
);
userData = {
com.hugojourdan.ColorFlow = {
"0" = 0;
"1" = 0;
"10" = 0;
"11" = 0;
"2" = 0;
"3" = 0;
"4" = 0;
"5" = 0;
"6" = 0;
"7" = 0;
"8" = 0;
"9" = 0;
};
};
width = 861;
},
{
guides = (
{
angle = -74.085;
pos = (286,249);
},
{
angle = -74.085;
pos = (344,435);
}
);
layerId = m006;
shapes = (
{
closed = 1;
nodes = (
(232,0,l),
(232,501,l),
(230,498,l),
(363,0,l),
(486,0,l),
(619,498,l),
(617,501,l),
(617,0,l),
(793,0,l),
(793,700,l),
(532,700,l),
(379,126,l),
(470,126,l),
(319,700,l),
(54,700,l),
(54,0,l)
);
}
);
userData = {
com.hugojourdan.ColorFlow = {
"0" = 0;
"1" = 0;
"10" = 0;
"11" = 0;
"2" = 0;
"3" = 0;
"4" = 0;
"5" = 0;
"6" = 0;
"7" = 0;
"8" = 0;
"9" = 0;
};
};
width = 847;
},
{
guides = (
{
angle = -67.6543;
pos = (263,335);
},
{
angle = -67.654;
pos = (298,362);
}
);
layerId = "4E5694F4-F64E-4331-B998-78BE273203C7";
shapes = (
{
closed = 1;
nodes = (
(110,0,l),
(223,673,l),
(206,669,l),
(369,0,l),
(408,0,l),
(795,669,l),
(780,673,l),
(667,0,l),
(714,0,l),
(831,700,l),
(764,700,l),
(373,24,l),
(408,24,l),
(243,700,l),
(179,700,l),
(62,0,l)
);
}
);
userData = {
com.hugojourdan.ColorFlow = {
"0" = 0;
"1" = 0;
"10" = 0;
"11" = 0;
"2" = 0;
"3" = 0;
"4" = 0;
"5" = 0;
"6" = 0;
"7" = 0;
"8" = 0;
"9" = 0;
};
};
width = 856;
},
{
guides = (
{
angle = 109.9686;
pos = (323,384);
},
{
angle = 109.969;
pos = (271,293);
}
);
layerId = "DF4E5521-40BA-460F-874A-364F4D14AAD8";
shapes = (
{
closed = 1;
nodes = (
(145,0,l),
(246,606,l),
(238,590,l),
(343,0,l),
(436,0,l),
(739,590,l),
(737,606,l),
(636,0,l),
(732,0,l),
(849,700,l),
(701,700,l),
(376,67,l),
(422,67,l),
(308,700,l),
(164,700,l),
(47,0,l)
);
}
);
userData = {
com.hugojourdan.ColorFlow = {
"0" = 0;
"1" = 0;
"10" = 0;
"11" = 0;
"2" = 0;
"3" = 0;
"4" = 0;
"5" = 0;
"6" = 0;
"7" = 0;
"8" = 0;
"9" = 0;
};
};
width = 861;
},
{
guides = (
{
angle = -74.085;
pos = (275,249);
},
{
angle = -74.085;
pos = (333,435);
}
);
layerId = "C6DE9ED7-34B3-46A1-8A00-A72C4A5E93A3";
shapes = (
{
closed = 1;
nodes = (
(190,0,l),
(274,501,l),
(261,498,l),
(320,0,l),
(443,0,l),
(668,498,l),
(659,501,l),
(575,0,l),
(751,0,l),
(868,700,l),
(608,700,l),
(348,126,l),
(443,126,l),
(375,700,l),
(129,700,l),
(12,0,l)
);
}
);
userData = {
com.hugojourdan.ColorFlow = {
"0" = 0;
"1" = 0;
"10" = 0;
"11" = 0;
"2" = 0;
"3" = 0;
"4" = 0;
"5" = 0;
"6" = 0;
"7" = 0;
"8" = 0;
"9" = 0;
};
};
width = 847;
},
{
layerId = "D2741A44-CB8E-4434-9CC9-735A9A127F4C";
shapes = (
{
closed = 1;
nodes = (
(105,0,l),
(212,673,l),
(193,669,l),
(375,0,l),
(405,0,l),
(795,671,l),
(778,675,l),
(671,0,l),
(720,0,l),
(831,700,l),
(771,700,l),
(382,36,l),
(418,36,l),
(238,700,l),
(179,700,l),
(68,0,l)
);
}
);
userData = {
com.hugojourdan.ColorFlow = {
"0" = 0;
"1" = 0;
"10" = 0;
"11" = 0;
"2" = 0;
"3" = 0;
"4" = 0;
"5" = 0;
"6" = 0;
"7" = 0;
"8" = 0;
"9" = 0;
};
};
width = 862;
},
{
layerId = "0B63B416-D10E-4459-8DAA-360BF3D1BFD2";
shapes = (
{
closed = 1;
nodes = (
(105,0,l),
(218,624,l),
(201,620,l),
(339,0,l),
(406,0,l),
(762,621,l),
(747,624,l),
(634,0,l),
(732,0,l),
(849,700,l),
(736,700,l),
(376,85,l),
(412,85,l),
(275,700,l),
(164,700,l),
(47,0,l)
);
}
);
userData = {
com.hugojourdan.ColorFlow = {
"0" = 0;
"1" = 0;
"10" = 0;
"11" = 0;
"2" = 0;
"3" = 0;
"4" = 0;
"5" = 0;
"6" = 0;
"7" = 0;
"8" = 0;
"9" = 0;
};
};
width = 861;
},
{
layerId = "EE3858F4-A475-4EBA-A8F4-31CE9F38567C";
shapes = (
{
closed = 1;
nodes = (
(103,0,l),
(217,546,l),
(203,543,l),
(280,0,l),
(406,0,l),
(699,542,l),
(687,544,l),
(574,0,l),
(749,0,l),
(866,700,l),
(669,700,l),
(365,162,l),
(401,162,l),
(322,700,l),
(129,700,l),
(12,0,l)
);
}
);
userData = {
com.hugojourdan.ColorFlow = {
"0" = 0;
"1" = 0;
"10" = 0;
"11" = 0;
"2" = 0;
"3" = 0;
"4" = 0;
"5" = 0;
"6" = 0;
"7" = 0;
"8" = 0;
"9" = 0;
};
};
width = 845;
}
);
metricLeft = "=H";
metricRight = "=|";
note = M;
unicode = 77;
},
{
glyphname = N;
layers = (
{
anchors = (
{
name = top;
pos = (328,700);
}
);
layerId = m01;
shapes = (
{
closed = 1;
nodes = (
(139,0,l),
(139,650,l),
(113,643,l),
(525,0,l),
(557,0,l),
(557,700,l),
(520,700,l),
(520,55,l),
(542,62,l),
(132,700,l),
(102,700,l),
(102,0,l)
);
}
);
userData = {
com.hugojourdan.ColorFlow = {
"0" = 0;
"1" = 0;
"10" = 0;
"11" = 0;
"2" = 0;
"3" = 0;
"4" = 0;
"5" = 0;
"6" = 0;
"7" = 0;
"8" = 0;
"9" = 0;
};
};
width = 659;
},
{
anchors = (
{
name = top;
pos = (329,700);
}
);
layerId = "FF73925E-1E34-445B-881D-5A7CAAA8E8BE";
shapes = (
{
closed = 1;
nodes = (
(148,0,l),
(148,495,l),
(119,488,l),
(439,0,l),
(581,0,l),
(581,700,l),
(487,700,l),
(487,213,l),
(508,220,l),
(193,700,l),
(54,700,l),
(54,0,l)
);
}
);
userData = {
com.hugojourdan.ColorFlow = {
"0" = 0;
"1" = 0;
"10" = 0;
"11" = 0;
"2" = 0;
"3" = 0;
"4" = 0;
"5" = 0;
"6" = 0;
"7" = 0;
"8" = 0;
"9" = 0;
};
};
width = 635;
},
{
anchors = (
{
name = top;
pos = (333,700);
}
);
layerId = "BF6BA5B2-0556-42F4-A103-614BEBF16A1A";
shapes = (
{
closed = 1;
nodes = (
(147,0,l),
(147,590,l),
(121,583,l),
(497,0,l),
(571,0,l),
(571,700,l),
(512,700,l),
(512,115,l),
(534,122,l),
(160,700,l),
(88,700,l),
(88,0,l)
);
}
);
userData = {
com.hugojourdan.ColorFlow = {
"0" = 0;
"1" = 0;
"10" = 0;
"11" = 0;
"2" = 0;
"3" = 0;
"4" = 0;
"5" = 0;
"6" = 0;
"7" = 0;
"8" = 0;
"9" = 0;
};
};
width = 659;
},
{
anchors = (
{
name = top;
pos = (328,700);
}
);
layerId = m004;
shapes = (
{
closed = 1;
nodes = (
(150,0,l),
(150,650,l),
(124,643,l),
(518,0,l),
(557,0,l),
(557,700,l),
(509,700,l),
(509,55,l),
(534,57,l),
(140,700,l),
(102,700,l),
(102,0,l)
);
}
);
userData = {
com.hugojourdan.ColorFlow = {
"0" = 0;
"1" = 0;
"10" = 0;
"11" = 0;
"2" = 0;
"3" = 0;
"4" = 0;
"5" = 0;
"6" = 0;
"7" = 0;
"8" = 0;
"9" = 0;
};
};
width = 659;
},
{
anchors = (
{
name = top;
pos = (350,700);
}
);
guides = (
{
angle = -59.6032;
pos = (322,292);
},
{
angle = -59.603;
pos = (188,700);
}
);
layerId = m005;
shapes = (
{
closed = 1;
nodes = (
(186,0,l),
(186,590,l),
(153,583,l),
(495,0,l),
(595,0,l),
(595,700,l),
(497,700,l),
(497,116,l),
(524,124,l),
(186,700,l),
(88,700,l),
(88,0,l)
);
}
);
userData = {
com.hugojourdan.ColorFlow = {
"0" = 0;
"1" = 0;
"10" = 0;
"11" = 0;
"2" = 0;
"3" = 0;
"4" = 0;
"5" = 0;
"6" = 0;
"7" = 0;
"8" = 0;
"9" = 0;
};
};
width = 683;
},
{
anchors = (
{
name = top;
pos = (348,700);
}
);
layerId = m006;
shapes = (
{
closed = 1;
nodes = (
(231,0,l),
(231,530,l),
(190,522,l),
(429,0,l),
(642,0,l),
(642,700,l),
(465,700,l),
(465,178,l),
(498,186,l),
(264,700,l),
(54,700,l),
(54,0,l)
);
}
);
userData = {
com.hugojourdan.ColorFlow = {
"0" = 0;
"1" = 0;
"10" = 0;
"11" = 0;
"2" = 0;
"3" = 0;
"4" = 0;
"5" = 0;
"6" = 0;
"7" = 0;
"8" = 0;
"9" = 0;
};
};
width = 696;
},
{
anchors = (
{
name = top;
pos = (407,700);
}
);
layerId = "4E5694F4-F64E-4331-B998-78BE273203C7";
shapes = (
{
closed = 1;
nodes = (
(110,0,l),
(219,650,l),
(195,643,l),
(478,0,l),
(517,0,l),
(634,700,l),
(586,700,l),
(478,55,l),
(501,57,l),
(217,700,l),
(179,700,l),
(62,0,l)
);
}
);
userData = {
com.hugojourdan.ColorFlow = {
"0" = 0;
"1" = 0;
"10" = 0;
"11" = 0;
"2" = 0;
"3" = 0;
"4" = 0;
"5" = 0;
"6" = 0;
"7" = 0;
"8" = 0;
"9" = 0;
};
};
width = 659;
},
{
anchors = (
{
name = top;
pos = (417,700);
}
);
guides = (
{
angle = -59.6032;
pos = (311,292);
},
{
angle = -59.603;
pos = (177,700);
}
);
layerId = "DF4E5521-40BA-460F-874A-364F4D14AAD8";
shapes = (
{
closed = 1;
nodes = (
(145,0,l),
(244,590,l),
(214,583,l),
(454,0,l),
(554,0,l),
(671,700,l),
(573,700,l),
(475,116,l),
(499,124,l),
(262,700,l),
(164,700,l),
(47,0,l)
);
}
);
userData = {
com.hugojourdan.ColorFlow = {
"0" = 0;
"1" = 0;
"10" = 0;
"11" = 0;
"2" = 0;
"3" = 0;
"4" = 0;
"5" = 0;
"6" = 0;
"7" = 0;
"8" = 0;
"9" = 0;
};
};
width = 683;
},
{
anchors = (
{
name = top;
pos = (422,700);
}
);
layerId = "C6DE9ED7-34B3-46A1-8A00-A72C4A5E93A3";
shapes = (
{
closed = 1;
nodes = (
(189,0,l),
(278,530,l),
(235,522,l),
(387,0,l),
(600,0,l),
(717,700,l),
(540,700,l),
(453,178,l),
(487,186,l),
(339,700,l),
(129,700,l),
(12,0,l)
);
}
);
userData = {
com.hugojourdan.ColorFlow = {
"0" = 0;
"1" = 0;
"10" = 0;
"11" = 0;
"2" = 0;
"3" = 0;
"4" = 0;
"5" = 0;
"6" = 0;
"7" = 0;
"8" = 0;
"9" = 0;
};
};
width = 696;
},
{
anchors = (
{
name = top;
pos = (407,700);
}
);
layerId = "D2741A44-CB8E-4434-9CC9-735A9A127F4C";
shapes = (
{
closed = 1;
nodes = (
(105,0,l),
(208,650,l),
(184,643,l),
(491,0,l),
(523,0,l),
(634,700,l),
(597,700,l),
(495,55,l),
(515,62,l),
(209,700,l),
(179,700,l),
(68,0,l)
);
}
);
userData = {
com.hugojourdan.ColorFlow = {
"0" = 0;
"1" = 0;
"10" = 0;
"11" = 0;
"2" = 0;
"3" = 0;
"4" = 0;
"5" = 0;
"6" = 0;
"7" = 0;
"8" = 0;
"9" = 0;
};
};
width = 665;
},
{
anchors = (
{
name = top;
pos = (411,700);
}
);
layerId = "0B63B416-D10E-4459-8DAA-360BF3D1BFD2";
shapes = (
{
closed = 1;
nodes = (
(106,0,l),
(215,590,l),
(189,583,l),
(455,0,l),
(530,0,l),
(647,700,l),
(588,700,l),
(480,117,l),
(499,124,l),
(237,700,l),
(164,700,l),
(47,0,l)
);
}
);
userData = {
com.hugojourdan.ColorFlow = {
"0" = 0;
"1" = 0;
"10" = 0;
"11" = 0;
"2" = 0;
"3" = 0;
"4" = 0;
"5" = 0;
"6" = 0;
"7" = 0;
"8" = 0;
"9" = 0;
};
};
width = 659;
},
{
anchors = (
{
name = top;
pos = (406,700);
}
);
layerId = "EE3858F4-A475-4EBA-A8F4-31CE9F38567C";
shapes = (
{
closed = 1;
nodes = (
(106,0,l),
(215,495,l),
(186,488,l),
(396,0,l),
(539,0,l),
(656,700,l),
(562,700,l),
(454,215,l),
(471,222,l),
(270,700,l),
(129,700,l),
(12,0,l)
);
}
);
userData = {
com.hugojourdan.ColorFlow = {
"0" = 0;
"1" = 0;
"10" = 0;
"11" = 0;
"2" = 0;
"3" = 0;
"4" = 0;
"5" = 0;
"6" = 0;
"7" = 0;
"8" = 0;
"9" = 0;
};
};
width = 635;
}
);
metricLeft = "=H";
metricRight = "=|";
note = N;
unicode = 78;
},
{
glyphname = O;
layers = (
{
anchors = (
{
name = center;
pos = (342,350);
},
{
name = top;
pos = (342,700);
}
);
layerId = m01;
metricLeft = "=H*0.74";
shapes = (
{
closed = 1;
nodes = (
(513,-10,o),
(609,119,o),
(609,350,cs),
(609,581,o),
(513,710,o),
(342,710,cs),
(171,710,o),
(75,581,o),
(75,350,cs),
(75,119,o),
(171,-10,o),
(342,-10,cs)
);
},
{
closed = 1;
nodes = (
(205,22,o),
(128,140,o),
(128,350,cs),
(128,560,o),
(205,678,o),
(342,678,cs),
(479,678,o),
(556,560,o),
(556,350,cs),
(556,140,o),
(479,22,o),
(342,22,cs)
);
}
);
userData = {
com.hugojourdan.ColorFlow = {
"0" = 0;
"1" = 0;
"10" = 0;
"11" = 0;
"2" = 0;
"3" = 0;
"4" = 0;
"5" = 0;
"6" = 0;
"7" = 0;
"8" = 0;
"9" = 0;
};
};
width = 684;
},
{
anchors = (
{
name = center;
pos = (344,350);
},
{
name = top;
pos = (344,700);
}
);
layerId = "FF73925E-1E34-445B-881D-5A7CAAA8E8BE";
metricLeft = "=H*0.84";
shapes = (
{
closed = 1;
nodes = (
(545,-10,o),
(643,109,o),
(643,350,cs),
(643,591,o),
(545,710,o),
(345,710,cs),
(145,710,o),
(45,590,o),
(45,351,cs),
(45,111,o),
(146,-10,o),
(346,-10,cs)
);
},
{
closed = 1;
nodes = (
(270,80,o),
(233,169,o),
(233,350,cs),
(233,531,o),
(270,620,o),
(345,620,cs),
(419,620,o),
(455,532,o),
(455,350,cs),
(455,169,o),
(419,80,o),
(345,80,cs)
);
}
);
userData = {
com.hugojourdan.ColorFlow = {
"0" = 0;
"1" = 0;
"10" = 0;
"11" = 0;
"2" = 0;
"3" = 0;
"4" = 0;
"5" = 0;
"6" = 0;
"7" = 0;
"8" = 0;
"9" = 0;
};
};
width = 688;
},
{
anchors = (
{
name = center;
pos = (345,350);
},
{
name = top;
pos = (345,700);
}
);
layerId = "BF6BA5B2-0556-42F4-A103-614BEBF16A1A";
metricLeft = "=H*0.74";
shapes = (
{
closed = 1;
nodes = (
(525,-10,o),
(625,118,o),
(625,350,cs),
(625,586,o),
(528,710,o),
(345,710,cs),
(164,710,o),
(65,582,o),
(65,350,cs),
(65,113,o),
(160,-10,o),
(345,-10,cs)
);
},
{
closed = 1;
nodes = (
(227,38,o),
(170,139,o),
(170,351,cs),
(170,562,o),
(227,662,o),
(345,662,cs),
(462,662,o),
(520,560,o),
(520,351,cs),
(520,141,o),
(462,38,o),
(345,38,cs)
);
}
);
userData = {
com.hugojourdan.ColorFlow = {
"0" = 0;
"1" = 0;
"10" = 0;
"11" = 0;
"2" = 0;
"3" = 0;
"4" = 0;
"5" = 0;
"6" = 0;
"7" = 0;
"8" = 0;
"9" = 0;
};
};
width = 690;
},
{
anchors = (
{
name = center;
pos = (342,350);
},
{
name = top;
pos = (342,700);
}
);
layerId = m004;
metricLeft = "=H*0.74";
shapes = (
{
closed = 1;
nodes = (
(513,-10,o),
(609,119,o),
(609,350,cs),
(609,581,o),
(513,710,o),
(342,710,cs),
(171,710,o),
(75,581,o),
(75,350,cs),
(75,119,o),
(171,-10,o),
(342,-10,cs)
);
},
{
closed = 1;
nodes = (
(205,33,o),
(128,148,o),
(128,350,cs),
(128,552,o),
(205,667,o),
(342,667,cs),
(479,667,o),
(556,552,o),
(556,350,cs),
(556,148,o),
(479,33,o),
(342,33,cs)
);
}
);
userData = {
com.hugojourdan.ColorFlow = {
"0" = 0;
"1" = 0;
"10" = 0;
"11" = 0;
"2" = 0;
"3" = 0;
"4" = 0;
"5" = 0;
"6" = 0;
"7" = 0;
"8" = 0;
"9" = 0;
};
};
width = 684;
},
{
anchors = (
{
name = center;
pos = (345,350);
},
{
name = top;
pos = (345,700);
}
);
layerId = m005;
metricLeft = "=H*0.74";
shapes = (
{
closed = 1;
nodes = (
(527,-10,o),
(625,116,o),
(625,350,cs),
(625,585,o),
(527,710,o),
(345,710,cs),
(161,710,o),
(65,585,o),
(65,350,cs),
(65,115,o),
(162,-10,o),
(345,-10,cs)
);
},
{
closed = 1;
nodes = (
(231,75,o),
(170,171,o),
(170,350,cs),
(170,530,o),
(231,626,o),
(345,626,cs),
(458,626,o),
(520,530,o),
(520,350,cs),
(520,171,o),
(458,75,o),
(345,75,cs)
);
}
);
userData = {
com.hugojourdan.ColorFlow = {
"0" = 0;
"1" = 0;
"10" = 0;
"11" = 0;
"2" = 0;
"3" = 0;
"4" = 0;
"5" = 0;
"6" = 0;
"7" = 0;
"8" = 0;
"9" = 0;
};
};
width = 690;
},
{
anchors = (
{
name = center;
pos = (345,350);
},
{
name = top;
pos = (345,700);
}
);
layerId = m006;
metricLeft = "=H*0.84";
shapes = (
{
closed = 1;
nodes = (
(545,-10,o),
(643,110,o),
(643,351,cs),
(643,592,o),
(545,710,o),
(345,710,cs),
(145,710,o),
(45,591,o),
(45,351,cs),
(45,111,o),
(145,-10,o),
(345,-10,cs)
);
},
{
closed = 1;
nodes = (
(270,138,o),
(233,209,o),
(233,351,cs),
(233,493,o),
(270,562,o),
(345,562,cs),
(419,562,o),
(455,493,o),
(455,351,cs),
(455,207,o),
(419,138,o),
(345,138,cs)
);
}
);
userData = {
com.hugojourdan.ColorFlow = {
"0" = 0;
"1" = 0;
"10" = 0;
"11" = 0;
"2" = 0;
"3" = 0;
"4" = 0;
"5" = 0;
"6" = 0;
"7" = 0;
"8" = 0;
"9" = 0;
};
};
width = 688;
},
{
anchors = (
{
name = center;
pos = (360,350);
},
{
name = top;
pos = (419,700);
}
);
background = {
shapes = (
{
closed = 1;
nodes = (
(482,-10,o),
(588,110,o),
(624,328,cs),
(631,368,o),
(634,405,o),
(634,439,cs),
(634,612,o),
(550,710,o),
(394,710,cs),
(239,710,o),
(133,590,o),
(97,372,cs),
(90,332,o),
(87,295,o),
(87,261,cs),
(87,88,o),
(171,-10,o),
(326,-10,cs)
);
},
{
closed = 1;
nodes = (
(204,33,o),
(140,116,o),
(140,263,cs),
(140,295,o),
(143,330,o),
(149,368,cs),
(180,560,o),
(268,667,o),
(393,667,cs),
(517,667,o),
(581,582,o),
(581,436,cs),
(581,404,o),
(578,369,o),
(572,332,cs),
(541,140,o),
(452,33,o),
(327,33,cs)
);
}
);
};
guides = (
{
angle = 80.5;
pos = (75,239);
},
{
angle = 80.5;
pos = (609,239);
},
{
angle = 80.5;
pos = (128,239);
},
{
angle = 80.5;
pos = (556,239);
}
);
layerId = "4E5694F4-F64E-4331-B998-78BE273203C7";
metricLeft = "=H*0.74";
shapes = (
{
closed = 1;
nodes = (
(563,-10,o),
(633,271,o),
(633,439,cs),
(633,612,o),
(550,710,o),
(394,710,cs),
(158,710,o),
(88,429,o),
(88,261,cs),
(88,88,o),
(171,-10,o),
(327,-10,cs)
);
},
{
closed = 1;
nodes = (
(204,33,o),
(141,116,o),
(141,263,cs),
(141,410,o),
(198,667,o),
(393,667,cs),
(517,667,o),
(580,584,o),
(580,437,cs),
(580,292,o),
(523,33,o),
(328,33,cs)
);
}
);
userData = {
com.hugojourdan.ColorFlow = {
"0" = 0;
"1" = 0;
"10" = 0;
"11" = 0;
"2" = 0;
"3" = 0;
"4" = 0;
"5" = 0;
"6" = 0;
"7" = 0;
"8" = 0;
"9" = 0;
};
};
width = 684;
},
{
anchors = (
{
name = center;
pos = (363,350);
},
{
name = top;
pos = (422,700);
}
);
background = {
shapes = (
{
closed = 1;
nodes = (
(313,-10,o),
(323,-10,o),
(333,-10,cs),
(497,-10,o),
(604,107,o),
(640,327,cs),
(647,367,o),
(650,404,o),
(650,438,cs),
(650,603,o),
(572,697,o),
(423,709,cs),
(413,710,o),
(402,710,o),
(392,710,cs),
(227,710,o),
(122,594,o),
(86,373,cs),
(80,333,o),
(76,296,o),
(76,262,cs),
(76,97,o),
(153,3,o),
(303,-9,cs)
);
},
{
closed = 1;
nodes = (
(233,75,o),
(181,142,o),
(181,266,cs),
(181,295,o),
(184,328,o),
(190,364,cs),
(219,536,o),
(289,626,o),
(394,626,cs),
(491,626,o),
(544,559,o),
(544,434,cs),
(544,405,o),
(541,372,o),
(535,336,cs),
(507,165,o),
(436,75,o),
(332,75,cs)
);
}
);
};
guides = (
{
angle = 80.5;
pos = (65,245);
},
{
angle = 80.5;
pos = (625,245);
},
{
angle = 80.5;
pos = (170,245);
},
{
angle = 80.5;
pos = (520,245);
}
);
layerId = "DF4E5521-40BA-460F-874A-364F4D14AAD8";
metricLeft = "=H*0.74";
shapes = (
{
closed = 1;
nodes = (
(581,-10,o),
(648,269,o),
(648,438,cs),
(648,615,o),
(561,710,o),
(393,710,cs),
(139,710,o),
(78,421,o),
(78,262,cs),
(78,82,o),
(170,-10,o),
(333,-10,cs)
);
},
{
closed = 1;
nodes = (
(233,74,o),
(181,141,o),
(181,266,cs),
(181,388,o),
(228,626,o),
(394,626,cs),
(492,626,o),
(545,559,o),
(545,434,cs),
(545,312,o),
(499,74,o),
(332,74,cs)
);
}
);
userData = {
com.hugojourdan.ColorFlow = {
"0" = 0;
"1" = 0;
"10" = 0;
"11" = 0;
"2" = 0;
"3" = 0;
"4" = 0;
"5" = 0;
"6" = 0;
"7" = 0;
"8" = 0;
"9" = 0;
};
};
width = 690;
},
{
anchors = (
{
name = center;
pos = (361,350);
},
{
name = top;
pos = (420,700);
}
);
background = {
shapes = (
{
closed = 1;
nodes = (
(178,-10,o),
(338,-10,cs),
(513,-10,o),
(619,102,o),
(656,326,cs),
(663,367,o),
(666,405,o),
(666,439,cs),
(666,638,o),
(545,710,o),
(385,710,cs),
(209,710,o),
(103,599,o),
(66,376,cs),
(59,336,o),
(56,299,o),
(56,265,cs),
(56,65,o)
);
},
{
closed = 1;
nodes = (
(274,138,o),
(243,182,o),
(243,270,cs),
(243,297,o),
(245,326,o),
(251,360,cs),
(274,497,o),
(319,562,o),
(389,562,cs),
(449,562,o),
(479,520,o),
(479,433,cs),
(479,407,o),
(477,376,o),
(471,342,cs),
(448,203,o),
(404,138,o),
(336,138,cs)
);
}
);
};
guides = (
{
angle = 80.5;
pos = (45,251);
},
{
angle = 80.5;
pos = (643,251);
},
{
angle = 80.5;
pos = (233,251);
},
{
angle = 80.5;
pos = (455,251);
}
);
layerId = "C6DE9ED7-34B3-46A1-8A00-A72C4A5E93A3";
metricLeft = "=H*0.84";
shapes = (
{
closed = 1;
nodes = (
(609,-10,o),
(664,277,o),
(664,435,cs),
(664,635,o),
(551,710,o),
(383,710,cs),
(112,710,o),
(57,423,o),
(57,265,cs),
(57,65,o),
(174,-10,o),
(338,-10,cs)
);
},
{
closed = 1;
nodes = (
(274,138,o),
(243,182,o),
(243,270,cs),
(243,356,o),
(271,562,o),
(386,562,cs),
(448,562,o),
(478,518,o),
(478,430,cs),
(478,344,o),
(451,138,o),
(336,138,cs)
);
}
);
userData = {
com.hugojourdan.ColorFlow = {
"0" = 0;
"1" = 0;
"10" = 0;
"11" = 0;
"2" = 0;
"3" = 0;
"4" = 0;
"5" = 0;
"6" = 0;
"7" = 0;
"8" = 0;
"9" = 0;
};
};
width = 688;
},
{
anchors = (
{
name = center;
pos = (361,350);
},
{
name = top;
pos = (417,700);
}
);
layerId = "D2741A44-CB8E-4434-9CC9-735A9A127F4C";
metricLeft = "=H*0.74";
shapes = (
{
closed = 1;
nodes = (
(562,-10,o),
(634,263,o),
(634,434,cs),
(634,610,o),
(550,710,o),
(393,710,cs),
(161,710,o),
(89,437,o),
(89,266,cs),
(89,90,o),
(173,-10,o),
(330,-10,cs)
);
},
{
closed = 1;
nodes = (
(206,22,o),
(142,110,o),
(142,268,cs),
(142,425,o),
(200,678,o),
(392,678,cs),
(517,678,o),
(581,590,o),
(581,432,cs),
(581,276,o),
(523,22,o),
(331,22,cs)
);
}
);
userData = {
com.hugojourdan.ColorFlow = {
"0" = 0;
"1" = 0;
"10" = 0;
"11" = 0;
"2" = 0;
"3" = 0;
"4" = 0;
"5" = 0;
"6" = 0;
"7" = 0;
"8" = 0;
"9" = 0;
};
};
width = 686;
},
{
anchors = (
{
name = center;
pos = (361,350);
},
{
name = top;
pos = (420,700);
}
);
layerId = "0B63B416-D10E-4459-8DAA-360BF3D1BFD2";
metricLeft = "=H*0.74";
shapes = (
{
closed = 1;
nodes = (
(577,-10,o),
(646,265,o),
(646,439,cs),
(646,615,o),
(562,710,o),
(396,710,cs),
(148,710,o),
(77,434,o),
(77,262,cs),
(77,87,o),
(164,-10,o),
(330,-10,cs)
);
},
{
closed = 1;
nodes = (
(233,49,o),
(182,128,o),
(182,263,cs),
(182,397,o),
(227,651,o),
(395,651,cs),
(491,651,o),
(541,573,o),
(541,436,cs),
(541,302,o),
(498,49,o),
(330,49,cs)
);
}
);
userData = {
com.hugojourdan.ColorFlow = {
"0" = 0;
"1" = 0;
"10" = 0;
"11" = 0;
"2" = 0;
"3" = 0;
"4" = 0;
"5" = 0;
"6" = 0;
"7" = 0;
"8" = 0;
"9" = 0;
};
};
width = 688;
},
{
anchors = (
{
name = center;
pos = (360,350);
},
{
name = top;
pos = (419,700);
}
);
layerId = "EE3858F4-A475-4EBA-A8F4-31CE9F38567C";
metricLeft = "=H*0.84";
shapes = (
{
closed = 1;
nodes = (
(597,-10,o),
(663,256,o),
(663,439,cs),
(663,620,o),
(578,710,o),
(397,710,cs),
(129,710,o),
(57,442,o),
(57,263,cs),
(57,84,o),
(150,-10,o),
(331,-10,cs)
);
},
{
closed = 1;
nodes = (
(275,91,o),
(245,157,o),
(245,262,cs),
(245,366,o),
(270,609,o),
(396,609,cs),
(448,609,o),
(476,545,o),
(476,435,cs),
(476,330,o),
(456,91,o),
(330,91,cs)
);
}
);
userData = {
com.hugojourdan.ColorFlow = {
"0" = 0;
"1" = 0;
"10" = 0;
"11" = 0;
"2" = 0;
"3" = 0;
"4" = 0;
"5" = 0;
"6" = 0;
"7" = 0;
"8" = 0;
"9" = 0;
};
};
width = 687;
}
);
metricRight = "=|";
note = O;
unicode = 79;
userData = {
KernOnName = O;
};
},
{
glyphname = OE;
layers = (
{
layerId = m01;
shapes = (
{
closed = 1;
nodes = (
(508,-10,o),
(604,119,o),
(604,350,cs),
(604,581,o),
(510,710,o),
(342,710,cs),
(171,710,o),
(75,581,o),
(75,350,cs),
(75,119,o),
(170,-10,o),
(337,-10,cs)
);
},
{
closed = 1;
nodes = (
(205,22,o),
(128,140,o),
(128,350,cs),
(128,560,o),
(205,678,o),
(342,678,cs),
(479,678,o),
(556,560,o),
(556,350,cs),
(556,140,o),
(479,22,o),
(342,22,cs)
);
},
{
closed = 1;
nodes = (
(937,0,l),
(937,32,l),
(580,32,l),
(604,8,l),
(604,692,l),
(580,668,l),
(924,668,l),
(924,700,l),
(556,700,l),
(556,0,l)
);
},
{
closed = 1;
nodes = (
(904,348,l),
(904,378,l),
(580,378,l),
(580,348,l)
);
}
);
userData = {
com.hugojourdan.ColorFlow = {
"0" = 0;
"1" = 0;
"10" = 0;
"11" = 0;
"2" = 0;
"3" = 0;
"4" = 0;
"5" = 0;
"6" = 0;
"7" = 0;
"8" = 0;
"9" = 0;
};
};
width = 984;
},
{
layerId = "BF6BA5B2-0556-42F4-A103-614BEBF16A1A";
shapes = (
{
closed = 1;
nodes = (
(512,-10,o),
(605,116,o),
(605,350,cs),
(605,587,o),
(514,710,o),
(340,710,cs),
(164,710,o),
(65,581,o),
(65,350,cs),
(65,114,o),
(160,-10,o),
(340,-10,cs)
);
},
{
closed = 1;
nodes = (
(227,41,o),
(170,141,o),
(170,351,cs),
(170,560,o),
(227,659,o),
(346,659,cs),
(464,659,o),
(522,558,o),
(522,351,cs),
(522,143,o),
(464,41,o),
(346,41,cs)
);
},
{
closed = 1;
nodes = (
(925,0,l),
(925,52,l),
(580,52,l),
(619,13,l),
(619,687,l),
(580,648,l),
(913,648,l),
(913,700,l),
(522,700,l),
(522,0,l)
);
},
{
closed = 1;
nodes = (
(892,339,l),
(892,387,l),
(570,387,l),
(570,339,l)
);
}
);
userData = {
com.hugojourdan.ColorFlow = {
"0" = 0;
"1" = 0;
"10" = 0;
"11" = 0;
"2" = 0;
"3" = 0;
"4" = 0;
"5" = 0;
"6" = 0;
"7" = 0;
"8" = 0;
"9" = 0;
};
};
width = 965;
},
{
layerId = "FF73925E-1E34-445B-881D-5A7CAAA8E8BE";
shapes = (
{
closed = 1;
nodes = (
(464,-10,o),
(553,125,o),
(553,350,cs),
(553,576,o),
(464,710,o),
(315,710,cs),
(139,710,o),
(45,585,o),
(45,350,cs),
(45,116,o),
(140,-10,o),
(315,-10,cs)
);
},
{
closed = 1;
nodes = (
(270,84,o),
(233,172,o),
(233,350,cs),
(233,528,o),
(270,616,o),
(345,616,cs),
(419,616,o),
(455,529,o),
(455,350,cs),
(455,172,o),
(419,84,o),
(345,84,cs)
);
},
{
closed = 1;
nodes = (
(896,0,l),
(896,90,l),
(588,90,l),
(633,45,l),
(633,655,l),
(588,610,l),
(886,610,l),
(886,700,l),
(455,700,l),
(455,0,l)
);
},
{
closed = 1;
nodes = (
(863,323,l),
(863,403,l),
(544,403,l),
(544,323,l)
);
}
);
userData = {
com.hugojourdan.ColorFlow = {
"0" = 0;
"1" = 0;
"10" = 0;
"11" = 0;
"2" = 0;
"3" = 0;
"4" = 0;
"5" = 0;
"6" = 0;
"7" = 0;
"8" = 0;
"9" = 0;
};
};
width = 921;
},
{
layerId = m004;
shapes = (
{
closed = 1;
nodes = (
(510,-10,o),
(604,119,o),
(604,350,cs),
(604,581,o),
(510,710,o),
(342,710,cs),
(171,710,o),
(75,581,o),
(75,350,cs),
(75,119,o),
(171,-10,o),
(342,-10,cs)
);
},
{
closed = 1;
nodes = (
(205,34,o),
(128,148,o),
(128,350,cs),
(128,552,o),
(205,666,o),
(342,666,cs),
(479,666,o),
(556,552,o),
(556,350,cs),
(556,148,o),
(479,34,o),
(342,34,cs)
);
},
{
closed = 1;
nodes = (
(937,0,l),
(937,43,l),
(580,43,l),
(604,19,l),
(604,681,l),
(580,657,l),
(924,657,l),
(924,700,l),
(556,700,l),
(556,0,l)
);
},
{
closed = 1;
nodes = (
(904,342,l),
(904,384,l),
(580,384,l),
(580,342,l)
);
}
);
userData = {
com.hugojourdan.ColorFlow = {
"0" = 0;
"1" = 0;
"10" = 0;
"11" = 0;
"2" = 0;
"3" = 0;
"4" = 0;
"5" = 0;
"6" = 0;
"7" = 0;
"8" = 0;
"9" = 0;
};
};
width = 984;
},
{
layerId = m005;
shapes = (
{
closed = 1;
nodes = (
(512,-10,o),
(603,114,o),
(603,350,cs),
(603,586,o),
(512,710,o),
(339,710,cs),
(162,710,o),
(65,584,o),
(65,350,cs),
(65,117,o),
(162,-10,o),
(339,-10,cs)
);
},
{
closed = 1;
nodes = (
(232,75,o),
(170,172,o),
(170,350,cs),
(170,528,o),
(232,625,o),
(344,625,cs),
(456,625,o),
(517,529,o),
(517,350,cs),
(517,171,o),
(456,75,o),
(344,75,cs)
);
},
{
closed = 1;
nodes = (
(925,0,l),
(925,77,l),
(575,77,l),
(615,38,l),
(615,662,l),
(575,623,l),
(913,623,l),
(913,700,l),
(517,700,l),
(517,0,l)
);
},
{
closed = 1;
nodes = (
(890,326,l),
(890,400,l),
(565,400,l),
(565,326,l)
);
}
);
userData = {
com.hugojourdan.ColorFlow = {
"0" = 0;
"1" = 0;
"10" = 0;
"11" = 0;
"2" = 0;
"3" = 0;
"4" = 0;
"5" = 0;
"6" = 0;
"7" = 0;
"8" = 0;
"9" = 0;
};
};
width = 965;
},
{
layerId = m006;
shapes = (
{
closed = 1;
nodes = (
(480,-10,o),
(553,104,o),
(553,351,cs),
(553,597,o),
(480,710,o),
(321,710,cs),
(141,710,o),
(45,586,o),
(45,351,cs),
(45,115,o),
(141,-10,o),
(321,-10,cs)
);
},
{
closed = 1;
nodes = (
(270,143,o),
(233,212,o),
(233,351,cs),
(233,489,o),
(270,557,o),
(345,557,cs),
(419,557,o),
(455,490,o),
(455,351,cs),
(455,211,o),
(419,143,o),
(345,143,cs)
);
},
{
closed = 1;
nodes = (
(906,0,l),
(906,136,l),
(588,136,l),
(633,91,l),
(633,609,l),
(588,564,l),
(896,564,l),
(896,700,l),
(455,700,l),
(455,0,l)
);
},
{
closed = 1;
nodes = (
(873,298,l),
(873,428,l),
(544,428,l),
(544,298,l)
);
}
);
userData = {
com.hugojourdan.ColorFlow = {
"0" = 0;
"1" = 0;
"10" = 0;
"11" = 0;
"2" = 0;
"3" = 0;
"4" = 0;
"5" = 0;
"6" = 0;
"7" = 0;
"8" = 0;
"9" = 0;
};
};
width = 931;
},
{
layerId = "4E5694F4-F64E-4331-B998-78BE273203C7";
shapes = (
{
closed = 1;
nodes = (
(558,-10,o),
(627,271,o),
(627,439,cs),
(627,612,o),
(546,710,o),
(394,710,cs),
(158,710,o),
(88,429,o),
(88,261,cs),
(88,88,o),
(171,-10,o),
(327,-10,cs)
);
},
{
closed = 1;
nodes = (
(204,33,o),
(141,116,o),
(141,263,cs),
(141,410,o),
(198,667,o),
(393,667,cs),
(517,667,o),
(580,584,o),
(580,437,cs),
(580,292,o),
(523,33,o),
(328,33,cs)
);
},
{
closed = 1;
nodes = (
(897,0,l),
(904,42,l),
(557,42,l),
(569,30,l),
(677,676,l),
(659,658,l),
(994,658,l),
(1001,700,l),
(633,700,l),
(516,0,l)
);
},
{
closed = 1;
nodes = (
(921,342,l),
(928,384,l),
(607,384,l),
(601,342,l)
);
}
);
userData = {
com.hugojourdan.ColorFlow = {
"0" = 0;
"1" = 0;
"10" = 0;
"11" = 0;
"2" = 0;
"3" = 0;
"4" = 0;
"5" = 0;
"6" = 0;
"7" = 0;
"8" = 0;
"9" = 0;
};
};
width = 984;
},
{
layerId = "DF4E5521-40BA-460F-874A-364F4D14AAD8";
shapes = (
{
closed = 1;
nodes = (
(564,-10,o),
(627,269,o),
(627,438,cs),
(627,615,o),
(546,710,o),
(385,710,cs),
(140,710,o),
(78,421,o),
(78,262,cs),
(78,82,o),
(170,-10,o),
(325,-10,cs)
);
},
{
closed = 1;
nodes = (
(232,74,o),
(181,141,o),
(181,266,cs),
(181,388,o),
(228,626,o),
(392,626,cs),
(489,626,o),
(541,559,o),
(541,434,cs),
(541,312,o),
(495,74,o),
(330,74,cs)
);
},
{
closed = 1;
nodes = (
(885,0,l),
(898,78,l),
(558,78,l),
(583,48,l),
(684,652,l),
(649,622,l),
(976,622,l),
(989,700,l),
(594,700,l),
(477,0,l)
);
},
{
closed = 1;
nodes = (
(903,326,l),
(917,400,l),
(592,400,l),
(580,326,l)
);
}
);
userData = {
com.hugojourdan.ColorFlow = {
"0" = 0;
"1" = 0;
"10" = 0;
"11" = 0;
"2" = 0;
"3" = 0;
"4" = 0;
"5" = 0;
"6" = 0;
"7" = 0;
"8" = 0;
"9" = 0;
};
};
width = 966;
},
{
layerId = "C6DE9ED7-34B3-46A1-8A00-A72C4A5E93A3";
shapes = (
{
closed = 1;
nodes = (
(533,-10,o),
(573,277,o),
(573,435,cs),
(573,635,o),
(496,710,o),
(366,710,cs),
(113,710,o),
(58,423,o),
(58,265,cs),
(58,65,o),
(175,-10,o),
(296,-10,cs)
);
},
{
closed = 1;
nodes = (
(275,138,o),
(244,182,o),
(244,270,cs),
(244,356,o),
(272,562,o),
(386,562,cs),
(447,562,o),
(477,518,o),
(477,430,cs),
(477,344,o),
(450,138,o),
(336,138,cs)
);
},
{
closed = 1;
nodes = (
(864,0,l),
(887,137,l),
(569,137,l),
(606,90,l),
(693,610,l),
(640,563,l),
(948,563,l),
(971,700,l),
(530,700,l),
(413,0,l)
);
},
{
closed = 1;
nodes = (
(881,298,l),
(903,428,l),
(574,428,l),
(552,298,l)
);
}
);
userData = {
com.hugojourdan.ColorFlow = {
"0" = 0;
"1" = 0;
"10" = 0;
"11" = 0;
"2" = 0;
"3" = 0;
"4" = 0;
"5" = 0;
"6" = 0;
"7" = 0;
"8" = 0;
"9" = 0;
};
};
width = 931;
},
{
layerId = "D2741A44-CB8E-4434-9CC9-735A9A127F4C";
shapes = (
{
closed = 1;
nodes = (
(555,-10,o),
(628,263,o),
(628,434,cs),
(628,610,o),
(546,710,o),
(393,710,cs),
(161,710,o),
(89,437,o),
(89,266,cs),
(89,90,o),
(172,-10,o),
(325,-10,cs)
);
},
{
closed = 1;
nodes = (
(206,21,o),
(142,110,o),
(142,268,cs),
(142,425,o),
(200,679,o),
(392,679,cs),
(517,679,o),
(581,590,o),
(581,432,cs),
(581,276,o),
(523,21,o),
(331,21,cs)
);
},
{
closed = 1;
nodes = (
(901,0,l),
(908,31,l),
(560,31,l),
(573,18,l),
(675,687,l),
(657,669,l),
(992,669,l),
(999,700,l),
(631,700,l),
(520,0,l)
);
},
{
closed = 1;
nodes = (
(922,348,l),
(929,378,l),
(608,378,l),
(602,348,l)
);
}
);
userData = {
com.hugojourdan.ColorFlow = {
"0" = 0;
"1" = 0;
"10" = 0;
"11" = 0;
"2" = 0;
"3" = 0;
"4" = 0;
"5" = 0;
"6" = 0;
"7" = 0;
"8" = 0;
"9" = 0;
};
};
width = 990;
},
{
layerId = "0B63B416-D10E-4459-8DAA-360BF3D1BFD2";
shapes = (
{
closed = 1;
nodes = (
(526,-10,o),
(596,277,o),
(596,439,cs),
(596,604,o),
(515,710,o),
(380,710,cs),
(145,710,o),
(78,432,o),
(78,261,cs),
(78,90,o),
(160,-10,o),
(308,-10,cs)
);
},
{
closed = 1;
nodes = (
(234,49,o),
(183,129,o),
(183,263,cs),
(183,396,o),
(228,651,o),
(395,651,cs),
(491,651,o),
(541,572,o),
(541,436,cs),
(541,303,o),
(497,49,o),
(330,49,cs)
);
},
{
closed = 1;
nodes = (
(881,0,l),
(889,55,l),
(565,55,l),
(581,40,l),
(688,666,l),
(668,645,l),
(979,645,l),
(987,700,l),
(593,700,l),
(476,0,l)
);
},
{
closed = 1;
nodes = (
(905,338,l),
(913,388,l),
(594,388,l),
(587,338,l)
);
}
);
userData = {
com.hugojourdan.ColorFlow = {
"0" = 0;
"1" = 0;
"10" = 0;
"11" = 0;
"2" = 0;
"3" = 0;
"4" = 0;
"5" = 0;
"6" = 0;
"7" = 0;
"8" = 0;
"9" = 0;
};
};
width = 962;
},
{
layerId = "EE3858F4-A475-4EBA-A8F4-31CE9F38567C";
shapes = (
{
closed = 1;
nodes = (
(478,-10,o),
(545,286,o),
(545,439,cs),
(545,593,o),
(465,710,o),
(355,710,cs),
(120,710,o),
(58,436,o),
(58,261,cs),
(58,92,o),
(140,-10,o),
(282,-10,cs)
);
},
{
closed = 1;
nodes = (
(276,93,o),
(246,160,o),
(246,262,cs),
(246,364,o),
(271,607,o),
(394,607,cs),
(446,607,o),
(475,542,o),
(475,435,cs),
(475,332,o),
(452,93,o),
(328,93,cs)
);
},
{
closed = 1;
nodes = (
(852,0,l),
(861,93,l),
(573,93,l),
(595,73,l),
(702,634,l),
(677,607,l),
(952,607,l),
(960,700,l),
(526,700,l),
(409,0,l)
);
},
{
closed = 1;
nodes = (
(876,322,l),
(885,404,l),
(568,404,l),
(561,322,l)
);
}
);
userData = {
com.hugojourdan.ColorFlow = {
"0" = 0;
"1" = 0;
"10" = 0;
"11" = 0;
"2" = 0;
"3" = 0;
"4" = 0;
"5" = 0;
"6" = 0;
"7" = 0;
"8" = 0;
"9" = 0;
};
};
width = 919;
}
);
metricLeft = "=O";
metricRight = "=E";
unicode = 338;
},
{
glyphname = P;
layers = (
{
layerId = m01;
shapes = (
{
closed = 1;
nodes = (
(150,0,l),
(150,692,l),
(126,668,l),
(254,668,ls),
(396,668,o),
(476,607,o),
(476,497,cs),
(476,387,o),
(396,325,o),
(254,325,cs),
(126,325,l),
(126,293,l),
(256,293,ls),
(430,293,o),
(528,366,o),
(528,497,cs),
(528,627,o),
(430,700,o),
(256,700,cs),
(102,700,l),
(102,0,l)
);
}
);
userData = {
com.hugojourdan.ColorFlow = {
"0" = 0;
"1" = 0;
"10" = 0;
"11" = 0;
"2" = 0;
"3" = 0;
"4" = 0;
"5" = 0;
"6" = 0;
"7" = 0;
"8" = 0;
"9" = 0;
};
};
width = 603;
},
{
layerId = "FF73925E-1E34-445B-881D-5A7CAAA8E8BE";
shapes = (
{
closed = 1;
nodes = (
(231,0,l),
(231,655,l),
(186,610,l),
(273,610,ls),
(362,610,o),
(411,564,o),
(411,481,cs),
(411,398,o),
(362,352,o),
(273,352,cs),
(143,352,l),
(143,263,l),
(283,263,ls),
(484,263,o),
(597,342,o),
(597,482,cs),
(597,622,o),
(484,700,o),
(283,700,cs),
(54,700,l),
(54,0,l)
);
}
);
userData = {
com.hugojourdan.ColorFlow = {
"0" = 0;
"1" = 0;
"10" = 0;
"11" = 0;
"2" = 0;
"3" = 0;
"4" = 0;
"5" = 0;
"6" = 0;
"7" = 0;
"8" = 0;
"9" = 0;
};
};
width = 642;
},
{
layerId = "BF6BA5B2-0556-42F4-A103-614BEBF16A1A";
shapes = (
{
closed = 1;
nodes = (
(186,0,l),
(186,688,l),
(150,652,l),
(276,652,ls),
(390,652,o),
(458,593,o),
(458,491,cs),
(458,388,o),
(391,329,o),
(276,329,cs),
(137,329,l),
(137,281,l),
(281,281,ls),
(461,281,o),
(563,357,o),
(563,491,cs),
(563,624,o),
(461,700,o),
(281,700,cs),
(88,700,l),
(88,0,l)
);
}
);
userData = {
com.hugojourdan.ColorFlow = {
"0" = 0;
"1" = 0;
"10" = 0;
"11" = 0;
"2" = 0;
"3" = 0;
"4" = 0;
"5" = 0;
"6" = 0;
"7" = 0;
"8" = 0;
"9" = 0;
};
};
width = 628;
},
{
layerId = m004;
shapes = (
{
closed = 1;
nodes = (
(150,0,l),
(150,681,l),
(126,658,l),
(254,658,ls),
(396,658,o),
(476,600,o),
(476,497,cs),
(476,393,o),
(396,335,o),
(254,335,cs),
(126,335,l),
(126,293,l),
(256,293,ls),
(430,293,o),
(528,366,o),
(528,497,cs),
(528,627,o),
(430,700,o),
(256,700,cs),
(102,700,l),
(102,0,l)
);
}
);
userData = {
com.hugojourdan.ColorFlow = {
"0" = 0;
"1" = 0;
"10" = 0;
"11" = 0;
"2" = 0;
"3" = 0;
"4" = 0;
"5" = 0;
"6" = 0;
"7" = 0;
"8" = 0;
"9" = 0;
};
};
width = 603;
},
{
layerId = m005;
shapes = (
{
closed = 1;
nodes = (
(186,0,l),
(186,652,l),
(156,622,l),
(282,622,ls),
(400,622,o),
(458,579,o),
(458,491,cs),
(458,402,o),
(401,359,o),
(282,359,cs),
(137,359,l),
(137,281,l),
(279,281,ls),
(463,281,o),
(563,355,o),
(563,491,cs),
(563,627,o),
(463,700,o),
(279,700,cs),
(88,700,l),
(88,0,l)
);
}
);
userData = {
com.hugojourdan.ColorFlow = {
"0" = 0;
"1" = 0;
"10" = 0;
"11" = 0;
"2" = 0;
"3" = 0;
"4" = 0;
"5" = 0;
"6" = 0;
"7" = 0;
"8" = 0;
"9" = 0;
};
};
width = 628;
},
{
layerId = m006;
shapes = (
{
closed = 1;
nodes = (
(231,0,l),
(231,610,l),
(185,564,l),
(313,564,ls),
(379,564,o),
(411,537,o),
(411,481,cs),
(411,425,o),
(379,398,o),
(313,398,cs),
(215,398,l),
(215,263,l),
(303,263,ls),
(498,263,o),
(597,337,o),
(597,482,cs),
(597,627,o),
(498,700,o),
(303,700,cs),
(54,700,l),
(54,0,l)
);
}
);
userData = {
com.hugojourdan.ColorFlow = {
"0" = 0;
"1" = 0;
"10" = 0;
"11" = 0;
"2" = 0;
"3" = 0;
"4" = 0;
"5" = 0;
"6" = 0;
"7" = 0;
"8" = 0;
"9" = 0;
};
};
width = 642;
},
{
background = {
shapes = (
{
closed = 1;
nodes = (
(110,0,l),
(223,676,l),
(205,658,l),
(297,658,ls),
(463,658,o),
(523,603,o),
(523,521,cs),
(523,428,o),
(435,370,o),
(311,370,cs),
(150,370,l),
(143,328,l),
(313,328,ls),
(474,328,o),
(573,406,o),
(573,523,cs),
(573,631,o),
(495,700,o),
(305,700,cs),
(179,700,l),
(62,0,l)
);
}
);
};
layerId = "4E5694F4-F64E-4331-B998-78BE273203C7";
shapes = (
{
closed = 1;
nodes = (
(110,0,l),
(223,676,l),
(205,658,l),
(293,658,ls),
(459,658,o),
(519,596,o),
(519,504,cs),
(519,400,o),
(431,335,o),
(307,335,cs),
(146,335,l),
(139,293,l),
(309,293,ls),
(470,293,o),
(569,378,o),
(569,506,cs),
(569,624,o),
(495,700,o),
(301,700,cs),
(179,700,l),
(62,0,l)
);
}
);
userData = {
com.hugojourdan.ColorFlow = {
"0" = 0;
"1" = 0;
"10" = 0;
"11" = 0;
"2" = 0;
"3" = 0;
"4" = 0;
"5" = 0;
"6" = 0;
"7" = 0;
"8" = 0;
"9" = 0;
};
};
width = 603;
},
{
background = {
shapes = (
{
closed = 0;
nodes = (
(603,511,ls),
(603,620,o),
(517,686,o),
(354,700,c)
);
},
{
closed = 0;
nodes = (
(345,622,l),
(448,613,o),
(500,575,o),
(500,508,cs)
);
}
);
};
guides = (
{
angle = 80.5069;
pos = (581,350);
},
{
angle = 80.5069;
pos = (476,350);
}
);
layerId = "DF4E5521-40BA-460F-874A-364F4D14AAD8";
shapes = (
{
closed = 1;
nodes = (
(145,0,l),
(254,652,l),
(219,622,l),
(321,622,ls),
(442,622,o),
(499,583,o),
(499,502,cs),
(499,419,o),
(437,359,o),
(336,359,cs),
(156,359,l),
(143,281,l),
(335,281,ls),
(503,281,o),
(603,371,o),
(603,503,cs),
(603,633,o),
(508,700,o),
(326,700,cs),
(164,700,l),
(47,0,l)
);
}
);
userData = {
com.hugojourdan.ColorFlow = {
"0" = 0;
"1" = 0;
"10" = 0;
"11" = 0;
"2" = 0;
"3" = 0;
"4" = 0;
"5" = 0;
"6" = 0;
"7" = 0;
"8" = 0;
"9" = 0;
};
};
width = 628;
},
{
guides = (
{
angle = 260.7443;
pos = (162,365);
},
{
angle = 260.7443;
pos = (616,365);
},
{
angle = 260.7443;
pos = (430,365);
}
);
layerId = "C6DE9ED7-34B3-46A1-8A00-A72C4A5E93A3";
shapes = (
{
closed = 1;
nodes = (
(190,0,l),
(292,610,l),
(239,564,l),
(362,564,ls),
(421,564,o),
(449,540,o),
(449,491,cs),
(449,434,o),
(412,398,o),
(354,398,cs),
(167,398,l),
(145,263,l),
(361,263,ls),
(534,263,o),
(634,355,o),
(634,496,cs),
(634,629,o),
(545,700,o),
(376,700,cs),
(129,700,l),
(12,0,l)
);
}
);
userData = {
com.hugojourdan.ColorFlow = {
"0" = 0;
"1" = 0;
"10" = 0;
"11" = 0;
"2" = 0;
"3" = 0;
"4" = 0;
"5" = 0;
"6" = 0;
"7" = 0;
"8" = 0;
"9" = 0;
};
};
width = 642;
},
{
layerId = "D2741A44-CB8E-4434-9CC9-735A9A127F4C";
shapes = (
{
closed = 1;
nodes = (
(116,0,l),
(223,687,l),
(205,668,l),
(295,668,ls),
(460,668,o),
(521,603,o),
(521,504,cs),
(521,394,o),
(433,325,o),
(308,325,cs),
(149,325,l),
(142,293,l),
(310,293,ls),
(472,293,o),
(571,377,o),
(571,506,cs),
(571,624,o),
(496,700,o),
(303,700,cs),
(179,700,l),
(68,0,l)
);
}
);
userData = {
com.hugojourdan.ColorFlow = {
"0" = 0;
"1" = 0;
"10" = 0;
"11" = 0;
"2" = 0;
"3" = 0;
"4" = 0;
"5" = 0;
"6" = 0;
"7" = 0;
"8" = 0;
"9" = 0;
};
};
width = 605;
},
{
layerId = "0B63B416-D10E-4459-8DAA-360BF3D1BFD2";
shapes = (
{
closed = 1;
nodes = (
(145,0,l),
(258,665,l),
(235,641,l),
(297,641,ls),
(448,641,o),
(496,584,o),
(496,498,cs),
(496,401,o),
(419,340,o),
(311,340,cs),
(156,340,l),
(149,282,l),
(316,282,ls),
(491,282,o),
(597,368,o),
(597,501,cs),
(597,623,o),
(516,700,o),
(308,700,cs),
(164,700,l),
(47,0,l)
);
}
);
userData = {
com.hugojourdan.ColorFlow = {
"0" = 0;
"1" = 0;
"10" = 0;
"11" = 0;
"2" = 0;
"3" = 0;
"4" = 0;
"5" = 0;
"6" = 0;
"7" = 0;
"8" = 0;
"9" = 0;
};
};
width = 622;
},
{
layerId = "EE3858F4-A475-4EBA-A8F4-31CE9F38567C";
shapes = (
{
closed = 1;
nodes = (
(189,0,l),
(302,632,l),
(270,599,l),
(293,599,ls),
(419,599,o),
(448,555,o),
(448,488,cs),
(448,411,o),
(389,363,o),
(308,363,cs),
(160,363,l),
(154,264,l),
(317,264,ls),
(513,264,o),
(630,353,o),
(630,492,cs),
(630,621,o),
(538,700,o),
(309,700,cs),
(129,700,l),
(12,0,l)
);
}
);
userData = {
com.hugojourdan.ColorFlow = {
"0" = 0;
"1" = 0;
"10" = 0;
"11" = 0;
"2" = 0;
"3" = 0;
"4" = 0;
"5" = 0;
"6" = 0;
"7" = 0;
"8" = 0;
"9" = 0;
};
};
width = 638;
}
);
metricLeft = "=H";
metricRight = "=O";
note = P;
unicode = 80;
},
{
glyphname = Thorn;
layers = (
{
layerId = m01;
shapes = (
{
closed = 1;
nodes = (
(256,147,ls),
(430,147,o),
(528,220,o),
(528,351,cs),
(528,481,o),
(430,554,o),
(256,554,cs),
(126,554,l),
(126,522,l),
(254,522,ls),
(396,522,o),
(476,461,o),
(476,351,cs),
(476,241,o),
(396,179,o),
(254,179,cs),
(126,179,l),
(126,147,l)
);
},
{
closed = 1;
nodes = (
(150,0,l),
(150,700,l),
(102,700,l),
(102,0,l)
);
}
);
userData = {
com.hugojourdan.ColorFlow = {
"0" = 0;
"1" = 0;
"10" = 0;
"11" = 0;
"2" = 0;
"3" = 0;
"4" = 0;
"5" = 0;
"6" = 0;
"7" = 0;
"8" = 0;
"9" = 0;
};
};
width = 603;
},
{
layerId = "BF6BA5B2-0556-42F4-A103-614BEBF16A1A";
shapes = (
{
closed = 1;
nodes = (
(281,141,ls),
(461,141,o),
(563,217,o),
(563,351,cs),
(563,484,o),
(461,560,o),
(281,560,cs),
(140,560,l),
(140,512,l),
(276,512,ls),
(390,512,o),
(458,453,o),
(458,351,cs),
(458,248,o),
(391,189,o),
(276,189,cs),
(140,189,l),
(140,141,l)
);
},
{
closed = 1;
nodes = (
(186,0,l),
(186,700,l),
(88,700,l),
(88,0,l)
);
}
);
userData = {
com.hugojourdan.ColorFlow = {
"0" = 0;
"1" = 0;
"10" = 0;
"11" = 0;
"2" = 0;
"3" = 0;
"4" = 0;
"5" = 0;
"6" = 0;
"7" = 0;
"8" = 0;
"9" = 0;
};
};
width = 628;
},
{
layerId = "FF73925E-1E34-445B-881D-5A7CAAA8E8BE";
shapes = (
{
closed = 1;
nodes = (
(283,132,ls),
(484,132,o),
(597,211,o),
(597,351,cs),
(597,491,o),
(484,569,o),
(283,569,cs),
(143,569,l),
(143,479,l),
(273,479,ls),
(362,479,o),
(411,433,o),
(411,350,cs),
(411,267,o),
(362,221,o),
(273,221,cs),
(143,221,l),
(143,132,l)
);
},
{
closed = 1;
nodes = (
(231,0,l),
(231,700,l),
(54,700,l),
(54,0,l)
);
}
);
userData = {
com.hugojourdan.ColorFlow = {
"0" = 0;
"1" = 0;
"10" = 0;
"11" = 0;
"2" = 0;
"3" = 0;
"4" = 0;
"5" = 0;
"6" = 0;
"7" = 0;
"8" = 0;
"9" = 0;
};
};
width = 642;
},
{
layerId = m004;
shapes = (
{
closed = 1;
nodes = (
(256,147,ls),
(430,147,o),
(528,220,o),
(528,351,cs),
(528,481,o),
(430,554,o),
(256,554,cs),
(126,554,l),
(126,512,l),
(254,512,ls),
(397,512,o),
(476,454,o),
(476,351,cs),
(476,247,o),
(396,189,o),
(254,189,cs),
(126,189,l),
(126,147,l)
);
},
{
closed = 1;
nodes = (
(150,0,l),
(150,700,l),
(102,700,l),
(102,0,l)
);
}
);
userData = {
com.hugojourdan.ColorFlow = {
"0" = 0;
"1" = 0;
"10" = 0;
"11" = 0;
"2" = 0;
"3" = 0;
"4" = 0;
"5" = 0;
"6" = 0;
"7" = 0;
"8" = 0;
"9" = 0;
};
};
width = 603;
},
{
layerId = m005;
shapes = (
{
closed = 1;
nodes = (
(281,141,ls),
(461,141,o),
(563,217,o),
(563,351,cs),
(563,484,o),
(461,560,o),
(281,560,cs),
(140,560,l),
(140,482,l),
(276,482,ls),
(390,482,o),
(458,434,o),
(458,351,cs),
(458,267,o),
(391,219,o),
(276,219,cs),
(140,219,l),
(140,141,l)
);
},
{
closed = 1;
nodes = (
(186,0,l),
(186,700,l),
(88,700,l),
(88,0,l)
);
}
);
userData = {
com.hugojourdan.ColorFlow = {
"0" = 0;
"1" = 0;
"10" = 0;
"11" = 0;
"2" = 0;
"3" = 0;
"4" = 0;
"5" = 0;
"6" = 0;
"7" = 0;
"8" = 0;
"9" = 0;
};
};
width = 628;
},
{
layerId = m006;
shapes = (
{
closed = 1;
nodes = (
(303,132,ls),
(505,132,o),
(597,211,o),
(597,351,cs),
(597,491,o),
(505,569,o),
(303,569,cs),
(215,569,l),
(215,433,l),
(313,433,ls),
(382,433,o),
(411,403,o),
(411,350,cs),
(411,297,o),
(382,267,o),
(313,267,cs),
(215,267,l),
(215,132,l)
);
},
{
closed = 1;
nodes = (
(231,0,l),
(231,700,l),
(54,700,l),
(54,0,l)
);
}
);
userData = {
com.hugojourdan.ColorFlow = {
"0" = 0;
"1" = 0;
"10" = 0;
"11" = 0;
"2" = 0;
"3" = 0;
"4" = 0;
"5" = 0;
"6" = 0;
"7" = 0;
"8" = 0;
"9" = 0;
};
};
width = 642;
},
{
guides = (
{
angle = 80.5;
pos = (102,239);
},
{
angle = 80.5;
pos = (528,239);
}
);
layerId = "4E5694F4-F64E-4331-B998-78BE273203C7";
shapes = (
{
closed = 1;
nodes = (
(285,147,ls),
(446,147,o),
(545,232,o),
(545,360,cs),
(545,478,o),
(471,554,o),
(277,554,cs),
(183,554,l),
(176,512,l),
(269,512,ls),
(435,512,o),
(495,450,o),
(495,358,cs),
(495,254,o),
(407,189,o),
(283,189,cs),
(122,189,l),
(115,147,l)
);
},
{
closed = 1;
nodes = (
(110,0,l),
(227,700,l),
(179,700,l),
(62,0,l)
);
}
);
userData = {
com.hugojourdan.ColorFlow = {
"0" = 0;
"1" = 0;
"10" = 0;
"11" = 0;
"2" = 0;
"3" = 0;
"4" = 0;
"5" = 0;
"6" = 0;
"7" = 0;
"8" = 0;
"9" = 0;
};
};
width = 603;
},
{
layerId = "DF4E5521-40BA-460F-874A-364F4D14AAD8";
shapes = (
{
closed = 1;
nodes = (
(313,141,ls),
(481,141,o),
(581,231,o),
(581,363,cs),
(581,493,o),
(486,560,o),
(304,560,cs),
(197,560,l),
(184,482,l),
(299,482,ls),
(420,482,o),
(477,443,o),
(477,362,cs),
(477,279,o),
(415,219,o),
(314,219,cs),
(134,219,l),
(121,141,l)
);
},
{
closed = 1;
nodes = (
(145,0,l),
(262,700,l),
(164,700,l),
(47,0,l)
);
}
);
userData = {
com.hugojourdan.ColorFlow = {
"0" = 0;
"1" = 0;
"10" = 0;
"11" = 0;
"2" = 0;
"3" = 0;
"4" = 0;
"5" = 0;
"6" = 0;
"7" = 0;
"8" = 0;
"9" = 0;
};
};
width = 630;
},
{
layerId = "C6DE9ED7-34B3-46A1-8A00-A72C4A5E93A3";
shapes = (
{
closed = 1;
nodes = (
(340,132,ls),
(513,132,o),
(613,224,o),
(613,365,cs),
(613,498,o),
(524,569,o),
(355,569,cs),
(195,569,l),
(173,433,l),
(341,433,ls),
(400,433,o),
(428,409,o),
(428,360,cs),
(428,303,o),
(391,267,o),
(333,267,cs),
(146,267,l),
(124,132,l)
);
},
{
closed = 1;
nodes = (
(190,0,l),
(307,700,l),
(129,700,l),
(12,0,l)
);
}
);
userData = {
com.hugojourdan.ColorFlow = {
"0" = 0;
"1" = 0;
"10" = 0;
"11" = 0;
"2" = 0;
"3" = 0;
"4" = 0;
"5" = 0;
"6" = 0;
"7" = 0;
"8" = 0;
"9" = 0;
};
};
width = 643;
},
{
layerId = "D2741A44-CB8E-4434-9CC9-735A9A127F4C";
shapes = (
{
closed = 1;
nodes = (
(287,147,ls),
(449,147,o),
(548,231,o),
(548,360,cs),
(548,478,o),
(473,554,o),
(280,554,cs),
(184,554,l),
(177,522,l),
(272,522,ls),
(436,522,o),
(498,457,o),
(498,358,cs),
(498,248,o),
(410,179,o),
(285,179,cs),
(126,179,l),
(120,147,l)
);
},
{
closed = 1;
nodes = (
(116,0,l),
(227,700,l),
(179,700,l),
(68,0,l)
);
}
);
userData = {
com.hugojourdan.ColorFlow = {
"0" = 0;
"1" = 0;
"10" = 0;
"11" = 0;
"2" = 0;
"3" = 0;
"4" = 0;
"5" = 0;
"6" = 0;
"7" = 0;
"8" = 0;
"9" = 0;
};
};
width = 606;
},
{
layerId = "0B63B416-D10E-4459-8DAA-360BF3D1BFD2";
shapes = (
{
closed = 1;
nodes = (
(291,141,ls),
(466,141,o),
(573,228,o),
(573,361,cs),
(573,482,o),
(492,560,o),
(284,560,cs),
(191,560,l),
(184,501,l),
(273,501,ls),
(423,501,o),
(472,444,o),
(472,358,cs),
(472,261,o),
(395,200,o),
(286,200,cs),
(130,200,l),
(124,141,l)
);
},
{
closed = 1;
nodes = (
(145,0,l),
(262,700,l),
(164,700,l),
(47,0,l)
);
}
);
userData = {
com.hugojourdan.ColorFlow = {
"0" = 0;
"1" = 0;
"10" = 0;
"11" = 0;
"2" = 0;
"3" = 0;
"4" = 0;
"5" = 0;
"6" = 0;
"7" = 0;
"8" = 0;
"9" = 0;
};
};
width = 622;
},
{
layerId = "EE3858F4-A475-4EBA-A8F4-31CE9F38567C";
shapes = (
{
closed = 1;
nodes = (
(291,132,ls),
(487,132,o),
(607,222,o),
(607,362,cs),
(607,489,o),
(514,569,o),
(285,569,cs),
(193,569,l),
(186,469,l),
(270,469,ls),
(394,469,o),
(424,424,o),
(424,357,cs),
(424,280,o),
(366,232,o),
(282,232,cs),
(132,232,l),
(126,132,l)
);
},
{
closed = 1;
nodes = (
(189,0,l),
(306,700,l),
(129,700,l),
(12,0,l)
);
}
);
userData = {
com.hugojourdan.ColorFlow = {
"0" = 0;
"1" = 0;
"10" = 0;
"11" = 0;
"2" = 0;
"3" = 0;
"4" = 0;
"5" = 0;
"6" = 0;
"7" = 0;
"8" = 0;
"9" = 0;
};
};
width = 637;
}
);
metricLeft = "=H";
metricRight = "=O";
unicode = 222;
},
{
glyphname = Q;
layers = (
{
layerId = m01;
shapes = (
{
closed = 1;
nodes = (
(513,-10,o),
(609,119,o),
(609,350,cs),
(609,581,o),
(513,710,o),
(342,710,cs),
(171,710,o),
(75,581,o),
(75,350,cs),
(75,119,o),
(171,-10,o),
(342,-10,cs)
);
},
{
closed = 1;
nodes = (
(607,-120,l),
(502,-27,o),
(416,76,o),
(351,189,c),
(326,170,l),
(387,54,o),
(469,-52,o),
(570,-148,c)
);
},
{
closed = 1;
nodes = (
(205,22,o),
(128,140,o),
(128,350,cs),
(128,560,o),
(205,678,o),
(342,678,cs),
(479,678,o),
(556,560,o),
(556,350,cs),
(556,140,o),
(479,22,o),
(342,22,cs)
);
}
);
userData = {
com.hugojourdan.ColorFlow = {
"0" = 0;
"1" = 0;
"10" = 0;
"11" = 0;
"2" = 0;
"3" = 0;
"4" = 0;
"5" = 0;
"6" = 0;
"7" = 0;
"8" = 0;
"9" = 0;
};
};
width = 684;
},
{
layerId = "FF73925E-1E34-445B-881D-5A7CAAA8E8BE";
metricRight = "=|-33";
shapes = (
{
closed = 1;
nodes = (
(545,-10,o),
(643,109,o),
(643,350,cs),
(643,591,o),
(545,710,o),
(345,710,cs),
(145,710,o),
(45,590,o),
(45,351,cs),
(45,111,o),
(146,-10,o),
(346,-10,cs)
);
},
{
closed = 1;
nodes = (
(676,-49,l),
(558,-7,o),
(475,50,o),
(427,118,c),
(385,86,l),
(420,8,o),
(490,-70,o),
(592,-148,c)
);
},
{
closed = 1;
nodes = (
(270,80,o),
(233,169,o),
(233,350,cs),
(233,531,o),
(270,620,o),
(345,620,cs),
(419,620,o),
(455,532,o),
(455,350,cs),
(455,169,o),
(419,80,o),
(345,80,cs)
);
}
);
userData = {
com.hugojourdan.ColorFlow = {
"0" = 0;
"1" = 0;
"10" = 0;
"11" = 0;
"2" = 0;
"3" = 0;
"4" = 0;
"5" = 0;
"6" = 0;
"7" = 0;
"8" = 0;
"9" = 0;
};
};
width = 688;
},
{
layerId = "BF6BA5B2-0556-42F4-A103-614BEBF16A1A";
metricRight = "=|-9";
shapes = (
{
closed = 1;
nodes = (
(525,-10,o),
(625,118,o),
(625,350,cs),
(625,586,o),
(528,710,o),
(345,710,cs),
(164,710,o),
(65,582,o),
(65,350,cs),
(65,113,o),
(160,-10,o),
(345,-10,cs)
);
},
{
closed = 1;
nodes = (
(634,-88,l),
(552,-51,o),
(491,2,o),
(449,70,c),
(418,46,l),
(453,-29,o),
(508,-93,o),
(587,-148,c)
);
},
{
closed = 1;
nodes = (
(227,38,o),
(170,139,o),
(170,351,cs),
(170,562,o),
(227,662,o),
(345,662,cs),
(462,662,o),
(520,560,o),
(520,351,cs),
(520,141,o),
(462,38,o),
(345,38,cs)
);
}
);
userData = {
com.hugojourdan.ColorFlow = {
"0" = 0;
"1" = 0;
"10" = 0;
"11" = 0;
"2" = 0;
"3" = 0;
"4" = 0;
"5" = 0;
"6" = 0;
"7" = 0;
"8" = 0;
"9" = 0;
};
};
width = 690;
},
{
layerId = m004;
shapes = (
{
closed = 1;
nodes = (
(513,-10,o),
(609,119,o),
(609,350,cs),
(609,581,o),
(513,710,o),
(342,710,cs),
(171,710,o),
(75,581,o),
(75,350,cs),
(75,119,o),
(171,-10,o),
(342,-10,cs)
);
},
{
closed = 1;
nodes = (
(607,-120,l),
(524,-16,o),
(440,89,o),
(357,193,c),
(320,165,l),
(403,61,o),
(487,-44,o),
(570,-148,c)
);
},
{
closed = 1;
nodes = (
(205,33,o),
(128,148,o),
(128,350,cs),
(128,552,o),
(205,667,o),
(342,667,cs),
(479,667,o),
(556,552,o),
(556,350,cs),
(556,148,o),
(479,33,o),
(342,33,cs)
);
}
);
userData = {
com.hugojourdan.ColorFlow = {
"0" = 0;
"1" = 0;
"10" = 0;
"11" = 0;
"2" = 0;
"3" = 0;
"4" = 0;
"5" = 0;
"6" = 0;
"7" = 0;
"8" = 0;
"9" = 0;
};
};
width = 684;
},
{
layerId = m005;
metricRight = "=|-9";
shapes = (
{
closed = 1;
nodes = (
(527,-10,o),
(625,116,o),
(625,350,cs),
(625,585,o),
(527,710,o),
(345,710,cs),
(161,710,o),
(65,585,o),
(65,350,cs),
(65,115,o),
(162,-10,o),
(345,-10,cs)
);
},
{
closed = 1;
nodes = (
(634,-102,l),
(577,-31,o),
(520,41,o),
(463,112,c),
(402,66,l),
(459,-5,o),
(516,-77,o),
(573,-148,c)
);
},
{
closed = 1;
nodes = (
(231,75,o),
(170,171,o),
(170,350,cs),
(170,530,o),
(231,626,o),
(345,626,cs),
(458,626,o),
(520,530,o),
(520,350,cs),
(520,171,o),
(458,75,o),
(345,75,cs)
);
}
);
userData = {
com.hugojourdan.ColorFlow = {
"0" = 0;
"1" = 0;
"10" = 0;
"11" = 0;
"2" = 0;
"3" = 0;
"4" = 0;
"5" = 0;
"6" = 0;
"7" = 0;
"8" = 0;
"9" = 0;
};
};
width = 690;
},
{
layerId = m006;
metricRight = "=|-33";
shapes = (
{
closed = 1;
nodes = (
(545,-10,o),
(643,110,o),
(643,351,cs),
(643,592,o),
(545,710,o),
(345,710,cs),
(145,710,o),
(45,591,o),
(45,351,cs),
(45,111,o),
(145,-10,o),
(345,-10,cs)
);
},
{
closed = 1;
nodes = (
(676,-69,l),
(614,9,o),
(551,87,o),
(489,165,c),
(385,86,l),
(447,8,o),
(510,-70,o),
(572,-148,c)
);
},
{
closed = 1;
nodes = (
(270,138,o),
(233,209,o),
(233,351,cs),
(233,493,o),
(270,562,o),
(345,562,cs),
(419,562,o),
(455,493,o),
(455,351,cs),
(455,207,o),
(419,138,o),
(345,138,cs)
);
}
);
userData = {
com.hugojourdan.ColorFlow = {
"0" = 0;
"1" = 0;
"10" = 0;
"11" = 0;
"2" = 0;
"3" = 0;
"4" = 0;
"5" = 0;
"6" = 0;
"7" = 0;
"8" = 0;
"9" = 0;
};
};
width = 688;
},
{
layerId = "4E5694F4-F64E-4331-B998-78BE273203C7";
shapes = (
{
closed = 1;
nodes = (
(563,-10,o),
(633,271,o),
(633,439,cs),
(633,612,o),
(550,710,o),
(394,710,cs),
(158,710,o),
(88,429,o),
(88,261,cs),
(88,88,o),
(171,-10,o),
(327,-10,cs)
);
},
{
closed = 1;
nodes = (
(545,-141,l),
(481,-30,o),
(415,82,o),
(350,192,c),
(308,167,l),
(374,57,o),
(439,-55,o),
(504,-165,c)
);
},
{
closed = 1;
nodes = (
(204,33,o),
(141,116,o),
(141,263,cs),
(141,410,o),
(198,667,o),
(393,667,cs),
(517,667,o),
(580,584,o),
(580,437,cs),
(580,292,o),
(523,33,o),
(328,33,cs)
);
}
);
userData = {
com.hugojourdan.ColorFlow = {
"0" = 0;
"1" = 0;
"10" = 0;
"11" = 0;
"2" = 0;
"3" = 0;
"4" = 0;
"5" = 0;
"6" = 0;
"7" = 0;
"8" = 0;
"9" = 0;
};
};
width = 684;
},
{
layerId = "DF4E5521-40BA-460F-874A-364F4D14AAD8";
metricRight = "=|-9";
shapes = (
{
closed = 1;
nodes = (
(581,-10,o),
(648,269,o),
(648,438,cs),
(648,615,o),
(561,710,o),
(393,710,cs),
(139,710,o),
(78,421,o),
(78,262,cs),
(78,82,o),
(170,-10,o),
(333,-10,cs)
);
},
{
closed = 1;
nodes = (
(574,-124,l),
(529,-49,o),
(485,28,o),
(441,103,c),
(372,62,l),
(417,-13,o),
(462,-90,o),
(506,-165,c)
);
},
{
closed = 1;
nodes = (
(233,74,o),
(181,141,o),
(181,266,cs),
(181,388,o),
(228,626,o),
(394,626,cs),
(492,626,o),
(545,559,o),
(545,434,cs),
(545,312,o),
(499,74,o),
(332,74,cs)
);
}
);
userData = {
com.hugojourdan.ColorFlow = {
"0" = 0;
"1" = 0;
"10" = 0;
"11" = 0;
"2" = 0;
"3" = 0;
"4" = 0;
"5" = 0;
"6" = 0;
"7" = 0;
"8" = 0;
"9" = 0;
};
};
width = 692;
},
{
layerId = "C6DE9ED7-34B3-46A1-8A00-A72C4A5E93A3";
metricRight = "=|-33";
shapes = (
{
closed = 1;
nodes = (
(609,-10,o),
(664,277,o),
(664,435,cs),
(664,635,o),
(551,710,o),
(383,710,cs),
(112,710,o),
(57,423,o),
(57,265,cs),
(57,65,o),
(174,-10,o),
(338,-10,cs)
);
},
{
closed = 1;
nodes = (
(619,-94,l),
(571,-11,o),
(521,72,o),
(473,155,c),
(357,85,l),
(405,2,o),
(454,-81,o),
(503,-164,c)
);
},
{
closed = 1;
nodes = (
(274,138,o),
(243,182,o),
(243,270,cs),
(243,356,o),
(271,562,o),
(386,562,cs),
(448,562,o),
(478,518,o),
(478,430,cs),
(478,344,o),
(451,138,o),
(336,138,cs)
);
}
);
userData = {
com.hugojourdan.ColorFlow = {
"0" = 0;
"1" = 0;
"10" = 0;
"11" = 0;
"2" = 0;
"3" = 0;
"4" = 0;
"5" = 0;
"6" = 0;
"7" = 0;
"8" = 0;
"9" = 0;
};
};
width = 689;
},
{
layerId = "D2741A44-CB8E-4434-9CC9-735A9A127F4C";
shapes = (
{
closed = 1;
nodes = (
(562,-10,o),
(634,263,o),
(634,434,cs),
(634,610,o),
(550,710,o),
(393,710,cs),
(161,710,o),
(89,437,o),
(89,266,cs),
(89,90,o),
(173,-10,o),
(330,-10,cs)
);
},
{
closed = 1;
nodes = (
(550,-140,l),
(463,-40,o),
(394,69,o),
(346,188,c),
(317,172,l),
(362,50,o),
(426,-62,o),
(509,-164,c)
);
},
{
closed = 1;
nodes = (
(206,22,o),
(142,110,o),
(142,268,cs),
(142,425,o),
(200,678,o),
(392,678,cs),
(517,678,o),
(581,590,o),
(581,432,cs),
(581,276,o),
(523,22,o),
(331,22,cs)
);
}
);
userData = {
com.hugojourdan.ColorFlow = {
"0" = 0;
"1" = 0;
"10" = 0;
"11" = 0;
"2" = 0;
"3" = 0;
"4" = 0;
"5" = 0;
"6" = 0;
"7" = 0;
"8" = 0;
"9" = 0;
};
};
width = 688;
},
{
layerId = "0B63B416-D10E-4459-8DAA-360BF3D1BFD2";
shapes = (
{
closed = 1;
nodes = (
(577,-10,o),
(646,265,o),
(646,439,cs),
(646,615,o),
(562,710,o),
(396,710,cs),
(148,710,o),
(77,434,o),
(77,262,cs),
(77,87,o),
(164,-10,o),
(330,-10,cs)
);
},
{
closed = 1;
nodes = (
(573,-117,l),
(462,-10,o),
(378,105,o),
(326,227,c),
(289,206,l),
(335,79,o),
(409,-45,o),
(508,-165,c)
);
},
{
closed = 1;
nodes = (
(233,49,o),
(182,128,o),
(182,263,cs),
(182,397,o),
(227,651,o),
(395,651,cs),
(491,651,o),
(541,573,o),
(541,436,cs),
(541,302,o),
(498,49,o),
(330,49,cs)
);
}
);
userData = {
com.hugojourdan.ColorFlow = {
"0" = 0;
"1" = 0;
"10" = 0;
"11" = 0;
"2" = 0;
"3" = 0;
"4" = 0;
"5" = 0;
"6" = 0;
"7" = 0;
"8" = 0;
"9" = 0;
};
};
width = 699;
},
{
layerId = "EE3858F4-A475-4EBA-A8F4-31CE9F38567C";
shapes = (
{
closed = 1;
nodes = (
(597,-10,o),
(663,256,o),
(663,439,cs),
(663,620,o),
(578,710,o),
(397,710,cs),
(129,710,o),
(57,442,o),
(57,263,cs),
(57,84,o),
(150,-10,o),
(331,-10,cs)
);
},
{
closed = 1;
nodes = (
(615,-78,l),
(468,34,o),
(362,153,o),
(305,276,c),
(256,246,l),
(302,116,o),
(391,-22,o),
(513,-165,c)
);
},
{
closed = 1;
nodes = (
(275,91,o),
(245,157,o),
(245,262,cs),
(245,366,o),
(270,609,o),
(396,609,cs),
(448,609,o),
(476,545,o),
(476,435,cs),
(476,330,o),
(456,91,o),
(330,91,cs)
);
}
);
userData = {
com.hugojourdan.ColorFlow = {
"0" = 0;
"1" = 0;
"10" = 0;
"11" = 0;
"2" = 0;
"3" = 0;
"4" = 0;
"5" = 0;
"6" = 0;
"7" = 0;
"8" = 0;
"9" = 0;
};
};
width = 715;
}
);
metricLeft = "=O";
metricRight = "=|";
note = Q;
unicode = 81;
userData = {
KernOnName = Q;
};
},
{
glyphname = R;
layers = (
{
layerId = m01;
shapes = (
{
closed = 1;
nodes = (
(150,0,l),
(150,692,l),
(126,668,l),
(254,668,ls),
(396,668,o),
(476,612,o),
(476,512,cs),
(476,415,o),
(396,360,o),
(254,360,cs),
(142,360,l),
(142,328,l),
(256,328,ls),
(430,328,o),
(528,394,o),
(528,512,cs),
(528,633,o),
(431,700,o),
(256,700,cs),
(102,700,l),
(102,0,l)
);
},
{
closed = 1;
nodes = (
(562,0,l),
(295,347,l),
(239,347,l),
(502,0,l)
);
}
);
userData = {
com.hugojourdan.ColorFlow = {
"0" = 0;
"1" = 0;
"10" = 0;
"11" = 0;
"2" = 0;
"3" = 0;
"4" = 0;
"5" = 0;
"6" = 0;
"7" = 0;
"8" = 0;
"9" = 0;
};
};
width = 594;
},
{
layerId = "FF73925E-1E34-445B-881D-5A7CAAA8E8BE";
shapes = (
{
closed = 1;
nodes = (
(231,0,l),
(231,655,l),
(186,610,l),
(273,610,ls),
(363,610,o),
(412,569,o),
(412,496,cs),
(412,424,o),
(362,383,o),
(273,383,cs),
(143,383,l),
(143,293,l),
(283,293,ls),
(485,293,o),
(598,366,o),
(598,497,cs),
(598,627,o),
(485,700,o),
(283,700,cs),
(54,700,l),
(54,0,l)
);
},
{
closed = 1;
nodes = (
(633,0,l),
(426,342,l),
(260,345,l),
(439,0,l)
);
}
);
userData = {
com.hugojourdan.ColorFlow = {
"0" = 0;
"1" = 0;
"10" = 0;
"11" = 0;
"2" = 0;
"3" = 0;
"4" = 0;
"5" = 0;
"6" = 0;
"7" = 0;
"8" = 0;
"9" = 0;
};
};
width = 639;
},
{
layerId = "BF6BA5B2-0556-42F4-A103-614BEBF16A1A";
shapes = (
{
closed = 1;
nodes = (
(186,0,l),
(186,688,l),
(150,652,l),
(286,652,ls),
(394,652,o),
(452,604,o),
(452,508,cs),
(452,411,o),
(394,363,o),
(286,363,cs),
(174,363,l),
(174,315,l),
(291,315,ls),
(465,315,o),
(556,379,o),
(556,508,cs),
(556,636,o),
(465,700,o),
(291,700,cs),
(88,700,l),
(88,0,l)
);
},
{
closed = 1;
nodes = (
(594,0,l),
(361,332,l),
(261,332,l),
(484,0,l)
);
}
);
userData = {
com.hugojourdan.ColorFlow = {
"0" = 0;
"1" = 0;
"10" = 0;
"11" = 0;
"2" = 0;
"3" = 0;
"4" = 0;
"5" = 0;
"6" = 0;
"7" = 0;
"8" = 0;
"9" = 0;
};
};
width = 614;
},
{
layerId = m004;
shapes = (
{
closed = 1;
nodes = (
(150,0,l),
(150,681,l),
(126,658,l),
(264,658,ls),
(400,658,o),
(476,606,o),
(476,514,cs),
(476,422,o),
(400,370,o),
(264,370,cs),
(126,370,l),
(126,328,l),
(266,328,ls),
(434,328,o),
(528,395,o),
(528,514,cs),
(528,633,o),
(434,700,o),
(266,700,cs),
(102,700,l),
(102,0,l)
);
},
{
closed = 1;
nodes = (
(562,0,l),
(295,347,l),
(232,347,l),
(501,0,l)
);
}
);
userData = {
com.hugojourdan.ColorFlow = {
"0" = 0;
"1" = 0;
"10" = 0;
"11" = 0;
"2" = 0;
"3" = 0;
"4" = 0;
"5" = 0;
"6" = 0;
"7" = 0;
"8" = 0;
"9" = 0;
};
};
width = 594;
},
{
layerId = m005;
shapes = (
{
closed = 1;
nodes = (
(186,0,l),
(186,652,l),
(156,622,l),
(276,622,ls),
(395,622,o),
(453,577,o),
(453,497,cs),
(453,418,o),
(395,374,o),
(276,374,cs),
(175,374,l),
(175,296,l),
(277,296,ls),
(461,296,o),
(558,368,o),
(558,497,cs),
(558,627,o),
(461,700,o),
(277,700,cs),
(88,700,l),
(88,0,l)
);
},
{
closed = 1;
nodes = (
(594,0,l),
(353,346,l),
(249,346,l),
(483,0,l)
);
}
);
userData = {
com.hugojourdan.ColorFlow = {
"0" = 0;
"1" = 0;
"10" = 0;
"11" = 0;
"2" = 0;
"3" = 0;
"4" = 0;
"5" = 0;
"6" = 0;
"7" = 0;
"8" = 0;
"9" = 0;
};
};
width = 614;
},
{
layerId = m006;
shapes = (
{
closed = 1;
nodes = (
(231,0,l),
(231,610,l),
(185,564,l),
(313,564,ls),
(380,564,o),
(412,538,o),
(412,483,cs),
(412,428,o),
(380,402,o),
(313,402,cs),
(215,402,l),
(215,267,l),
(303,267,ls),
(499,267,o),
(598,340,o),
(598,484,cs),
(598,628,o),
(499,700,o),
(303,700,cs),
(54,700,l),
(54,0,l)
);
},
{
closed = 1;
nodes = (
(633,0,l),
(434,344,l),
(264,344,l),
(443,0,l)
);
}
);
userData = {
com.hugojourdan.ColorFlow = {
"0" = 0;
"1" = 0;
"10" = 0;
"11" = 0;
"2" = 0;
"3" = 0;
"4" = 0;
"5" = 0;
"6" = 0;
"7" = 0;
"8" = 0;
"9" = 0;
};
};
width = 639;
},
{
layerId = "4E5694F4-F64E-4331-B998-78BE273203C7";
shapes = (
{
closed = 1;
nodes = (
(110,0,l),
(223,676,l),
(205,658,l),
(297,658,ls),
(463,658,o),
(523,603,o),
(523,521,cs),
(523,428,o),
(435,370,o),
(311,370,cs),
(150,370,l),
(143,328,l),
(313,328,ls),
(474,328,o),
(573,406,o),
(573,523,cs),
(573,631,o),
(495,700,o),
(305,700,cs),
(179,700,l),
(62,0,l)
);
},
{
closed = 1;
nodes = (
(522,0,l),
(323,354,l),
(266,354,l),
(467,0,l)
);
}
);
userData = {
com.hugojourdan.ColorFlow = {
"0" = 0;
"1" = 0;
"10" = 0;
"11" = 0;
"2" = 0;
"3" = 0;
"4" = 0;
"5" = 0;
"6" = 0;
"7" = 0;
"8" = 0;
"9" = 0;
};
};
width = 594;
},
{
layerId = "DF4E5521-40BA-460F-874A-364F4D14AAD8";
shapes = (
{
closed = 1;
nodes = (
(145,0,l),
(254,652,l),
(219,622,l),
(316,622,ls),
(437,622,o),
(494,585,o),
(494,509,cs),
(494,431,o),
(432,374,o),
(331,374,cs),
(158,374,l),
(146,296,l),
(330,296,ls),
(498,296,o),
(598,383,o),
(598,510,cs),
(598,635,o),
(503,700,o),
(321,700,cs),
(164,700,l),
(47,0,l)
);
},
{
closed = 1;
nodes = (
(553,0,l),
(382,346,l),
(283,346,l),
(448,0,l)
);
}
);
userData = {
com.hugojourdan.ColorFlow = {
"0" = 0;
"1" = 0;
"10" = 0;
"11" = 0;
"2" = 0;
"3" = 0;
"4" = 0;
"5" = 0;
"6" = 0;
"7" = 0;
"8" = 0;
"9" = 0;
};
};
width = 614;
},
{
layerId = "C6DE9ED7-34B3-46A1-8A00-A72C4A5E93A3";
shapes = (
{
closed = 1;
nodes = (
(190,0,l),
(292,610,l),
(239,564,l),
(362,564,ls),
(421,564,o),
(449,541,o),
(449,493,cs),
(449,437,o),
(412,402,o),
(354,402,cs),
(168,402,l),
(146,267,l),
(361,267,ls),
(534,267,o),
(634,358,o),
(634,498,cs),
(634,630,o),
(545,700,o),
(376,700,cs),
(129,700,l),
(12,0,l)
);
},
{
closed = 1;
nodes = (
(591,0,l),
(457,344,l),
(290,344,l),
(404,0,l)
);
}
);
userData = {
com.hugojourdan.ColorFlow = {
"0" = 0;
"1" = 0;
"10" = 0;
"11" = 0;
"2" = 0;
"3" = 0;
"4" = 0;
"5" = 0;
"6" = 0;
"7" = 0;
"8" = 0;
"9" = 0;
};
};
width = 639;
},
{
layerId = "D2741A44-CB8E-4434-9CC9-735A9A127F4C";
shapes = (
{
closed = 1;
nodes = (
(116,0,l),
(223,687,l),
(205,668,l),
(289,668,ls),
(460,668,o),
(525,609,o),
(525,519,cs),
(525,421,o),
(433,360,o),
(303,360,cs),
(169,360,l),
(162,328,l),
(305,328,ls),
(472,328,o),
(575,404,o),
(575,521,cs),
(575,631,o),
(493,700,o),
(297,700,cs),
(179,700,l),
(68,0,l)
);
},
{
closed = 1;
nodes = (
(528,0,l),
(326,354,l),
(275,354,l),
(474,0,l)
);
}
);
userData = {
com.hugojourdan.ColorFlow = {
"0" = 0;
"1" = 0;
"10" = 0;
"11" = 0;
"2" = 0;
"3" = 0;
"4" = 0;
"5" = 0;
"6" = 0;
"7" = 0;
"8" = 0;
"9" = 0;
};
};
width = 598;
},
{
layerId = "0B63B416-D10E-4459-8DAA-360BF3D1BFD2";
shapes = (
{
closed = 1;
nodes = (
(145,0,l),
(258,665,l),
(235,641,l),
(283,641,ls),
(446,641,o),
(505,586,o),
(505,512,cs),
(505,430,o),
(417,373,o),
(298,373,cs),
(151,373,l),
(143,314,l),
(303,314,ls),
(489,314,o),
(607,397,o),
(607,514,cs),
(607,625,o),
(511,700,o),
(295,700,cs),
(164,700,l),
(47,0,l)
);
},
{
closed = 1;
nodes = (
(553,0,l),
(370,362,l),
(278,364,l),
(446,0,l)
);
}
);
userData = {
com.hugojourdan.ColorFlow = {
"0" = 0;
"1" = 0;
"10" = 0;
"11" = 0;
"2" = 0;
"3" = 0;
"4" = 0;
"5" = 0;
"6" = 0;
"7" = 0;
"8" = 0;
"9" = 0;
};
};
width = 617;
},
{
layerId = "EE3858F4-A475-4EBA-A8F4-31CE9F38567C";
shapes = (
{
closed = 1;
nodes = (
(189,0,l),
(302,632,l),
(270,599,l),
(269,599,ls),
(414,599,o),
(464,551,o),
(464,501,cs),
(464,443,o),
(385,393,o),
(284,393,cs),
(119,393,l),
(110,292,l),
(294,292,ls),
(509,292,o),
(648,384,o),
(648,502,cs),
(648,616,o),
(530,700,o),
(286,700,cs),
(129,700,l),
(12,0,l)
);
},
{
closed = 1;
nodes = (
(591,0,l),
(434,372,l),
(276,377,l),
(400,0,l)
);
}
);
userData = {
com.hugojourdan.ColorFlow = {
"0" = 0;
"1" = 0;
"10" = 0;
"11" = 0;
"2" = 0;
"3" = 0;
"4" = 0;
"5" = 0;
"6" = 0;
"7" = 0;
"8" = 0;
"9" = 0;
};
};
width = 641;
}
);
metricLeft = "=H";
note = R;
unicode = 82;
},
{
glyphname = S;
layers = (
{
anchors = (
{
name = bottom;
pos = (262,0);
},
{
name = top;
pos = (269,700);
}
);
guides = (
{
angle = 236.31;
pos = (74,103);
}
);
layerId = m01;
shapes = (
{
closed = 1;
nodes = (
(388,-10,o),
(473,65,o),
(473,176,cs),
(473,303,o),
(370,334,o),
(263,388,cs),
(153,443,o),
(117,481,o),
(117,543,cs),
(117,623,o),
(178,678,o),
(266,678,cs),
(331,678,o),
(391,648,o),
(417,602,c),
(450,637,l),
(408,683,o),
(342,710,o),
(271,710,cs),
(153,710,o),
(68,638,o),
(68,537,cs),
(68,460,o),
(113,409,o),
(235,349,cs),
(322,306,o),
(425,272,o),
(425,169,cs),
(425,85,o),
(355,22,o),
(260,22,cs),
(190,22,o),
(129,64,o),
(94,133,c),
(59,81,l),
(104,24,o),
(181,-10,o),
(264,-10,cs)
);
}
);
userData = {
com.hugojourdan.ColorFlow = {
"0" = 0;
"1" = 0;
"10" = 0;
"11" = 0;
"2" = 0;
"3" = 0;
"4" = 0;
"5" = 0;
"6" = 0;
"7" = 0;
"8" = 0;
"9" = 0;
};
};
width = 544;
},
{
anchors = (
{
name = bottom;
pos = (289,0);
},
{
name = top;
pos = (280,700);
}
);
guides = (
{
angle = 233.3544;
pos = (60,121);
},
{
angle = 90;
pos = (52,95);
},
{
angle = 90;
pos = (495,601);
},
{
angle = 44.158;
pos = (457,573);
}
);
layerId = "BF6BA5B2-0556-42F4-A103-614BEBF16A1A";
shapes = (
{
closed = 1;
nodes = (
(423,-10,o),
(515,63,o),
(515,172,cs),
(515,299,o),
(388,355,o),
(297,407,cs),
(197,463,o),
(161,503,o),
(161,558,cs),
(161,621,o),
(207,664,o),
(278,664,cs),
(343,664,o),
(392,628,o),
(434,549,c),
(491,604,l),
(441,675,o),
(372,710,o),
(281,710,cs),
(156,710,o),
(68,634,o),
(68,528,cs),
(68,404,o),
(188,355,o),
(282,304,cs),
(384,248,o),
(422,209,o),
(422,153,cs),
(422,83,o),
(370,38,o),
(290,38,cs),
(201,38,o),
(136,91,o),
(108,187,c),
(51,110,l),
(99,36,o),
(189,-10,o),
(287,-10,cs)
);
}
);
userData = {
com.hugojourdan.ColorFlow = {
"0" = 0;
"1" = 0;
"10" = 0;
"11" = 0;
"2" = 0;
"3" = 0;
"4" = 0;
"5" = 0;
"6" = 0;
"7" = 0;
"8" = 0;
"9" = 0;
};
};
width = 576;
},
{
associatedMasterId = "FF73925E-1E34-445B-881D-5A7CAAA8E8BE";
layerId = "01D1DCD4-D6A4-4EDB-B9BC-2A98E82E96A8";
name = "10 Jun 23 12.27 PM";
shapes = (
{
closed = 1;
nodes = (
(428,-10,o),
(522,70,o),
(522,191,cs),
(522,272,o),
(478,326,o),
(351,399,cs),
(253,456,o),
(221,491,o),
(221,542,cs),
(221,587,o),
(244,616,o),
(278,616,cs),
(318,616,o),
(352,574,o),
(379,491,c),
(524,542,l),
(485,647,o),
(395,710,o),
(282,710,cs),
(149,710,o),
(62,626,o),
(62,498,cs),
(62,411,o),
(102,359,o),
(213,303,cs),
(314,252,o),
(346,218,o),
(346,162,cs),
(346,113,o),
(320,80,o),
(281,80,cs),
(236,80,o),
(191,128,o),
(157,211,c),
(28,121,l),
(80,39,o),
(176,-10,o),
(286,-10,cs)
);
}
);
userData = {
com.hugojourdan.ColorFlow = {
"0" = 0;
"1" = 0;
"10" = 0;
"11" = 0;
"2" = 0;
"3" = 0;
"4" = 0;
"5" = 0;
"6" = 0;
"7" = 0;
"8" = 0;
"9" = 0;
};
};
width = 560;
},
{
anchors = (
{
name = bottom;
pos = (307,0);
},
{
name = top;
pos = (301,700);
}
);
guides = (
{
angle = 90;
pos = (544,599);
},
{
angle = 44.158;
pos = (496,553);
}
);
layerId = "FF73925E-1E34-445B-881D-5A7CAAA8E8BE";
name = Bold;
shapes = (
{
closed = 1;
nodes = (
(458,-10,o),
(557,70,o),
(557,191,cs),
(557,286,o),
(504,350,o),
(377,419,cs),
(269,479,o),
(236,505,o),
(236,548,cs),
(235,595,o),
(263,622,o),
(314,622,cs),
(365,622,o),
(415,580,o),
(456,506,c),
(552,599,l),
(488,675,o),
(411,710,o),
(308,710,cs),
(158,710,o),
(63,629,o),
(63,503,cs),
(63,408,o),
(116,344,o),
(240,275,cs),
(347,215,o),
(380,189,o),
(381,146,cs),
(381,104,o),
(354,80,o),
(306,80,cs),
(247,80,o),
(182,135,o),
(123,234,c),
(35,115,l),
(92,38,o),
(196,-10,o),
(307,-10,cs)
);
}
);
userData = {
com.hugojourdan.ColorFlow = {
"0" = 0;
"1" = 0;
"10" = 0;
"11" = 0;
"2" = 0;
"3" = 0;
"4" = 0;
"5" = 0;
"6" = 0;
"7" = 0;
"8" = 0;
"9" = 0;
};
};
width = 599;
},
{
anchors = (
{
name = top;
pos = (280,700);
}
);
associatedMasterId = "FF73925E-1E34-445B-881D-5A7CAAA8E8BE";
guides = (
{
angle = 151.2602;
pos = (219,285);
}
);
layerId = "D8E4FFE5-BED4-4E71-8FF9-723148DABEAF";
name = "10 Jun 23 10.21 PM";
shapes = (
{
closed = 1;
nodes = (
(428,-10,o),
(522,70,o),
(522,191,cs),
(522,282,o),
(474,344,o),
(356,409,cs),
(235,475,o),
(187,493,o),
(186,562,cs),
(186,614,o),
(223,660,o),
(268,660,cs),
(318,660,o),
(352,603,o),
(379,491,c),
(524,542,l),
(485,647,o),
(395,710,o),
(282,710,cs),
(145,710,o),
(56,628,o),
(56,503,cs),
(56,412,o),
(103,349,o),
(219,285,cs),
(338,220,o),
(385,201,o),
(386,132,cs),
(386,88,o),
(361,40,o),
(291,40,cs),
(236,40,o),
(191,103,o),
(157,211,c),
(28,121,l),
(80,39,o),
(176,-10,o),
(286,-10,cs)
);
}
);
userData = {
com.hugojourdan.ColorFlow = {
"0" = 0;
"1" = 0;
"10" = 0;
"11" = 0;
"2" = 0;
"3" = 0;
"4" = 0;
"5" = 0;
"6" = 0;
"7" = 0;
"8" = 0;
"9" = 0;
};
};
width = 560;
},
{
anchors = (
{
name = bottom;
pos = (262,0);
},
{
name = top;
pos = (269,700);
}
);
layerId = m004;
shapes = (
{
closed = 1;
nodes = (
(371,-10,o),
(473,50,o),
(473,176,cs),
(473,292,o),
(371,340,o),
(277,384,cs),
(194,423,o),
(117,459,o),
(117,536,cs),
(117,613,o),
(177,668,o),
(266,668,cs),
(331,668,o),
(391,639,o),
(417,602,c),
(450,637,l),
(405,686,o),
(337,710,o),
(271,710,cs),
(168,710,o),
(68,651,o),
(68,537,cs),
(68,430,o),
(164,385,o),
(256,341,cs),
(342,300,o),
(425,261,o),
(425,175,cs),
(425,92,o),
(354,32,o),
(260,32,cs),
(190,32,o),
(125,66,o),
(88,118,c),
(59,81,l),
(107,21,o),
(187,-10,o),
(264,-10,cs)
);
}
);
userData = {
com.hugojourdan.ColorFlow = {
"0" = 0;
"1" = 0;
"10" = 0;
"11" = 0;
"2" = 0;
"3" = 0;
"4" = 0;
"5" = 0;
"6" = 0;
"7" = 0;
"8" = 0;
"9" = 0;
};
};
width = 544;
},
{
anchors = (
{
name = bottom;
pos = (284,0);
},
{
name = top;
pos = (287,700);
}
);
layerId = m005;
shapes = (
{
closed = 1;
nodes = (
(405,-10,o),
(515,56,o),
(515,190,cs),
(515,319,o),
(405,363,o),
(309,403,cs),
(232,434,o),
(163,462,o),
(163,526,cs),
(163,583,o),
(205,628,o),
(285,628,cs),
(351,628,o),
(409,598,o),
(438,559,c),
(501,622,l),
(450,681,o),
(370,710,o),
(291,710,cs),
(162,710,o),
(66,633,o),
(66,517,cs),
(66,395,o),
(172,352,o),
(267,313,cs),
(347,280,o),
(419,250,o),
(419,181,cs),
(419,117,o),
(362,72,o),
(283,72,cs),
(208,72,o),
(143,111,o),
(112,156,c),
(51,86,l),
(98,28,o),
(183,-10,o),
(284,-10,cs)
);
}
);
userData = {
com.hugojourdan.ColorFlow = {
"0" = 0;
"1" = 0;
"10" = 0;
"11" = 0;
"2" = 0;
"3" = 0;
"4" = 0;
"5" = 0;
"6" = 0;
"7" = 0;
"8" = 0;
"9" = 0;
};
};
width = 576;
},
{
anchors = (
{
name = bottom;
pos = (298,0);
},
{
name = top;
pos = (291,700);
}
);
layerId = m006;
name = Bold;
shapes = (
{
closed = 1;
nodes = (
(435,-10,o),
(558,66,o),
(558,212,cs),
(558,331,o),
(488,386,o),
(327,439,cs),
(234,470,o),
(213,485,o),
(213,517,cs),
(213,548,o),
(241,566,o),
(281,566,cs),
(327,566,o),
(387,541,o),
(427,490,c),
(538,599,l),
(473,677,o),
(381,710,o),
(290,710,cs),
(129,710,o),
(39,607,o),
(39,497,cs),
(39,378,o),
(109,323,o),
(270,270,cs),
(363,239,o),
(384,224,o),
(384,192,cs),
(384,156,o),
(351,136,o),
(305,136,cs),
(250,136,o),
(181,163,o),
(146,215,c),
(35,95,l),
(79,39,o),
(173,-10,o),
(290,-10,cs)
);
}
);
userData = {
com.hugojourdan.ColorFlow = {
"0" = 0;
"1" = 0;
"10" = 0;
"11" = 0;
"2" = 0;
"3" = 0;
"4" = 0;
"5" = 0;
"6" = 0;
"7" = 0;
"8" = 0;
"9" = 0;
};
};
width = 600;
},
{
anchors = (
{
name = bottom;
pos = (240,0);
},
{
name = top;
pos = (332,700);
}
);
background = {
shapes = (
{
closed = 1;
nodes = (
(364,-10,o),
(462,72,o),
(462,189,cs),
(462,285,o),
(378,336,o),
(300,383,cs),
(230,425,o),
(168,464,o),
(168,532,cs),
(168,596,o),
(220,668,o),
(319,668,cs),
(391,668,o),
(453,631,o),
(474,589,c),
(513,621,l),
(472,679,o),
(398,710,o),
(325,710,cs),
(209,710,o),
(119,634,o),
(119,526,cs),
(119,437,o),
(195,388,o),
(271,342,cs),
(343,298,o),
(413,256,o),
(413,183,cs),
(413,94,o),
(334,32,o),
(243,32,cs),
(165,32,o),
(102,74,o),
(71,134,c),
(36,99,l),
(78,29,o),
(159,-10,o),
(243,-10,cs)
);
}
);
};
layerId = "4E5694F4-F64E-4331-B998-78BE273203C7";
shapes = (
{
closed = 1;
nodes = (
(363,-10,o),
(461,73,o),
(461,184,cs),
(461,284,o),
(378,335,o),
(300,382,cs),
(228,426,o),
(168,463,o),
(168,532,cs),
(168,596,o),
(220,668,o),
(319,668,cs),
(391,668,o),
(453,631,o),
(474,589,c),
(513,621,l),
(472,679,o),
(398,710,o),
(325,710,cs),
(209,710,o),
(119,633,o),
(119,530,cs),
(119,437,o),
(192,392,o),
(271,343,cs),
(348,296,o),
(412,256,o),
(412,182,cs),
(412,95,o),
(333,32,o),
(242,32,cs),
(166,32,o),
(102,74,o),
(71,134,c),
(36,99,l),
(78,29,o),
(159,-10,o),
(242,-10,cs)
);
}
);
userData = {
com.hugojourdan.ColorFlow = {
"0" = 0;
"1" = 0;
"10" = 0;
"11" = 0;
"2" = 0;
"3" = 0;
"4" = 0;
"5" = 0;
"6" = 0;
"7" = 0;
"8" = 0;
"9" = 0;
};
};
width = 544;
},
{
anchors = (
{
name = bottom;
pos = (262,0);
},
{
name = top;
pos = (359,700);
}
);
background = {
shapes = (
{
closed = 1;
nodes = (
(407,-10,o),
(504,75,o),
(504,205,cs),
(504,310,o),
(413,357,o),
(332,401,cs),
(266,435,o),
(207,467,o),
(207,522,cs),
(207,570,o),
(247,628,o),
(329,628,cs),
(403,628,o),
(462,590,o),
(486,545,c),
(559,603,l),
(513,674,o),
(427,710,o),
(340,710,cs),
(210,710,o),
(108,623,o),
(108,502,cs),
(108,403,o),
(197,357,o),
(276,314,cs),
(345,278,o),
(405,244,o),
(405,185,cs),
(405,117,o),
(340,72,o),
(269,72,cs),
(188,72,o),
(124,119,o),
(99,171,c),
(27,106,l),
(74,27,o),
(181,-10,o),
(266,-10,cs)
);
}
);
};
layerId = "DF4E5521-40BA-460F-874A-364F4D14AAD8";
shapes = (
{
closed = 1;
nodes = (
(406,-10,o),
(504,78,o),
(504,200,cs),
(504,306,o),
(428,348,o),
(333,399,cs),
(261,437,o),
(207,467,o),
(207,523,cs),
(207,570,o),
(246,628,o),
(332,628,cs),
(402,628,o),
(462,590,o),
(486,545,c),
(559,603,l),
(514,673,o),
(427,710,o),
(342,710,cs),
(210,710,o),
(108,622,o),
(108,507,cs),
(108,406,o),
(187,363,o),
(275,316,cs),
(357,272,o),
(405,241,o),
(405,184,cs),
(405,117,o),
(342,72,o),
(266,72,cs),
(190,72,o),
(125,119,o),
(100,171,c),
(28,106,l),
(76,26,o),
(181,-10,o),
(269,-10,cs)
);
}
);
userData = {
com.hugojourdan.ColorFlow = {
"0" = 0;
"1" = 0;
"10" = 0;
"11" = 0;
"2" = 0;
"3" = 0;
"4" = 0;
"5" = 0;
"6" = 0;
"7" = 0;
"8" = 0;
"9" = 0;
};
};
width = 576;
},
{
anchors = (
{
name = bottom;
pos = (252,0);
},
{
name = top;
pos = (369,700);
}
);
layerId = "C6DE9ED7-34B3-46A1-8A00-A72C4A5E93A3";
name = Bold;
shapes = (
{
closed = 1;
nodes = (
(430,-10,o),
(551,82,o),
(551,232,cs),
(551,324,o),
(490,378,o),
(357,437,cs),
(280,471,o),
(258,488,o),
(258,514,cs),
(258,548,o),
(290,566,o),
(325,566,cs),
(373,566,o),
(432,536,o),
(466,479,c),
(594,578,l),
(534,674,o),
(434,710,o),
(336,710,cs),
(181,710,o),
(80,603,o),
(80,476,cs),
(80,384,o),
(142,331,o),
(275,272,cs),
(352,238,o),
(373,218,o),
(373,191,cs),
(373,153,o),
(343,136,o),
(299,136,cs),
(244,136,o),
(170,169,o),
(142,228,c),
(13,117,l),
(62,32,o),
(178,-10,o),
(280,-10,cs)
);
}
);
userData = {
com.hugojourdan.ColorFlow = {
"0" = 0;
"1" = 0;
"10" = 0;
"11" = 0;
"2" = 0;
"3" = 0;
"4" = 0;
"5" = 0;
"6" = 0;
"7" = 0;
"8" = 0;
"9" = 0;
};
};
width = 600;
},
{
anchors = (
{
name = bottom;
pos = (239,0);
},
{
name = top;
pos = (327,700);
}
);
layerId = "D2741A44-CB8E-4434-9CC9-735A9A127F4C";
shapes = (
{
closed = 1;
nodes = (
(378,-10,o),
(460,87,o),
(460,184,cs),
(460,295,o),
(375,329,o),
(283,386,cs),
(183,446,o),
(163,485,o),
(163,539,cs),
(163,607,o),
(217,678,o),
(314,678,cs),
(386,678,o),
(448,640,o),
(469,590,c),
(508,622,l),
(469,676,o),
(398,710,o),
(320,710,cs),
(190,710,o),
(114,621,o),
(114,530,cs),
(114,467,o),
(138,416,o),
(247,351,cs),
(326,302,o),
(411,267,o),
(411,176,cs),
(411,88,o),
(333,22,o),
(241,22,cs),
(165,22,o),
(105,72,o),
(76,148,c),
(35,98,l),
(75,32,o),
(152,-10,o),
(241,-10,cs)
);
}
);
userData = {
com.hugojourdan.ColorFlow = {
"0" = 0;
"1" = 0;
"10" = 0;
"11" = 0;
"2" = 0;
"3" = 0;
"4" = 0;
"5" = 0;
"6" = 0;
"7" = 0;
"8" = 0;
"9" = 0;
};
};
width = 543;
},
{
anchors = (
{
name = bottom;
pos = (251,0);
},
{
name = top;
pos = (347,700);
}
);
layerId = "0B63B416-D10E-4459-8DAA-360BF3D1BFD2";
shapes = (
{
closed = 1;
nodes = (
(402,-10,o),
(488,93,o),
(488,197,cs),
(488,286,o),
(455,324,o),
(339,393,cs),
(233,456,o),
(216,485,o),
(216,531,cs),
(216,589,o),
(258,651,o),
(343,651,cs),
(406,651,o),
(470,609,o),
(489,564,c),
(553,620,l),
(505,676,o),
(429,710,o),
(343,710,cs),
(196,710,o),
(116,617,o),
(116,513,cs),
(116,473,o),
(90,412,o),
(220,334,cs),
(301,283,o),
(386,257,o),
(386,173,cs),
(386,102,o),
(323,49,o),
(252,49,cs),
(197,49,o),
(137,100,o),
(87,177,c),
(27,101,l),
(72,33,o),
(158,-10,o),
(255,-10,cs)
);
}
);
userData = {
com.hugojourdan.ColorFlow = {
"0" = 0;
"1" = 0;
"10" = 0;
"11" = 0;
"2" = 0;
"3" = 0;
"4" = 0;
"5" = 0;
"6" = 0;
"7" = 0;
"8" = 0;
"9" = 0;
};
};
width = 560;
},
{
anchors = (
{
name = bottom;
pos = (268,0);
},
{
name = top;
pos = (367,700);
}
);
layerId = "EE3858F4-A475-4EBA-A8F4-31CE9F38567C";
name = Bold;
shapes = (
{
closed = 1;
nodes = (
(436,-10,o),
(529,100,o),
(529,216,cs),
(529,273,o),
(570,319,o),
(418,405,cs),
(304,472,o),
(290,487,o),
(290,521,cs),
(290,563,o),
(313,609,o),
(378,609,cs),
(427,609,o),
(493,561,o),
(510,522,c),
(613,615,l),
(551,676,o),
(468,710,o),
(369,710,cs),
(197,710,o),
(110,612,o),
(110,487,cs),
(110,477,o),
(17,401,o),
(177,305,cs),
(263,250,o),
(344,237,o),
(344,167,cs),
(344,123,o),
(305,91,o),
(267,91,cs),
(242,91,o),
(182,144,o),
(101,224,c),
(11,106,l),
(64,35,o),
(164,-10,o),
(274,-10,cs)
);
}
);
userData = {
com.hugojourdan.ColorFlow = {
"0" = 0;
"1" = 0;
"10" = 0;
"11" = 0;
"2" = 0;
"3" = 0;
"4" = 0;
"5" = 0;
"6" = 0;
"7" = 0;
"8" = 0;
"9" = 0;
};
};
width = 594;
}
);
metricLeft = "=O*0.78";
metricRight = "=O*0.94";
note = S;
unicode = 83;
},
{
glyphname = Germandbls;
layers = (
{
layerId = m01;
shapes = (
{
closed = 1;
nodes = (
(473,-10,o),
(564,63,o),
(564,207,cs),
(564,330,o),
(494,405,o),
(377,408,c),
(382,400,l),
(544,673,l),
(544,700,l),
(310,700,ls),
(173,700,o),
(102,624,o),
(102,478,cs),
(102,0,l),
(150,0,l),
(150,472,ls),
(150,612,o),
(198,668,o),
(316,668,cs),
(516,668,l),
(496,676,l),
(339,411,l),
(349,377,l),
(363,377,ls),
(454,377,o),
(511,311,o),
(511,205,cs),
(511,81,o),
(441,22,o),
(292,22,c),
(292,-10,l)
);
}
);
userData = {
com.hugojourdan.ColorFlow = {
"0" = 0;
"1" = 0;
"10" = 0;
"11" = 0;
"2" = 0;
"3" = 0;
"4" = 0;
"5" = 0;
"6" = 0;
"7" = 0;
"8" = 0;
"9" = 0;
};
};
width = 639;
},
{
layerId = "BF6BA5B2-0556-42F4-A103-614BEBF16A1A";
shapes = (
{
closed = 1;
nodes = (
(484,-10,o),
(580,62,o),
(580,208,cs),
(580,330,o),
(510,405,o),
(398,403,c),
(409,392,l),
(565,655,l),
(565,700,l),
(323,700,ls),
(170,700,o),
(88,619,o),
(88,467,cs),
(88,0,l),
(187,0,l),
(187,493,ls),
(187,603,o),
(227,648,o),
(326,648,cs),
(504,648,l),
(482,670,l),
(321,399,l),
(334,357,l),
(357,357,ls),
(432,357,o),
(476,305,o),
(476,209,cs),
(476,95,o),
(415,42,o),
(289,42,c),
(289,-10,l)
);
}
);
userData = {
com.hugojourdan.ColorFlow = {
"0" = 0;
"1" = 0;
"10" = 0;
"11" = 0;
"2" = 0;
"3" = 0;
"4" = 0;
"5" = 0;
"6" = 0;
"7" = 0;
"8" = 0;
"9" = 0;
};
};
width = 643;
},
{
layerId = "FF73925E-1E34-445B-881D-5A7CAAA8E8BE";
shapes = (
{
closed = 1;
nodes = (
(500,-10,o),
(602,62,o),
(602,205,cs),
(602,318,o),
(521,386,o),
(389,384,c),
(436,355,l),
(597,627,l),
(597,700,l),
(330,700,ls),
(153,700,o),
(54,610,o),
(54,450,cs),
(54,0,l),
(232,0,l),
(232,508,ls),
(232,581,o),
(261,612,o),
(329,612,cs),
(475,612,l),
(451,652,l),
(290,380,l),
(308,322,l),
(326,322,ls),
(393,322,o),
(419,290,o),
(419,206,cs),
(419,121,o),
(382,81,o),
(298,78,c),
(298,-10,l)
);
}
);
userData = {
com.hugojourdan.ColorFlow = {
"0" = 0;
"1" = 0;
"10" = 0;
"11" = 0;
"2" = 0;
"3" = 0;
"4" = 0;
"5" = 0;
"6" = 0;
"7" = 0;
"8" = 0;
"9" = 0;
};
};
width = 648;
},
{
background = {
guides = (
{
angle = 59.3148;
pos = (463,537);
},
{
angle = 270;
pos = (524,270);
},
{
angle = 270;
pos = (554,270);
},
{
angle = 24.7108;
pos = (320,429);
}
);
shapes = (
{
closed = 0;
nodes = (
(159,24,l),
(544,673,l),
(544,700,l)
);
},
{
closed = 0;
nodes = (
(496,676,l),
(110,25,l)
);
}
);
};
layerId = m004;
shapes = (
{
closed = 1;
nodes = (
(473,-10,o),
(564,63,o),
(564,207,cs),
(564,333,o),
(494,410,o),
(377,413,c),
(382,400,l),
(544,673,l),
(544,700,l),
(310,700,ls),
(173,700,o),
(102,624,o),
(102,478,cs),
(102,0,l),
(150,0,l),
(150,472,ls),
(150,604,o),
(198,658,o),
(316,658,cs),
(516,658,l),
(496,676,l),
(339,411,l),
(349,377,l),
(363,377,ls),
(454,377,o),
(511,311,o),
(511,205,cs),
(511,89,o),
(441,34,o),
(282,34,c),
(282,-10,l)
);
}
);
userData = {
com.hugojourdan.ColorFlow = {
"0" = 0;
"1" = 0;
"10" = 0;
"11" = 0;
"2" = 0;
"3" = 0;
"4" = 0;
"5" = 0;
"6" = 0;
"7" = 0;
"8" = 0;
"9" = 0;
};
};
width = 639;
},
{
layerId = m005;
shapes = (
{
closed = 1;
nodes = (
(484,-10,o),
(580,63,o),
(580,210,cs),
(580,336,o),
(509,411,o),
(398,409,c),
(409,392,l),
(565,657,l),
(565,700,l),
(323,700,ls),
(170,700,o),
(88,619,o),
(88,467,cs),
(88,0,l),
(186,0,l),
(186,467,ls),
(186,577,o),
(226,622,o),
(326,622,cs),
(489,622,l),
(470,652,l),
(321,399,l),
(337,346,l),
(357,346,ls),
(431,346,o),
(475,297,o),
(475,211,cs),
(475,114,o),
(418,69,o),
(289,68,c),
(289,-10,l)
);
}
);
userData = {
com.hugojourdan.ColorFlow = {
"0" = 0;
"1" = 0;
"10" = 0;
"11" = 0;
"2" = 0;
"3" = 0;
"4" = 0;
"5" = 0;
"6" = 0;
"7" = 0;
"8" = 0;
"9" = 0;
};
};
width = 643;
},
{
layerId = m006;
shapes = (
{
closed = 1;
nodes = (
(498,-10,o),
(602,63,o),
(602,207,cs),
(602,320,o),
(537,387,o),
(429,380,c),
(438,359,l),
(597,627,l),
(597,700,l),
(330,700,ls),
(153,700,o),
(54,610,o),
(54,450,cs),
(54,0,l),
(232,0,l),
(232,460,ls),
(232,534,o),
(262,564,o),
(336,564,cs),
(443,564,l),
(426,610,l),
(290,380,l),
(315,298,l),
(346,298,ls),
(391,298,o),
(416,270,o),
(416,218,cs),
(416,152,o),
(377,121,o),
(298,120,c),
(298,-10,l)
);
}
);
userData = {
com.hugojourdan.ColorFlow = {
"0" = 0;
"1" = 0;
"10" = 0;
"11" = 0;
"2" = 0;
"3" = 0;
"4" = 0;
"5" = 0;
"6" = 0;
"7" = 0;
"8" = 0;
"9" = 0;
};
};
width = 648;
},
{
background = {
shapes = (
{
closed = 0;
nodes = (
(506,234,ls),
(506,106,o),
(434,34,o),
(293,34,cs),
(279,34,o),
(263,35,o),
(248,37,c),
(241,-7,l),
(259,-9,o),
(275,-10,o),
(291,-10,cs),
(464,-10,o),
(559,79,o),
(559,238,cs)
);
}
);
};
guides = (
{
angle = 80.5;
pos = (102,239);
},
{
angle = 80.5;
pos = (564,239);
},
{
angle = 80.5;
pos = (150,239);
},
{
angle = 80.5;
pos = (511,239);
},
{
angle = 80.5;
pos = (282,239);
},
{
angle = 180;
pos = (523,673);
}
);
layerId = "4E5694F4-F64E-4331-B998-78BE273203C7";
shapes = (
{
closed = 1;
nodes = (
(417,-26,o),
(559,44,o),
(559,238,cs),
(559,336,o),
(504,400,o),
(403,409,c),
(406,398,l),
(615,673,l),
(621,700,l),
(380,700,ls),
(241,700,o),
(167,630,o),
(145,496,cs),
(62,0,l),
(110,0,l),
(191,484,ls),
(211,603,o),
(261,658,o),
(379,658,cs),
(581,658,l),
(563,673,l),
(365,412,l),
(370,378,l),
(384,377,ls),
(460,370,o),
(506,316,o),
(506,234,cs),
(506,71,o),
(386,20,o),
(248,37,c),
(241,-7,l)
);
}
);
userData = {
com.hugojourdan.ColorFlow = {
"0" = 0;
"1" = 0;
"10" = 0;
"11" = 0;
"2" = 0;
"3" = 0;
"4" = 0;
"5" = 0;
"6" = 0;
"7" = 0;
"8" = 0;
"9" = 0;
};
};
width = 639;
},
{
guides = (
{
angle = 80.5;
pos = (88,245);
},
{
angle = 80.5;
pos = (580,245);
},
{
angle = 80.5;
pos = (565,245);
}
);
layerId = "DF4E5521-40BA-460F-874A-364F4D14AAD8";
shapes = (
{
closed = 1;
nodes = (
(449,-29,o),
(573,59,o),
(573,226,cs),
(573,332,o),
(524,391,o),
(425,404,c),
(434,386,l),
(634,657,l),
(641,700,l),
(379,700,ls),
(235,700,o),
(151,624,o),
(128,484,cs),
(47,0,l),
(145,0,l),
(225,478,ls),
(242,579,o),
(285,622,o),
(377,622,cs),
(550,622,l),
(536,659,l),
(347,399,l),
(355,346,l),
(368,345,ls),
(435,340,o),
(468,299,o),
(468,223,cs),
(468,109,o),
(397,57,o),
(260,72,c),
(247,-6,l)
);
}
);
userData = {
com.hugojourdan.ColorFlow = {
"0" = 0;
"1" = 0;
"10" = 0;
"11" = 0;
"2" = 0;
"3" = 0;
"4" = 0;
"5" = 0;
"6" = 0;
"7" = 0;
"8" = 0;
"9" = 0;
};
};
width = 643;
},
{
background = {
shapes = (
{
closed = 0;
nodes = (
(311,383,l),
(322,299,l),
(353,297,ls),
(391,294,o),
(412,269,o),
(412,233,cs),
(412,228,o),
(411,222,o),
(410,215,cs),
(399,146,o),
(365,121,o),
(295,121,cs),
(289,121,o),
(283,122,o),
(276,122,c),
(255,-7,l),
(276,-9,o),
(296,-10,o),
(315,-10,cs),
(478,-10,o),
(570,55,o),
(592,188,cs),
(594,201,o),
(595,214,o),
(595,227,cs),
(595,314,o),
(540,371,o),
(449,372,c),
(454,350,l)
);
}
);
};
guides = (
{
angle = 80.5;
pos = (54,251);
},
{
angle = 80.5;
pos = (232,251);
},
{
angle = 80.5;
pos = (602,251);
},
{
angle = 80.5;
pos = (597,251);
},
{
angle = 80.5;
pos = (298,251);
},
{
angle = 80.5;
pos = (416,251);
},
{
angle = 53.3625;
pos = (311,383);
}
);
layerId = "C6DE9ED7-34B3-46A1-8A00-A72C4A5E93A3";
shapes = (
{
closed = 1;
nodes = (
(459,-30,o),
(593,60,o),
(593,220,cs),
(593,315,o),
(545,368,o),
(449,381,c),
(454,350,l),
(660,627,l),
(672,700,l),
(377,700,ls),
(216,700,o),
(116,621,o),
(91,472,cs),
(12,0,l),
(190,0,l),
(268,466,ls),
(280,536,o),
(312,564,o),
(381,564,cs),
(493,564,l),
(485,617,l),
(311,383,l),
(322,299,l),
(353,297,ls),
(391,295,o),
(410,272,o),
(410,227,cs),
(410,152,o),
(358,112,o),
(276,122,c),
(255,-7,l)
);
}
);
userData = {
com.hugojourdan.ColorFlow = {
"0" = 0;
"1" = 0;
"10" = 0;
"11" = 0;
"2" = 0;
"3" = 0;
"4" = 0;
"5" = 0;
"6" = 0;
"7" = 0;
"8" = 0;
"9" = 0;
};
};
width = 648;
},
{
layerId = "D2741A44-CB8E-4434-9CC9-735A9A127F4C";
shapes = (
{
closed = 1;
nodes = (
(422,-25,o),
(561,45,o),
(561,236,cs),
(561,333,o),
(505,396,o),
(404,404,c),
(407,398,l),
(613,673,l),
(619,700,l),
(378,700,ls),
(239,700,o),
(166,630,o),
(145,495,cs),
(66,0,l),
(114,0,l),
(191,483,ls),
(210,611,o),
(260,668,o),
(378,668,cs),
(580,668,l),
(561,673,l),
(366,412,l),
(371,378,l),
(385,377,ls),
(462,370,o),
(508,316,o),
(508,232,cs),
(508,64,o),
(391,9,o),
(262,25,c),
(255,-7,l)
);
}
);
userData = {
com.hugojourdan.ColorFlow = {
"0" = 0;
"1" = 0;
"10" = 0;
"11" = 0;
"2" = 0;
"3" = 0;
"4" = 0;
"5" = 0;
"6" = 0;
"7" = 0;
"8" = 0;
"9" = 0;
};
};
width = 640;
},
{
layerId = "0B63B416-D10E-4459-8DAA-360BF3D1BFD2";
shapes = (
{
closed = 1;
nodes = (
(434,-26,o),
(580,44,o),
(580,236,cs),
(580,325,o),
(517,383,o),
(403,391,c),
(430,374,l),
(642,655,l),
(648,700,l),
(391,700,ls),
(236,700,o),
(153,625,o),
(130,485,cs),
(47,0,l),
(145,0,l),
(226,492,ls),
(246,597,o),
(289,645,o),
(388,645,cs),
(570,645,l),
(550,661,l),
(353,400,l),
(361,356,l),
(371,355,ls),
(443,347,o),
(477,307,o),
(477,231,cs),
(477,80,o),
(373,33,o),
(271,48,c),
(264,-7,l)
);
}
);
userData = {
com.hugojourdan.ColorFlow = {
"0" = 0;
"1" = 0;
"10" = 0;
"11" = 0;
"2" = 0;
"3" = 0;
"4" = 0;
"5" = 0;
"6" = 0;
"7" = 0;
"8" = 0;
"9" = 0;
};
};
width = 650;
},
{
layerId = "EE3858F4-A475-4EBA-A8F4-31CE9F38567C";
shapes = (
{
closed = 1;
nodes = (
(449,-26,o),
(602,44,o),
(602,234,cs),
(602,313,o),
(527,364,o),
(393,371,c),
(456,337,l),
(673,627,l),
(679,700,l),
(398,700,ls),
(217,700,o),
(119,617,o),
(94,468,cs),
(12,0,l),
(189,0,l),
(270,506,ls),
(290,575,o),
(321,609,o),
(390,609,cs),
(540,609,l),
(519,643,l),
(321,381,l),
(335,321,l),
(339,320,ls),
(404,311,o),
(419,293,o),
(419,228,cs),
(419,107,o),
(340,72,o),
(278,84,c),
(272,-7,l)
);
}
);
userData = {
com.hugojourdan.ColorFlow = {
"0" = 0;
"1" = 0;
"10" = 0;
"11" = 0;
"2" = 0;
"3" = 0;
"4" = 0;
"5" = 0;
"6" = 0;
"7" = 0;
"8" = 0;
"9" = 0;
};
};
width = 654;
}
);
metricLeft = "=I";
metricRight = "=eight";
unicode = 7838;
},
{
glyphname = T;
layers = (
{
layerId = m01;
shapes = (
{
closed = 1;
nodes = (
(296,0,l),
(296,668,l),
(516,668,l),
(516,700,l),
(28,700,l),
(28,668,l),
(248,668,l),
(248,0,l)
);
}
);
userData = {
com.hugojourdan.ColorFlow = {
"0" = 0;
"1" = 0;
"10" = 0;
"11" = 0;
"2" = 0;
"3" = 0;
"4" = 0;
"5" = 0;
"6" = 0;
"7" = 0;
"8" = 0;
"9" = 0;
};
};
width = 544;
},
{
layerId = "FF73925E-1E34-445B-881D-5A7CAAA8E8BE";
shapes = (
{
closed = 1;
nodes = (
(378,0,l),
(378,610,l),
(563,610,l),
(563,700,l),
(15,700,l),
(15,610,l),
(200,610,l),
(200,0,l)
);
}
);
userData = {
com.hugojourdan.ColorFlow = {
"0" = 0;
"1" = 0;
"10" = 0;
"11" = 0;
"2" = 0;
"3" = 0;
"4" = 0;
"5" = 0;
"6" = 0;
"7" = 0;
"8" = 0;
"9" = 0;
};
};
width = 578;
},
{
layerId = "BF6BA5B2-0556-42F4-A103-614BEBF16A1A";
shapes = (
{
closed = 1;
nodes = (
(328,0,l),
(328,648,l),
(534,648,l),
(534,700,l),
(24,700,l),
(24,648,l),
(230,648,l),
(230,0,l)
);
}
);
userData = {
com.hugojourdan.ColorFlow = {
"0" = 0;
"1" = 0;
"10" = 0;
"11" = 0;
"2" = 0;
"3" = 0;
"4" = 0;
"5" = 0;
"6" = 0;
"7" = 0;
"8" = 0;
"9" = 0;
};
};
width = 558;
},
{
layerId = m004;
shapes = (
{
closed = 1;
nodes = (
(296,0,l),
(296,658,l),
(516,658,l),
(516,700,l),
(28,700,l),
(28,658,l),
(248,658,l),
(248,0,l)
);
}
);
userData = {
com.hugojourdan.ColorFlow = {
"0" = 0;
"1" = 0;
"10" = 0;
"11" = 0;
"2" = 0;
"3" = 0;
"4" = 0;
"5" = 0;
"6" = 0;
"7" = 0;
"8" = 0;
"9" = 0;
};
};
width = 544;
},
{
layerId = m005;
shapes = (
{
closed = 1;
nodes = (
(328,0,l),
(328,617,l),
(534,617,l),
(534,700,l),
(24,700,l),
(24,617,l),
(230,617,l),
(230,0,l)
);
}
);
userData = {
com.hugojourdan.ColorFlow = {
"0" = 0;
"1" = 0;
"10" = 0;
"11" = 0;
"2" = 0;
"3" = 0;
"4" = 0;
"5" = 0;
"6" = 0;
"7" = 0;
"8" = 0;
"9" = 0;
};
};
width = 558;
},
{
layerId = m006;
shapes = (
{
closed = 1;
nodes = (
(378,0,l),
(378,557,l),
(563,557,l),
(563,700,l),
(15,700,l),
(15,557,l),
(200,557,l),
(200,0,l)
);
}
);
userData = {
com.hugojourdan.ColorFlow = {
"0" = 0;
"1" = 0;
"10" = 0;
"11" = 0;
"2" = 0;
"3" = 0;
"4" = 0;
"5" = 0;
"6" = 0;
"7" = 0;
"8" = 0;
"9" = 0;
};
};
width = 578;
},
{
layerId = "4E5694F4-F64E-4331-B998-78BE273203C7";
shapes = (
{
closed = 1;
nodes = (
(256,0,l),
(366,658,l),
(586,658,l),
(593,700,l),
(105,700,l),
(98,658,l),
(318,658,l),
(208,0,l)
);
}
);
userData = {
com.hugojourdan.ColorFlow = {
"0" = 0;
"1" = 0;
"10" = 0;
"11" = 0;
"2" = 0;
"3" = 0;
"4" = 0;
"5" = 0;
"6" = 0;
"7" = 0;
"8" = 0;
"9" = 0;
};
};
width = 544;
},
{
layerId = "DF4E5521-40BA-460F-874A-364F4D14AAD8";
shapes = (
{
closed = 1;
nodes = (
(287,0,l),
(390,617,l),
(596,617,l),
(610,700,l),
(100,700,l),
(86,617,l),
(292,617,l),
(189,0,l)
);
}
);
userData = {
com.hugojourdan.ColorFlow = {
"0" = 0;
"1" = 0;
"10" = 0;
"11" = 0;
"2" = 0;
"3" = 0;
"4" = 0;
"5" = 0;
"6" = 0;
"7" = 0;
"8" = 0;
"9" = 0;
};
};
width = 558;
},
{
layerId = "C6DE9ED7-34B3-46A1-8A00-A72C4A5E93A3";
shapes = (
{
closed = 1;
nodes = (
(336,0,l),
(429,557,l),
(614,557,l),
(638,700,l),
(90,700,l),
(66,557,l),
(251,557,l),
(158,0,l)
);
}
);
userData = {
com.hugojourdan.ColorFlow = {
"0" = 0;
"1" = 0;
"10" = 0;
"11" = 0;
"2" = 0;
"3" = 0;
"4" = 0;
"5" = 0;
"6" = 0;
"7" = 0;
"8" = 0;
"9" = 0;
};
};
width = 578;
},
{
layerId = "D2741A44-CB8E-4434-9CC9-735A9A127F4C";
shapes = (
{
closed = 1;
nodes = (
(256,0,l),
(368,668,l),
(588,668,l),
(593,700,l),
(105,700,l),
(100,668,l),
(320,668,l),
(208,0,l)
);
}
);
userData = {
com.hugojourdan.ColorFlow = {
"0" = 0;
"1" = 0;
"10" = 0;
"11" = 0;
"2" = 0;
"3" = 0;
"4" = 0;
"5" = 0;
"6" = 0;
"7" = 0;
"8" = 0;
"9" = 0;
};
};
width = 544;
},
{
layerId = "0B63B416-D10E-4459-8DAA-360BF3D1BFD2";
shapes = (
{
closed = 1;
nodes = (
(287,0,l),
(395,648,l),
(601,648,l),
(610,700,l),
(100,700,l),
(91,648,l),
(297,648,l),
(189,0,l)
);
}
);
userData = {
com.hugojourdan.ColorFlow = {
"0" = 0;
"1" = 0;
"10" = 0;
"11" = 0;
"2" = 0;
"3" = 0;
"4" = 0;
"5" = 0;
"6" = 0;
"7" = 0;
"8" = 0;
"9" = 0;
};
};
width = 558;
},
{
layerId = "EE3858F4-A475-4EBA-A8F4-31CE9F38567C";
shapes = (
{
closed = 1;
nodes = (
(336,0,l),
(438,610,l),
(623,610,l),
(638,700,l),
(90,700,l),
(75,610,l),
(260,610,l),
(158,0,l)
);
}
);
userData = {
com.hugojourdan.ColorFlow = {
"0" = 0;
"1" = 0;
"10" = 0;
"11" = 0;
"2" = 0;
"3" = 0;
"4" = 0;
"5" = 0;
"6" = 0;
"7" = 0;
"8" = 0;
"9" = 0;
};
};
width = 578;
}
);
metricLeft = "=H*0.27";
metricRight = "=|";
note = T;
unicode = 84;
userData = {
KernOnName = T;
};
},
{
glyphname = U;
layers = (
{
anchors = (
{
name = top;
pos = (322,700);
}
);
layerId = m01;
shapes = (
{
closed = 1;
nodes = (
(468,-10,o),
(541,81,o),
(541,280,cs),
(541,700,l),
(503,700,l),
(503,261,ls),
(503,97,o),
(444,22,o),
(315,22,cs),
(194,22,o),
(138,86,o),
(138,226,cs),
(138,700,l),
(90,700,l),
(90,250,ls),
(90,71,o),
(160,-10,o),
(309,-10,cs)
);
}
);
userData = {
com.hugojourdan.ColorFlow = {
"0" = 0;
"1" = 0;
"10" = 0;
"11" = 0;
"2" = 0;
"3" = 0;
"4" = 0;
"5" = 0;
"6" = 0;
"7" = 0;
"8" = 0;
"9" = 0;
};
};
width = 631;
},
{
anchors = (
{
name = top;
pos = (351,700);
}
);
layerId = "FF73925E-1E34-445B-881D-5A7CAAA8E8BE";
shapes = (
{
closed = 1;
nodes = (
(506,-10,o),
(596,86,o),
(596,288,cs),
(596,700,l),
(475,700,l),
(475,244,ls),
(475,131,o),
(436,80,o),
(351,80,cs),
(268,80,o),
(226,129,o),
(226,224,cs),
(226,700,l),
(48,700,l),
(48,242,ls),
(48,74,o),
(138,-10,o),
(316,-10,cs)
);
}
);
userData = {
com.hugojourdan.ColorFlow = {
"0" = 0;
"1" = 0;
"10" = 0;
"11" = 0;
"2" = 0;
"3" = 0;
"4" = 0;
"5" = 0;
"6" = 0;
"7" = 0;
"8" = 0;
"9" = 0;
};
};
width = 644;
},
{
anchors = (
{
name = top;
pos = (347,700);
}
);
layerId = "BF6BA5B2-0556-42F4-A103-614BEBF16A1A";
shapes = (
{
closed = 1;
nodes = (
(499,-10,o),
(581,84,o),
(581,283,cs),
(581,700,l),
(511,700,l),
(511,249,ls),
(511,104,o),
(458,38,o),
(341,38,cs),
(235,38,o),
(183,95,o),
(183,213,cs),
(183,700,l),
(77,700,l),
(77,241,ls),
(77,72,o),
(159,-10,o),
(325,-10,cs)
);
}
);
userData = {
com.hugojourdan.ColorFlow = {
"0" = 0;
"1" = 0;
"10" = 0;
"11" = 0;
"2" = 0;
"3" = 0;
"4" = 0;
"5" = 0;
"6" = 0;
"7" = 0;
"8" = 0;
"9" = 0;
};
};
width = 658;
},
{
anchors = (
{
name = top;
pos = (322,700);
}
);
layerId = m004;
shapes = (
{
closed = 1;
nodes = (
(474,-10,o),
(541,76,o),
(541,280,cs),
(541,700,l),
(493,700,l),
(493,271,ls),
(493,102,o),
(441,32,o),
(315,32,cs),
(195,32,o),
(138,97,o),
(138,236,cs),
(138,700,l),
(90,700,l),
(90,250,ls),
(90,70,o),
(160,-10,o),
(315,-10,cs)
);
}
);
userData = {
com.hugojourdan.ColorFlow = {
"0" = 0;
"1" = 0;
"10" = 0;
"11" = 0;
"2" = 0;
"3" = 0;
"4" = 0;
"5" = 0;
"6" = 0;
"7" = 0;
"8" = 0;
"9" = 0;
};
};
width = 631;
},
{
anchors = (
{
name = top;
pos = (329,700);
}
);
layerId = m005;
shapes = (
{
closed = 1;
nodes = (
(499,-10,o),
(581,85,o),
(581,282,cs),
(581,700,l),
(475,700,l),
(475,269,ls),
(475,135,o),
(430,75,o),
(329,75,cs),
(231,75,o),
(183,132,o),
(183,248,cs),
(183,700,l),
(77,700,l),
(77,264,ls),
(77,82,o),
(161,-10,o),
(329,-10,cs)
);
}
);
userData = {
com.hugojourdan.ColorFlow = {
"0" = 0;
"1" = 0;
"10" = 0;
"11" = 0;
"2" = 0;
"3" = 0;
"4" = 0;
"5" = 0;
"6" = 0;
"7" = 0;
"8" = 0;
"9" = 0;
};
};
width = 658;
},
{
anchors = (
{
name = top;
pos = (326,700);
}
);
layerId = m006;
shapes = (
{
closed = 1;
nodes = (
(501,-10,o),
(596,91,o),
(596,279,cs),
(596,700,l),
(418,700,l),
(418,267,ls),
(418,182,o),
(386,138,o),
(322,138,cs),
(258,138,o),
(226,182,o),
(226,267,cs),
(226,700,l),
(48,700,l),
(48,279,ls),
(48,91,o),
(143,-10,o),
(322,-10,cs)
);
}
);
userData = {
com.hugojourdan.ColorFlow = {
"0" = 0;
"1" = 0;
"10" = 0;
"11" = 0;
"2" = 0;
"3" = 0;
"4" = 0;
"5" = 0;
"6" = 0;
"7" = 0;
"8" = 0;
"9" = 0;
};
};
width = 644;
},
{
anchors = (
{
name = top;
pos = (397,700);
}
);
background = {
shapes = (
{
closed = 1;
nodes = (
(98,0,l),
(215,702,l),
(167,702,l),
(50,0,l)
);
},
{
closed = 1;
nodes = (
(501,0,l),
(618,702,l),
(570,702,l),
(453,0,l)
);
}
);
};
layerId = "4E5694F4-F64E-4331-B998-78BE273203C7";
shapes = (
{
closed = 1;
nodes = (
(439,-10,o),
(513,71,o),
(545,263,cs),
(618,700,l),
(570,700,l),
(496,257,ls),
(469,94,o),
(414,32,o),
(297,32,cs),
(171,32,o),
(116,109,o),
(140,251,cs),
(215,700,l),
(167,700,l),
(95,269,ls),
(65,88,o),
(135,-10,o),
(295,-10,cs)
);
}
);
userData = {
com.hugojourdan.ColorFlow = {
"0" = 0;
"1" = 0;
"10" = 0;
"11" = 0;
"2" = 0;
"3" = 0;
"4" = 0;
"5" = 0;
"6" = 0;
"7" = 0;
"8" = 0;
"9" = 0;
};
};
width = 631;
},
{
anchors = (
{
name = top;
pos = (409,700);
}
);
background = {
shapes = (
{
closed = 1;
nodes = (
(134,0,l),
(251,700,l),
(153,700,l),
(36,0,l)
);
},
{
closed = 1;
nodes = (
(538,0,l),
(655,700,l),
(557,700,l),
(440,0,l)
);
}
);
};
layerId = "DF4E5521-40BA-460F-874A-364F4D14AAD8";
shapes = (
{
closed = 1;
nodes = (
(469,-10,o),
(550,72,o),
(582,263,cs),
(655,700,l),
(557,700,l),
(483,257,ls),
(462,130,o),
(411,75,o),
(314,75,cs),
(206,75,o),
(158,142,o),
(178,263,cs),
(251,700,l),
(153,700,l),
(84,287,ls),
(52,98,o),
(135,-10,o),
(312,-10,cs)
);
}
);
userData = {
com.hugojourdan.ColorFlow = {
"0" = 0;
"1" = 0;
"10" = 0;
"11" = 0;
"2" = 0;
"3" = 0;
"4" = 0;
"5" = 0;
"6" = 0;
"7" = 0;
"8" = 0;
"9" = 0;
};
};
width = 656;
},
{
anchors = (
{
name = top;
pos = (402,700);
}
);
background = {
shapes = (
{
closed = 1;
nodes = (
(184,0,l),
(301,700,l),
(123,700,l),
(6,0,l)
);
},
{
closed = 1;
nodes = (
(554,0,l),
(671,700,l),
(493,700,l),
(376,0,l)
);
}
);
};
layerId = "C6DE9ED7-34B3-46A1-8A00-A72C4A5E93A3";
shapes = (
{
closed = 1;
nodes = (
(472,-10,o),
(567,77,o),
(597,257,cs),
(671,700,l),
(493,700,l),
(419,257,ls),
(405,174,o),
(373,138,o),
(316,138,cs),
(249,138,o),
(216,189,o),
(230,275,cs),
(301,700,l),
(123,700,l),
(57,305,ls),
(24,109,o),
(118,-10,o),
(309,-10,cs)
);
}
);
userData = {
com.hugojourdan.ColorFlow = {
"0" = 0;
"1" = 0;
"10" = 0;
"11" = 0;
"2" = 0;
"3" = 0;
"4" = 0;
"5" = 0;
"6" = 0;
"7" = 0;
"8" = 0;
"9" = 0;
};
};
width = 644;
},
{
anchors = (
{
name = top;
pos = (397,700);
}
);
layerId = "D2741A44-CB8E-4434-9CC9-735A9A127F4C";
shapes = (
{
closed = 1;
nodes = (
(439,-10,o),
(518,76,o),
(549,264,cs),
(618,700,l),
(580,700,l),
(510,248,ls),
(484,89,o),
(422,22,o),
(302,22,cs),
(175,22,o),
(121,97,o),
(144,240,cs),
(215,700,l),
(167,700,l),
(99,268,ls),
(70,88,o),
(140,-10,o),
(294,-10,cs)
);
}
);
userData = {
com.hugojourdan.ColorFlow = {
"0" = 0;
"1" = 0;
"10" = 0;
"11" = 0;
"2" = 0;
"3" = 0;
"4" = 0;
"5" = 0;
"6" = 0;
"7" = 0;
"8" = 0;
"9" = 0;
};
};
width = 635;
},
{
anchors = (
{
name = top;
pos = (403,700);
}
);
layerId = "0B63B416-D10E-4459-8DAA-360BF3D1BFD2";
shapes = (
{
closed = 1;
nodes = (
(441,-10,o),
(525,77,o),
(558,266,cs),
(631,700,l),
(561,700,l),
(487,245,ls),
(459,106,o),
(406,49,o),
(307,49,cs),
(194,49,o),
(147,120,o),
(171,249,cs),
(246,700,l),
(153,700,l),
(82,270,ls),
(51,90,o),
(126,-10,o),
(287,-10,cs)
);
}
);
userData = {
com.hugojourdan.ColorFlow = {
"0" = 0;
"1" = 0;
"10" = 0;
"11" = 0;
"2" = 0;
"3" = 0;
"4" = 0;
"5" = 0;
"6" = 0;
"7" = 0;
"8" = 0;
"9" = 0;
};
};
width = 632;
},
{
anchors = (
{
name = top;
pos = (407,700);
}
);
layerId = "EE3858F4-A475-4EBA-A8F4-31CE9F38567C";
shapes = (
{
closed = 1;
nodes = (
(448,-10,o),
(540,79,o),
(573,271,cs),
(646,700,l),
(526,700,l),
(451,241,ls),
(423,133,o),
(384,91,o),
(317,91,cs),
(226,91,o),
(190,154,o),
(214,260,cs),
(289,700,l),
(123,700,l),
(53,271,ls),
(22,92,o),
(105,-10,o),
(278,-10,cs)
);
}
);
userData = {
com.hugojourdan.ColorFlow = {
"0" = 0;
"1" = 0;
"10" = 0;
"11" = 0;
"2" = 0;
"3" = 0;
"4" = 0;
"5" = 0;
"6" = 0;
"7" = 0;
"8" = 0;
"9" = 0;
};
};
width = 619;
}
);
metricLeft = "=H*0.88";
metricRight = "=|";
note = U;
unicode = 85;
},
{
glyphname = V;
layers = (
{
layerId = m01;
metricLeft = "=W*1.03";
shapes = (
{
closed = 1;
nodes = (
(309,0,l),
(546,700,l),
(508,700,l),
(285,39,l),
(313,39,l),
(99,700,l),
(45,700,l),
(281,0,l)
);
}
);
userData = {
com.hugojourdan.ColorFlow = {
"0" = 0;
"1" = 0;
"10" = 0;
"11" = 0;
"2" = 0;
"3" = 0;
"4" = 0;
"5" = 0;
"6" = 0;
"7" = 0;
"8" = 0;
"9" = 0;
};
};
width = 591;
},
{
layerId = "FF73925E-1E34-445B-881D-5A7CAAA8E8BE";
shapes = (
{
closed = 1;
nodes = (
(399,0,l),
(595,700,l),
(495,700,l),
(339,135,l),
(352,135,l),
(206,700,l),
(11,700,l),
(208,0,l)
);
}
);
userData = {
com.hugojourdan.ColorFlow = {
"0" = 0;
"1" = 0;
"10" = 0;
"11" = 0;
"2" = 0;
"3" = 0;
"4" = 0;
"5" = 0;
"6" = 0;
"7" = 0;
"8" = 0;
"9" = 0;
};
};
width = 606;
},
{
layerId = "BF6BA5B2-0556-42F4-A103-614BEBF16A1A";
shapes = (
{
closed = 1;
nodes = (
(343,0,l),
(565,700,l),
(497,700,l),
(302,73,l),
(328,73,l),
(140,700,l),
(32,700,l),
(253,0,l)
);
}
);
userData = {
com.hugojourdan.ColorFlow = {
"0" = 0;
"1" = 0;
"10" = 0;
"11" = 0;
"2" = 0;
"3" = 0;
"4" = 0;
"5" = 0;
"6" = 0;
"7" = 0;
"8" = 0;
"9" = 0;
};
};
width = 597;
},
{
layerId = m004;
shapes = (
{
closed = 1;
nodes = (
(311,0,l),
(547,700,l),
(493,700,l),
(278,35,l),
(306,35,l),
(90,700,l),
(36,700,l),
(272,0,l)
);
}
);
userData = {
com.hugojourdan.ColorFlow = {
"0" = 0;
"1" = 0;
"10" = 0;
"11" = 0;
"2" = 0;
"3" = 0;
"4" = 0;
"5" = 0;
"6" = 0;
"7" = 0;
"8" = 0;
"9" = 0;
};
};
width = 583;
},
{
layerId = m005;
shapes = (
{
closed = 1;
nodes = (
(365,0,l),
(597,700,l),
(489,700,l),
(302,80,l),
(328,80,l),
(140,700,l),
(32,700,l),
(264,0,l)
);
}
);
userData = {
com.hugojourdan.ColorFlow = {
"0" = 0;
"1" = 0;
"10" = 0;
"11" = 0;
"2" = 0;
"3" = 0;
"4" = 0;
"5" = 0;
"6" = 0;
"7" = 0;
"8" = 0;
"9" = 0;
};
};
width = 629;
},
{
layerId = m006;
shapes = (
{
closed = 1;
nodes = (
(435,0,l),
(662,700,l),
(470,700,l),
(329,151,l),
(351,151,l),
(209,700,l),
(11,700,l),
(238,0,l)
);
}
);
userData = {
com.hugojourdan.ColorFlow = {
"0" = 0;
"1" = 0;
"10" = 0;
"11" = 0;
"2" = 0;
"3" = 0;
"4" = 0;
"5" = 0;
"6" = 0;
"7" = 0;
"8" = 0;
"9" = 0;
};
};
width = 673;
},
{
layerId = "4E5694F4-F64E-4331-B998-78BE273203C7";
shapes = (
{
closed = 1;
nodes = (
(266,0,l),
(624,700,l),
(568,700,l),
(238,35,l),
(267,35,l),
(165,700,l),
(113,700,l),
(227,0,l)
);
}
);
userData = {
com.hugojourdan.ColorFlow = {
"0" = 0;
"1" = 0;
"10" = 0;
"11" = 0;
"2" = 0;
"3" = 0;
"4" = 0;
"5" = 0;
"6" = 0;
"7" = 0;
"8" = 0;
"9" = 0;
};
};
width = 583;
},
{
layerId = "DF4E5521-40BA-460F-874A-364F4D14AAD8";
shapes = (
{
closed = 1;
nodes = (
(320,0,l),
(673,700,l),
(562,700,l),
(265,80,l),
(295,80,l),
(213,700,l),
(108,700,l),
(219,0,l)
);
}
);
userData = {
com.hugojourdan.ColorFlow = {
"0" = 0;
"1" = 0;
"10" = 0;
"11" = 0;
"2" = 0;
"3" = 0;
"4" = 0;
"5" = 0;
"6" = 0;
"7" = 0;
"8" = 0;
"9" = 0;
};
};
width = 629;
},
{
layerId = "C6DE9ED7-34B3-46A1-8A00-A72C4A5E93A3";
shapes = (
{
closed = 1;
nodes = (
(390,0,l),
(737,700,l),
(535,700,l),
(301,151,l),
(325,151,l),
(276,700,l),
(86,700,l),
(193,0,l)
);
}
);
userData = {
com.hugojourdan.ColorFlow = {
"0" = 0;
"1" = 0;
"10" = 0;
"11" = 0;
"2" = 0;
"3" = 0;
"4" = 0;
"5" = 0;
"6" = 0;
"7" = 0;
"8" = 0;
"9" = 0;
};
};
width = 673;
},
{
layerId = "D2741A44-CB8E-4434-9CC9-735A9A127F4C";
shapes = (
{
closed = 1;
nodes = (
(258,0,l),
(611,700,l),
(571,700,l),
(239,39,l),
(268,39,l),
(162,700,l),
(110,700,l),
(230,0,l)
);
}
);
userData = {
com.hugojourdan.ColorFlow = {
"0" = 0;
"1" = 0;
"10" = 0;
"11" = 0;
"2" = 0;
"3" = 0;
"4" = 0;
"5" = 0;
"6" = 0;
"7" = 0;
"8" = 0;
"9" = 0;
};
};
width = 567;
},
{
layerId = "0B63B416-D10E-4459-8DAA-360BF3D1BFD2";
shapes = (
{
closed = 1;
nodes = (
(290,0,l),
(633,700,l),
(573,700,l),
(260,78,l),
(280,78,l),
(207,700,l),
(100,700,l),
(198,0,l)
);
}
);
userData = {
com.hugojourdan.ColorFlow = {
"0" = 0;
"1" = 0;
"10" = 0;
"11" = 0;
"2" = 0;
"3" = 0;
"4" = 0;
"5" = 0;
"6" = 0;
"7" = 0;
"8" = 0;
"9" = 0;
};
};
width = 581;
},
{
layerId = "EE3858F4-A475-4EBA-A8F4-31CE9F38567C";
shapes = (
{
closed = 1;
nodes = (
(346,0,l),
(663,700,l),
(571,700,l),
(298,139,l),
(304,139,l),
(273,700,l),
(79,700,l),
(153,0,l)
);
}
);
userData = {
com.hugojourdan.ColorFlow = {
"0" = 0;
"1" = 0;
"10" = 0;
"11" = 0;
"2" = 0;
"3" = 0;
"4" = 0;
"5" = 0;
"6" = 0;
"7" = 0;
"8" = 0;
"9" = 0;
};
};
width = 592;
}
);
metricLeft = "=W*0.82";
metricRight = "=|";
note = V;
unicode = 86;
userData = {
KernOnName = V;
};
},
